<?xml version="1.0" standalone="no"?>
<!DOCTYPE svg PUBLIC "-//W3C//DTD SVG 1.1//EN" "http://www.w3.org/Graphics/SVG/1.1/DTD/svg11.dtd" >
<svg xmlns="http://www.w3.org/2000/svg" xmlns:xlink="http://www.w3.org/1999/xlink" version="1.1">
<metadata>
Created by FontForge 20201107 at Mon Apr 29 17:20:39 2024
 By 
Copyright (c) 2015 by Laura Worthington. All rights reserved.
</metadata>
<defs>
<font id="Congenial" horiz-adv-x="555" >
  <font-face 
    font-family="Congenial"
    font-weight="400"
    font-stretch="normal"
    units-per-em="2048"
    panose-1="2 0 5 3 0 0 0 2 0 4"
    ascent="1536"
    descent="-512"
    x-height="1044"
    cap-height="1372"
    bbox="-79.0444 -621 2537 1892"
    underline-thickness="102"
    underline-position="-204"
    unicode-range="U+000D-F8FF"
  />
<missing-glyph horiz-adv-x="456" 
 />
    <glyph glyph-name=".notdef" horiz-adv-x="456" 
 />
    <glyph glyph-name=".null" horiz-adv-x="0" 
 />
    <glyph glyph-name="nonmarkingreturn" horiz-adv-x="682" 
 />
    <glyph glyph-name="NULL" horiz-adv-x="0" 
 />
    <glyph glyph-name="NULL" horiz-adv-x="0" 
 />
    <glyph glyph-name="CR" unicode="&#xd;" horiz-adv-x="471" 
 />
    <glyph glyph-name="space" unicode=" " horiz-adv-x="471" 
 />
    <glyph glyph-name="exclam" unicode="!" horiz-adv-x="575" 
d="M338 449h-92q-23 0 -37 14t-14 39v919q0 24 13.5 39t37.5 15h92q24 0 37.5 -14.5t13.5 -39.5v-919q0 -53 -51 -53zM285 -14q-133 0 -133 147q0 75 34.5 113.5t98.5 38.5q65 0 102 -38.5t37 -113.5q0 -147 -139 -147z" />
    <glyph glyph-name="quotedbl" unicode="&#x22;" horiz-adv-x="862" 
d="M266 1393q69 0 91 -15t22 -45q0 -42 -20 -176.5t-40 -210.5q-7 -25 -18.5 -33t-34.5 -8t-34.5 8t-18.5 33q-20 75 -39.5 210t-19.5 177q0 30 21.5 45t90.5 15zM598 1393q68 0 90.5 -15t22.5 -45q0 -39 -20.5 -174t-39.5 -213q-7 -25 -19 -33t-34 -8q-23 0 -34.5 8
t-18.5 33q-20 77 -41 211.5t-21 175.5q0 30 23 45t92 15z" />
    <glyph glyph-name="numbersign" unicode="#" horiz-adv-x="1329" 
d="M680 -2q-27 0 -40 17t-7 44l76 287h-252l-80 -297q-12 -51 -64 -51h-86q-27 0 -40.5 17.5t-6.5 43.5l76 287h-150q-59 0 -59 45q0 42 20.5 83.5t55.5 41.5h178l80 297h-186q-60 0 -60 45q0 44 23 84.5t55 40.5h213l86 315q16 52 63 52h87q29 0 43 -18t6 -46l-82 -303h250
l86 315q16 52 63 52h84q30 0 43.5 -18t5.5 -46l-82 -303h135q31 0 45.5 -12t14.5 -39q0 -34 -21.5 -76.5t-56.5 -42.5h-162l-80 -297h170q58 0 58 -53q0 -36 -20.5 -76.5t-53.5 -40.5h-199l-80 -297q-15 -51 -65 -51h-84zM582 813l-80 -297h252l80 297h-252z" />
    <glyph glyph-name="dollar" unicode="$" horiz-adv-x="999" 
d="M481 -20q-42 0 -56.5 8.5t-14.5 25.5v80q-88 11 -158.5 47t-114.5 80q-36 32 -33 58q3 20 27 36l47 27q19 10 39 10q25 0 51 -26q61 -61 142 -72v408q-142 47 -216.5 116t-74.5 183q0 87 43 156t107 108t141 55v106q0 17 14.5 26t56.5 9q70 0 70 -35v-98
q195 -16 303 -164q18 -25 18 -45q0 -29 -30 -49q-66 -35 -86 -35q-7 0 -14.5 6.5t-19 21t-15.5 19.5q-61 72 -156 84v-327q173 -51 259.5 -130t86.5 -214q0 -132 -97.5 -235t-248.5 -126v-80q0 -34 -70 -34zM725 455q0 38 -12.5 65.5t-39.5 46t-53 29t-69 22.5v-358
q76 19 125 68t49 127zM291 963q0 -46 32.5 -75t86.5 -50v274q-52 -19 -85.5 -56.5t-33.5 -92.5z" />
    <glyph glyph-name="percent" unicode="%" horiz-adv-x="1808" 
d="M424 657q-158 0 -261.5 95.5t-103.5 267.5q0 167 103.5 259.5t261.5 92.5q156 0 259 -92.5t103 -259.5q0 -172 -103 -267.5t-259 -95.5zM424 813q82 0 133 49.5t51 157.5q0 106 -51 153.5t-133 47.5q-84 0 -135 -47.5t-51 -153.5q0 -109 51 -158t135 -49zM1315 1300
l-625 -1255q-11 -23 -35 -34t-88 -11q-61 0 -81.5 11t-20.5 38q0 23 8 39l619 1239q9 15 17.5 22.5t35 15t69.5 7.5q64 0 87.5 -9t23.5 -34q0 -11 -10 -29zM1376 -10q-158 0 -261 95t-103 267q0 167 103 260t261 93q156 0 259.5 -93t103.5 -260q0 -172 -103 -267t-260 -95z
M1376 145q82 0 133.5 49.5t51.5 157.5q0 105 -51 153t-134 48q-84 0 -135 -47.5t-51 -153.5q0 -109 51 -158t135 -49z" />
    <glyph glyph-name="ampersand" unicode="&#x26;" horiz-adv-x="1183" 
d="M1077 625h-108q35 -70 35 -168q0 -99 -31.5 -185t-91.5 -151t-153 -102t-210 -37q-204 0 -330.5 112.5t-126.5 282.5q0 85 27.5 154.5t65 109t80 66t68.5 36t34 9.5q-8 3 -21.5 9.5t-47.5 31.5t-59.5 56t-47 84.5t-21.5 115.5q0 149 120.5 245.5t305.5 96.5
q96 0 170 -26.5t117 -70.5t64.5 -96t21.5 -108q0 -27 -56 -55.5t-91 -28.5q-22 0 -32.5 11.5t-17.5 35.5q-22 83 -58 120t-116 37q-90 0 -145 -49.5t-55 -130.5q0 -95 72 -149t169 -54h469q39 0 39 -102q0 -100 -39 -100zM805 463q0 85 -31 162h-176q-53 0 -104 -11.5
t-101 -37t-81 -74.5t-31 -115q0 -109 63.5 -162t179.5 -53q131 0 206 83.5t75 207.5z" />
    <glyph glyph-name="quotesingle" unicode="'" horiz-adv-x="532" 
d="M266 1393q69 0 91 -15t22 -45q0 -42 -20 -176.5t-40 -210.5q-7 -25 -18.5 -33t-34.5 -8t-34.5 8t-18.5 33q-20 75 -39.5 210t-19.5 177q0 30 21.5 45t90.5 15z" />
    <glyph glyph-name="parenleft" unicode="(" horiz-adv-x="710" 
d="M104 602q0 128 30 257.5t65.5 215.5t89.5 175.5t76.5 119t50.5 64.5q36 41 123 41q92 0 92 -37q0 -11 -21 -39q-22 -28 -49 -65.5t-78 -123.5t-89 -173t-67.5 -205.5t-29.5 -229.5t29.5 -229.5t67.5 -205.5t89 -173t78 -123.5t49 -65.5q21 -28 21 -38q0 -37 -92 -37
q-87 0 -123 41q-29 35 -51 64t-76 119t-89.5 175.5t-65.5 215t-30 257.5z" />
    <glyph glyph-name="parenright" unicode=")" horiz-adv-x="710" 
d="M604 602q0 -93 -15.5 -187t-37.5 -167t-56.5 -148t-60.5 -122t-61.5 -99t-48 -68.5t-31.5 -39.5q-31 -41 -121 -41q-92 0 -92 37q0 11 20 38q22 28 49 65.5t77.5 123.5t88.5 173t67.5 205.5t29.5 229.5t-29.5 229.5t-67.5 205.5t-88.5 173t-77.5 123.5t-49 65.5
q-20 23 -20 39q0 37 92 37q90 0 121 -41q18 -23 31 -39.5t48.5 -68.5t61.5 -99t60.5 -122.5t56.5 -148.5t37.5 -167t15.5 -187z" />
    <glyph glyph-name="asterisk" unicode="*" horiz-adv-x="763" 
d="M377 784q-26 0 -43 15.5t-17 40.5q0 15 2 45t5 74.5t4 70.5q-137 -105 -140 -106q-24 -16 -41 -11q-20 0 -44.5 31.5t-24.5 50.5q-3 30 28 52l154 90q-12 7 -45 26.5t-60.5 36.5t-43.5 29q-27 15 -27 43q0 4 4 20q15 31 35 47q19 19 39 19q21 0 43 -19q7 -6 49.5 -43.5
t67.5 -58.5q-2 29 -6 69t-6.5 65.5t-2.5 35.5q0 28 16.5 43.5t47.5 15.5h28q62 0 62 -63q0 -4 -5.5 -60.5t-6.5 -97.5q15 12 42 37t47.5 43.5t22.5 20.5q23 20 45 20t41 -23l21 -24q16 -16 16 -35q0 -25 -27 -45q-94 -59 -153 -102q20 -12 56.5 -34t64 -38t30.5 -18
q27 -19 27 -48q0 -17 -27 -47t-49 -30q-19 -4 -47 16q-6 4 -21.5 17.5t-41 36t-41.5 36.5q2 -31 5 -75t5 -73.5t2 -39.5q0 -26 -16 -41t-45 -15h-29zM336 1227h-2h2z" />
    <glyph glyph-name="plus" unicode="+" horiz-adv-x="1189" 
d="M631 217h-94q-25 0 -38.5 14t-13.5 39v344h-340q-25 0 -41 13.5t-16 36.5v92q0 24 15 37.5t42 13.5h340v342q0 25 14.5 40t37.5 15h94q26 0 39.5 -15t13.5 -40v-342h365q55 0 55 -51v-92q0 -23 -14.5 -36.5t-40.5 -13.5h-365v-344q0 -53 -53 -53z" />
    <glyph glyph-name="comma" unicode="," horiz-adv-x="581" 
d="M182 -190q-16 0 -26.5 8t-10.5 22q0 17 18.5 41.5t37 55t18.5 63.5q0 17 -7.5 30.5t-17 24.5t-17 41.5t-7.5 77.5q0 123 133 123q64 0 95.5 -30.5t31.5 -100.5q0 -67 -28 -134.5t-67.5 -114.5t-81.5 -77t-71 -30z" />
    <glyph glyph-name="hyphen" unicode="-" horiz-adv-x="966" 
d="M137 772h692q21 0 32 -21t11 -81t-11 -81.5t-32 -21.5h-692q-21 0 -32 22t-11 81t11 80.5t32 21.5z" />
    <glyph glyph-name="period" unicode="." horiz-adv-x="589" 
d="M291 -14q-131 0 -131 147q0 152 131 152q66 0 102.5 -38.5t36.5 -113.5q0 -147 -139 -147z" />
    <glyph glyph-name="slash" unicode="/" horiz-adv-x="1005" 
d="M915 1274l-612 -1229q-8 -15 -17.5 -23.5t-36.5 -15t-71 -6.5q-60 0 -80 14t-20 43q0 10 10 35l614 1235q9 15 18 23t36 15t71 7q101 0 101 -57q0 -12 -13 -41z" />
    <glyph glyph-name="zero" unicode="0" horiz-adv-x="1409" 
d="M705 -18q-290 0 -447.5 178.5t-157.5 529.5q0 174 46.5 309.5t129 220t191.5 128t238 43.5q103 0 193.5 -27t166 -83.5t130 -138.5t84.5 -197t30 -255q0 -347 -162 -527.5t-442 -180.5zM705 178q177 0 276.5 122t99.5 386q0 135 -28.5 234.5t-80.5 157.5t-118 85t-149 27
q-82 0 -148.5 -27.5t-119 -85t-81 -157t-28.5 -234.5q0 -266 97.5 -387t279.5 -121z" />
    <glyph glyph-name="one" unicode="1" horiz-adv-x="700" 
d="M375 0q-119 0 -119 35v938h-119q-45 0 -45 41q0 37 166 309q16 23 23 29.5t29.5 13t66.5 6.5q117 0 117 -39v-1298q0 -35 -119 -35z" />
    <glyph glyph-name="two" unicode="2" horiz-adv-x="1073" 
d="M115 0q-16 0 -27 9t-12 26q-4 4 -4 121q0 7 1 13t1.5 10t3 9l3.5 7t5 6.5t4.5 5.5t5.5 6l6 6q8 7 58 47t88 71.5t101.5 88t111 104t101.5 111t89 119t58.5 117t23.5 114.5q0 93 -56 143t-161 50q-58 0 -104 -19t-69.5 -40t-57.5 -60t-82 -39q-29 0 -59.5 40t-30.5 73
q0 27 18.5 60.5t55.5 67t86 61.5t116.5 45.5t140.5 17.5q204 0 317.5 -105t113.5 -287q0 -80 -32 -167t-83 -162t-112.5 -147.5t-123 -128.5t-112.5 -99.5t-83 -66.5l-32 -23h551q17 0 26 -21.5t9 -81.5q0 -102 -35 -102h-819z" />
    <glyph glyph-name="three" unicode="3" horiz-adv-x="1058" 
d="M516 -18q-86 0 -166.5 21t-132.5 51t-84.5 58t-38.5 46q-25 63 -20 153q3 29 28 29q9 0 42.5 -25.5t76 -55.5t116 -55.5t152.5 -25.5q124 0 193.5 61.5t69.5 170.5q0 221 -312 221q-50 0 -71 25.5t-21 82.5q0 43 17 57.5t65 24.5q37 7 78.5 26.5t81.5 48.5t66 72.5
t26 92.5q0 67 -48.5 101t-123.5 34q-55 0 -103 -19.5t-70.5 -38t-55.5 -51.5q-45 -45 -88 -45q-24 0 -57.5 42.5t-33.5 70.5t30.5 67.5t82 77.5t131.5 64.5t166 26.5q190 0 294.5 -82t102.5 -217q0 -44 -12 -86.5t-31.5 -75t-42.5 -61t-46.5 -48.5t-43 -34.5t-31.5 -21.5
l-12 -7q5 0 20 -4t41.5 -14.5t55 -26.5t58 -44t53 -62.5t38.5 -86t15 -110.5q0 -184 -131 -306t-324 -122z" />
    <glyph glyph-name="four" unicode="4" horiz-adv-x="1202" 
d="M905 0q-119 0 -119 35v272h-671q-35 0 -35 96t20 123l629 813q30 39 121 39q53 0 86.5 -6.5t43 -14.5t9.5 -16q0 -11 -10 -24l-614 -805h421v350q0 24 21 51q1 0 74.5 90.5t74.5 90.5q24 19 45 16q11 0 17 -10.5t6 -24.5v-1040q0 -35 -119 -35z" />
    <glyph glyph-name="five" unicode="5" horiz-adv-x="1218" 
d="M588 -18q-89 0 -171.5 21t-136 50.5t-86.5 57.5t-40 47q-26 63 -21 151q6 29 29 29q9 0 48 -25t87.5 -55t129 -55t161.5 -25q137 0 221 85.5t84 221.5q0 277 -266 277q-77 0 -140.5 -17.5t-96 -39t-60.5 -39t-43 -17.5q-33 0 -77 31.5t-44 64.5v590q0 37 37 37h786
q17 0 26 -21t9 -81t-9 -81.5t-26 -21.5h-602v-284q12 7 35 18t97 29t151 18q68 0 132.5 -17.5t121.5 -54.5t99.5 -89.5t67.5 -127.5t25 -163q0 -227 -148.5 -370.5t-379.5 -143.5z" />
    <glyph glyph-name="six" unicode="6" horiz-adv-x="1275" 
d="M664 -18q-254 0 -413 161t-159 441q0 191 47.5 345t131 254.5t196.5 154t246 53.5q75 0 142.5 -13.5t112 -34t77.5 -44t48 -43t15 -31.5q0 -28 -34.5 -73.5t-57.5 -45.5q-11 0 -35 14.5t-53 32.5t-86.5 32.5t-128.5 14.5q-76 0 -142 -32.5t-109 -81t-74 -105t-44.5 -104
t-13.5 -78.5q4 11 31 37t73 57.5t120 54.5t155 23q206 0 340.5 -131.5t134.5 -343.5q0 -98 -35.5 -189.5t-100 -164t-164.5 -116.5t-220 -44zM311 494q0 -146 97 -239t251 -93q144 0 230 97.5t86 244.5q0 133 -79 214t-210 81q-144 0 -259.5 -95.5t-115.5 -209.5z" />
    <glyph glyph-name="seven" unicode="7" horiz-adv-x="1142" 
d="M281 0q-71 0 -99 10t-26 31q12 67 96 251t203 384q177 297 331 491h-659q-35 0 -35 103q0 60 9 81t26 21h883q37 0 37 -37v-112q0 -50 -37 -97q-187 -243 -375 -565q-89 -154 -144.5 -292.5t-80.5 -231.5q-15 -37 -129 -37z" />
    <glyph glyph-name="eight" unicode="8" horiz-adv-x="1251" 
d="M618 -18q-242 0 -385 106.5t-143 306.5q0 68 21 127t50 96.5t63.5 66.5t57.5 41.5t37 16.5q-11 2 -30.5 14.5t-45.5 37.5t-48.5 57t-38 79.5t-15.5 98.5q0 150 138.5 255.5t338.5 105.5q131 0 241 -48.5t173.5 -131.5t63.5 -181q0 -51 -15.5 -98.5t-38 -79.5t-48.5 -57
t-45.5 -37.5t-30.5 -14.5q14 -4 37.5 -16.5t58 -41.5t63.5 -66t49.5 -96t20.5 -126q0 -203 -143.5 -309t-385.5 -106zM618 793q92 0 176.5 69.5t84.5 159.5q0 100 -69 153.5t-192 53.5q-120 0 -190 -57t-70 -148q0 -95 77 -163t183 -68zM618 168q143 0 220 61.5t77 163.5
t-88 168t-209 66t-210 -66t-89 -166q0 -103 78.5 -165t220.5 -62z" />
    <glyph glyph-name="nine" unicode="9" horiz-adv-x="1259" 
d="M551 -18q-127 0 -228.5 43t-113.5 84q-30 65 -25 139q3 26 29 26q9 0 38 -16t64 -35t96 -35t128 -16q93 0 167.5 34t120.5 92t72 128t31 149q-4 -9 -20 -27.5t-49.5 -44t-74.5 -47.5t-101.5 -37.5t-125.5 -15.5q-208 0 -345.5 124.5t-137.5 330.5q0 144 64.5 265
t188.5 194.5t283 73.5q115 0 213 -37t174 -109.5t119 -190t43 -268.5q0 -190 -46 -343.5t-128 -253.5t-193 -153.5t-243 -53.5zM934 889q0 144 -84.5 232.5t-233.5 88.5q-148 0 -239.5 -96t-91.5 -250q0 -135 80.5 -213t224.5 -78q76 0 142 28t109.5 73t68 101.5t24.5 113.5
z" />
    <glyph glyph-name="colon" unicode=":" horiz-adv-x="600" 
d="M297 125q-133 0 -133 147q0 75 34.5 113.5t98.5 38.5q65 0 102 -38.5t37 -113.5q0 -147 -139 -147zM297 705q-133 0 -133 147q0 74 34.5 111.5t98.5 37.5q65 0 102 -38t37 -111q0 -147 -139 -147z" />
    <glyph glyph-name="semicolon" unicode=";" horiz-adv-x="606" 
d="M297 705q-133 0 -133 147q0 74 34.5 111.5t98.5 37.5q65 0 102 -38t37 -111q0 -147 -139 -147zM188 39q-15 0 -24.5 8.5t-9.5 22.5q0 18 18 42t35.5 54t17.5 63q0 17 -7.5 30.5t-17 24.5t-17 41.5t-7.5 77.5q0 123 133 123q65 0 97 -30.5t32 -100.5q0 -66 -28.5 -133.5
t-68.5 -115t-82 -77.5t-71 -30z" />
    <glyph glyph-name="less" unicode="&#x3c;" horiz-adv-x="923" 
d="M309 600l504 -319q21 -12 21 -41q0 -22 -28.5 -59.5t-53.5 -37.5q-18 0 -37 15l-598 381q-43 27 -43 73q0 45 43 74l598 383q17 14 37 14q25 0 54.5 -36.5t29.5 -59.5q0 -26 -21 -41l-506 -319q-14 -11 -14 -13t3.5 -5.5t7.5 -6.5z" />
    <glyph glyph-name="equal" unicode="=" horiz-adv-x="1077" 
d="M924 416h-768q-23 0 -38.5 13.5t-15.5 35.5v49q0 25 14.5 39t39.5 14h768q51 0 51 -53v-49q0 -22 -13.5 -35.5t-37.5 -13.5zM924 743h-768q-23 0 -38.5 14t-15.5 36v49q0 25 14.5 39t39.5 14h768q51 0 51 -53v-49q0 -50 -51 -50z" />
    <glyph glyph-name="greater" unicode="&#x3e;" horiz-adv-x="923" 
d="M174 143q-26 0 -55 37.5t-29 59.5q0 26 21 41l507 323q13 6 13 10l-13 11l-507 321q-21 12 -21 41q0 23 29.5 59.5t54.5 36.5q20 0 37 -14l598 -383q41 -27 41 -74q0 -46 -43 -73l-596 -381q-19 -15 -37 -15z" />
    <glyph glyph-name="question" unicode="?" horiz-adv-x="921" 
d="M883 1026q0 -69 -34 -138t-82 -122t-96 -97.5t-82 -79t-34 -52.5v-123q0 -35 -119 -35t-119 37v168q0 21 35 57t84.5 77.5t99 88.5t84.5 103t35 108q0 88 -52.5 136t-137.5 48q-96 0 -146.5 -65t-68.5 -195q-3 -22 -11.5 -28.5t-31.5 -6.5q-50 0 -104 28.5t-54 55.5
q0 78 25.5 148t75.5 128t134 92t191 34q190 0 299 -100t109 -267zM432 -14q-133 0 -133 147q0 152 133 152q65 0 102 -38.5t37 -113.5q0 -147 -139 -147z" />
    <glyph glyph-name="at" unicode="@" horiz-adv-x="1501" 
d="M727 -201q-140 0 -261.5 45.5t-211.5 129t-141.5 207.5t-51.5 274q0 156 54 296t149 244t234.5 165t302.5 61q130 0 237 -33.5t181 -91.5t124.5 -137.5t73.5 -170.5t23 -192q0 -119 -28.5 -218t-76 -161.5t-107 -96.5t-122.5 -34q-59 0 -106.5 21.5t-65 39t-23.5 29.5
q-14 -11 -37 -26.5t-83 -41.5t-105 -26q-125 0 -217 102.5t-92 276.5q0 108 40 200.5t104 152.5t141.5 94t154.5 34q108 0 180 -39.5t72 -79.5v-516q0 -71 61 -71q48 0 90 98t42 262q0 216 -113 338.5t-346 122.5q-250 0 -401.5 -167t-151.5 -427q0 -224 135.5 -360
t341.5 -136q57 0 115.5 14t96.5 28t46 14q36 0 62 -39.5t26 -83.5q0 -6 -10.5 -17.5t-37 -26t-64 -27t-99.5 -21.5t-135 -9zM889 319v441q0 24 -17 35.5t-69 11.5q-93 0 -154 -88t-61 -252q0 -117 42 -175.5t118 -58.5q57 0 99 30.5t42 55.5z" />
    <glyph glyph-name="A" unicode="A" horiz-adv-x="1359" 
d="M477 453h406q20 0 20 24l-203 551q-11 27 -20 27q-8 0 -21 -25l-202 -553q0 -24 20 -24zM948 272h-536q-28 0 -35 -20l-80 -217q-9 -21 -32.5 -28t-92.5 -7q-49 0 -75.5 3.5t-33.5 9.5t-6 16q0 6 17 57l471 1233q12 31 39 42t96 11q71 0 97.5 -11t37.5 -42l471 -1233
q17 -51 17 -57q1 -10 -5.5 -15.5t-32.5 -9.5t-75 -4q-70 0 -93.5 7t-31.5 28l-82 217q-8 20 -35 20z" />
    <glyph glyph-name="B" unicode="B" horiz-adv-x="1255" 
d="M905 729q6 -1 15.5 -4t36.5 -14t52 -25.5t55.5 -40.5t52.5 -56.5t37 -76t15 -96.5q0 -212 -145 -322t-410 -110q-193 0 -315.5 33.5t-122.5 80.5v1178q0 47 118.5 81t293.5 34q235 0 371.5 -91t136.5 -260q0 -61 -19.5 -116t-48 -89t-56.5 -59t-48 -36zM399 578v-340
q0 -34 53 -55t162 -21q332 0 332 256q0 60 -25.5 103t-68.5 64t-86 29.5t-92 8.5h-213q-62 0 -62 -45zM399 840q0 -45 58 -45h184q115 0 177.5 56.5t62.5 164.5t-72 152t-215 44q-96 0 -145.5 -19t-49.5 -52v-301z" />
    <glyph glyph-name="C" unicode="C" horiz-adv-x="1357" 
d="M801 -18q-109 0 -210 25.5t-191 80.5t-157 134t-106 193.5t-39 252.5q0 137 38.5 255t105 202.5t155.5 145.5t191 90.5t211 29.5q79 0 148 -13.5t113.5 -34t77 -44t46.5 -42t14 -30.5q0 -26 -33.5 -71.5t-54.5 -45.5q-11 0 -35 11.5t-52 25.5t-85.5 25.5t-128.5 11.5
q-92 0 -174.5 -32t-148.5 -93t-105 -161t-39 -226q0 -105 27 -188.5t72.5 -138t109 -90.5t133.5 -51.5t150 -15.5q88 0 168 21t125 46t81 46t45 21q23 0 23 -27q0 -67 -37 -145q-11 -26 -69 -64t-161 -71t-208 -33z" />
    <glyph glyph-name="D" unicode="D" horiz-adv-x="1425" 
d="M1327 711q0 -145 -36 -264.5t-101.5 -205t-158 -143.5t-204 -86t-241.5 -28q-171 0 -290.5 34t-119.5 80v1178q0 46 122.5 80.5t295.5 34.5q84 0 159.5 -9.5t150.5 -32t137 -57t116 -88.5t91 -123t58 -163.5t21 -206.5zM1106 709q0 92 -15.5 166.5t-41 126.5t-65 90.5
t-81.5 61.5t-96 37t-103 18.5t-108 4.5q-92 0 -144.5 -19.5t-52.5 -51.5v-905q0 -34 46 -55t141 -21q87 0 161.5 17t141.5 57.5t114.5 102.5t75 156t27.5 214z" />
    <glyph glyph-name="E" unicode="E" horiz-adv-x="1185" 
d="M227 0q-51 0 -51 51v1272q0 49 51 49h713q52 0 72 -47t20 -154q0 -30 -24 -30q-5 0 -43.5 10.5t-118 21.5t-182.5 11h-244q-27 0 -27 -27v-340q0 -11 6.5 -20t16.5 -9h434q35 0 35 -100q0 -57 -9 -77.5t-26 -20.5h-434q-10 0 -16.5 -11.5t-6.5 -23.5v-338q0 -27 27 -27
h282q103 0 187 11t127.5 21.5t48.5 10.5q22 0 22 -32q0 -108 -19.5 -154.5t-72.5 -46.5h-768z" />
    <glyph glyph-name="F" unicode="F" horiz-adv-x="1093" 
d="M399 1157v-364q0 -13 6.5 -23t16.5 -10h428q17 0 26 -18.5t9 -75.5t-9 -76t-26 -19h-428q-10 0 -16.5 -9.5t-6.5 -20.5v-506q0 -35 -110 -35q-113 0 -113 35v1288q0 49 51 49h699q52 0 72 -47t20 -154q0 -30 -23 -30q-11 0 -53.5 10.5t-115.5 21.5t-160 11h-240
q-27 0 -27 -27z" />
    <glyph glyph-name="G" unicode="G" horiz-adv-x="1390" 
d="M768 -18q-110 0 -207.5 25t-183 79.5t-147 134t-97 195t-35.5 256.5q0 170 56.5 308t153 226.5t222.5 136.5t269 48q79 0 149.5 -14.5t117.5 -35.5t81.5 -45.5t50.5 -44.5t16 -32q0 -27 -34.5 -73t-55.5 -46q-12 0 -36.5 13t-54 29t-90 29t-134.5 13q-97 0 -180 -30
t-150 -90t-105 -161.5t-38 -234.5q0 -129 35 -225.5t97.5 -152.5t140.5 -83t171 -27q128 0 197.5 50t69.5 94v313q0 23 75 48.5t111 25.5q22 0 31.5 -9.5t9.5 -31.5v-412q0 -18 -17.5 -49.5t-58.5 -71t-97.5 -74t-144 -58t-188.5 -23.5z" />
    <glyph glyph-name="H" unicode="H" horiz-adv-x="1437" 
d="M289 0q-113 0 -113 35v1302q0 35 113 35q110 0 110 -35v-551q0 -22 25 -22h590q24 0 24 22v551q0 35 111 35q113 0 113 -35v-1302q0 -35 -113 -35q-111 0 -111 35v508q0 24 -24 24h-590q-25 0 -25 -24v-508q0 -35 -110 -35z" />
    <glyph glyph-name="I" unicode="I" horiz-adv-x="575" 
d="M289 0q-113 0 -113 35v1302q0 35 113 35q110 0 110 -35v-1302q0 -35 -110 -35z" />
    <glyph glyph-name="J" unicode="J" horiz-adv-x="962" 
d="M416 -18q-74 0 -144 25.5t-113.5 59.5t-69.5 64t-26 43q0 21 44.5 71t64.5 50q3 0 7 -1.5t8.5 -4.5t8.5 -6t11 -9t12 -10q98 -71 187 -71q72 0 115.5 49.5t43.5 144.5v950q0 11 7.5 18t33 12t70.5 5q110 0 110 -35v-985q0 -160 -102 -265t-268 -105z" />
    <glyph glyph-name="K" unicode="K" horiz-adv-x="1337" 
d="M289 0q-113 0 -113 35v1302q0 35 113 35q110 0 110 -35v-610q0 -16 17 -16q186 105 327.5 276t163.5 350q4 18 25.5 26.5t85.5 8.5q110 0 110 -35q0 -84 -51 -206t-149.5 -254.5t-216.5 -219.5q60 -17 119 -75t105 -128t90 -139t91.5 -118t91.5 -54q16 -2 56 -2
q22 0 22 -22q0 -38 -66.5 -85.5t-142.5 -47.5q-90 0 -155 84q-45 54 -109 147.5t-108 158.5t-97 116.5t-94 52.5q-40 -7 -74.5 -20t-40.5 -27v-463q0 -35 -110 -35z" />
    <glyph glyph-name="L" unicode="L" horiz-adv-x="1093" 
d="M213 0q-37 0 -37 39v1298q0 35 113 35q110 0 110 -35v-1114q0 -26 27 -26h170q124 0 221.5 10.5t145.5 21.5t51 11q24 0 24 -33q0 -108 -20 -157.5t-72 -49.5h-733z" />
    <glyph glyph-name="M" unicode="M" horiz-adv-x="1759" 
d="M279 0q-44 0 -67.5 5t-29.5 11.5t-6 18.5v1300q2 12 8.5 19t31.5 12.5t69 5.5q115 0 127 -35l467 -1001l469 1001q16 35 127 35q45 0 69.5 -5t31.5 -12t7 -18v-1302q0 -12 -6 -18.5t-29 -11.5t-67 -5q-103 0 -103 35v874l-397 -835q-11 -20 -28 -26.5t-72 -6.5
q-56 0 -74 6.5t-29 26.5l-397 835v-874q0 -11 -6 -17.5t-30 -12t-66 -5.5z" />
    <glyph glyph-name="N" unicode="N" horiz-adv-x="1447" 
d="M281 0q-44 0 -68 5t-30.5 12t-6.5 18v1302q0 35 78 35q57 0 76.5 -4.5t29.5 -17.5l707 -959v946q0 12 5.5 18.5t28.5 11.5t66 5q44 0 68 -5t30.5 -12t6.5 -18v-1302q0 -35 -80 -35q-55 0 -75.5 5.5t-29.5 17.5l-706 942v-930q0 -11 -5.5 -17.5t-29 -12t-65.5 -5.5z" />
    <glyph glyph-name="O" unicode="O" horiz-adv-x="1480" 
d="M741 -18q-295 0 -469 181t-174 527q0 139 34.5 255t94 197.5t141 138t176 83.5t197.5 27t197.5 -27t176 -83.5t141 -138t94 -197.5t34.5 -255q0 -174 -49.5 -310.5t-137 -222.5t-203.5 -130.5t-253 -44.5zM741 178q87 0 159.5 28.5t130.5 87t91 159t33 233.5
q0 134 -34.5 234.5t-94 157.5t-131 84.5t-154.5 27.5q-84 0 -155.5 -27.5t-131 -84.5t-94 -157.5t-34.5 -234.5t31 -233.5t88 -158.5t131 -87.5t165 -28.5z" />
    <glyph glyph-name="P" unicode="P" horiz-adv-x="1243" 
d="M289 0q-113 0 -113 35v1239q0 47 118 82t288 35q269 0 422 -128.5t153 -355.5q0 -130 -44 -234t-121 -169.5t-176.5 -100t-213.5 -34.5q-119 0 -203 28v-362q0 -35 -110 -35zM399 625q7 -29 55.5 -49.5t141.5 -20.5q149 0 235.5 89t86.5 255q0 307 -332 307
q-88 0 -137.5 -23t-49.5 -57v-501z" />
    <glyph glyph-name="Q" unicode="Q" horiz-adv-x="1476" 
d="M606 4q-83 16 -153 44.5t-137.5 82t-114 127t-75 182.5t-28.5 244q0 141 34.5 258t94 199t141 139t176 84t197.5 27t197.5 -27t176 -84t141 -138.5t94 -198.5t34.5 -257q0 -268 -120.5 -435t-343.5 -231q41 -2 80.5 -17.5t75 -35.5t75.5 -39.5t99 -33t128 -13.5
q25 0 25 -20q0 -41 -68 -96.5t-143 -55.5q-72 0 -129.5 24.5t-100.5 62.5t-87.5 78t-113.5 77t-155 53zM741 178q87 0 159.5 28.5t130.5 87t91 159t33 233.5q0 134 -34.5 234.5t-94 157.5t-131 84.5t-154.5 27.5q-84 0 -155.5 -27.5t-131 -84.5t-94 -157.5t-34.5 -234.5
t31 -233.5t88 -158.5t131 -87.5t165 -28.5z" />
    <glyph glyph-name="R" unicode="R" horiz-adv-x="1341" 
d="M289 0q-113 0 -113 35v1241q0 46 119.5 80.5t290.5 34.5q271 0 421 -111.5t150 -327.5q0 -84 -28.5 -159t-69 -123t-88.5 -84.5t-83.5 -53t-56.5 -20.5q26 -14 61 -55.5t69.5 -91t72.5 -98t82 -83t86 -39.5q18 -4 60 -4q24 0 24 -22q0 -38 -67.5 -85.5t-143.5 -47.5
q-60 0 -111.5 24.5t-88 63.5t-68.5 86.5t-59.5 96t-54.5 89t-61 67.5t-71 31h-139q-10 0 -16.5 -11.5t-6.5 -24.5v-373q0 -35 -110 -35zM399 678q0 -21 52 -34t106 -13q78 0 140 15.5t113.5 50.5t79.5 97.5t28 149.5q0 264 -316 264q-92 0 -147.5 -17t-55.5 -48v-465z" />
    <glyph glyph-name="S" unicode="S" horiz-adv-x="1136" 
d="M578 -18q-82 0 -163 20.5t-136.5 50t-91.5 59t-42 48.5q-26 62 -20 151q6 29 29 29q10 0 46.5 -25.5t82 -55.5t125.5 -55.5t167 -25.5q117 0 184.5 56.5t67.5 146.5q0 60 -38.5 104.5t-100 72t-135.5 52t-148 54.5t-135.5 70t-100 107.5t-38.5 157.5q0 113 65.5 203.5
t176 139.5t243.5 49q72 0 136.5 -14t106 -35t72.5 -44.5t44.5 -42.5t13.5 -30q0 -26 -33.5 -69.5t-56.5 -43.5q-12 0 -36 14t-51.5 31t-79 31t-111.5 14q-125 0 -195 -49t-70 -139q0 -48 24 -85t64.5 -61.5t93 -45t110.5 -39t115.5 -39t110 -50t93 -67t64.5 -95t24 -129.5
q0 -189 -130 -305t-347 -116z" />
    <glyph glyph-name="T" unicode="T" horiz-adv-x="1073" 
d="M537 0q-45 0 -70.5 5t-33 12t-7.5 18v1118q0 10 -10 16.5t-21 6.5h-303q-35 0 -35 102q0 55 9 74.5t26 19.5h889q17 0 26 -19.5t9 -74.5q0 -102 -35 -102h-301q-13 0 -23 -6.5t-10 -16.5v-1118q0 -35 -110 -35z" />
    <glyph glyph-name="U" unicode="U" horiz-adv-x="1386" 
d="M692 -18q-136 0 -240.5 41t-169 114.5t-96.5 169t-32 209.5v821q0 11 8 18t33 12t69 5q113 0 113 -35v-770q0 -189 78 -289t237 -100q160 0 239 100t79 289v770q0 35 110 35q113 0 113 -35v-821q0 -114 -32.5 -210t-97.5 -169t-170 -114t-241 -41z" />
    <glyph glyph-name="V" unicode="V" horiz-adv-x="1284" 
d="M641 0q-62 0 -83.5 9t-27.5 26l-483 1270l-12 32q-12 35 104 35q130 0 144 -35l358 -1046l360 1046q11 35 144 35q45 0 70 -5t30.5 -12.5t1.5 -17.5l-20 -55l-473 -1247q-4 -11 -11 -17.5t-32.5 -12t-69.5 -5.5z" />
    <glyph glyph-name="W" unicode="W" horiz-adv-x="1914" 
d="M526 0q-44 0 -70 5.5t-34 12t-10 17.5l-359 1265l-10 37q-3 11 3 18t30.5 12t68.5 5q119 0 129 -35l277 -1013l295 956q8 30 28 40.5t84 10.5q59 0 81 -11t30 -40l297 -956l274 1013q10 35 129 35q45 0 69.5 -5t30.5 -12t3 -18l-10 -45l-357 -1257q-4 -11 -12 -17.5
t-33.5 -12t-68.5 -5.5q-109 0 -117 35l-316 958l-315 -958q-5 -16 -29 -25.5t-88 -9.5z" />
    <glyph glyph-name="X" unicode="X" horiz-adv-x="1243" 
d="M1075 0q-110 0 -129 35l-346 516q-267 -319 -301 -506q-5 -25 -31 -35t-96 -10t-97.5 9t-27.5 36q0 52 30 118t107 167t119.5 152t156.5 181q25 29 38 44l-400 600q-12 24 -12 26q0 9 10 17.5t38.5 15t72.5 6.5q110 0 129 -35l307 -460q210 266 244 450q5 25 31 35t98 10
q70 0 96.5 -9t26.5 -36q0 -55 -29.5 -124t-89 -152t-120.5 -156.5t-152 -175.5l436 -653q12 -24 12 -27q1 -9 -9 -17.5t-39 -15t-73 -6.5z" />
    <glyph glyph-name="Y" unicode="Y" horiz-adv-x="1183" 
d="M592 0q-111 0 -111 35v530q0 7 -2 16.5t-4 14.5l-2 6l-420 707q-10 20 -10 24q-1 10 9 18.5t38.5 14.5t71.5 6q110 0 129 -35l301 -526l301 526q19 35 129 35q44 0 73 -6t39 -14.5t9 -18.5l-13 -26l-421 -705q-7 -19 -7 -35v-532q0 -35 -110 -35z" />
    <glyph glyph-name="Z" unicode="Z" horiz-adv-x="1267" 
d="M379 197h395q110 0 196 10.5t128.5 21.5t46.5 11q22 0 22 -33q0 -109 -19.5 -158t-72.5 -49h-930q-45 0 -45 115q0 71 25 106l741 955h-340q-109 0 -192.5 -10t-124.5 -20.5t-45 -10.5q-23 0 -23 30q0 109 19 158t71 49h865q45 0 45 -115q0 -73 -31 -114z" />
    <glyph glyph-name="bracketleft" unicode="[" horiz-adv-x="821" 
d="M176 -442v1773q0 22 8.5 31.5t28.5 9.5h500q10 0 15.5 -5t10 -25.5t4.5 -59.5q0 -92 -30 -92h-328v-1491h328q10 0 15.5 -3.5t10 -24.5t4.5 -62q0 -92 -30 -92h-500q-20 0 -28.5 9.5t-8.5 31.5z" />
    <glyph glyph-name="backslash" unicode="\" horiz-adv-x="1003" 
d="M705 41l-623 1251q-14 24 -14 39q0 41 108 41q64 0 88 -11t37 -34l625 -1253q12 -18 12 -31q0 -43 -111 -43q-43 0 -70 6.5t-35.5 14t-16.5 20.5z" />
    <glyph glyph-name="bracketright" unicode="]" horiz-adv-x="821" 
d="M643 1331v-1773q0 -22 -8.5 -31.5t-28.5 -9.5h-497q-10 0 -15.5 5t-10.5 25.5t-5 59.5q0 92 31 92h327v1491h-327q-10 0 -15.5 3.5t-10.5 24.5t-5 62q0 92 31 92h497q20 0 28.5 -9.5t8.5 -31.5z" />
    <glyph glyph-name="asciicircum" unicode="^" horiz-adv-x="1120" 
d="M551 1149l-324 -512q-10 -17 -41 -21q-22 0 -59 29t-37 55q0 16 14 37l379 598q28 41 76 41q47 0 74 -41l381 -598q14 -18 14 -37q0 -25 -36.5 -54.5t-59.5 -29.5q-28 0 -43 21l-322 512q-4 6 -8 6z" />
    <glyph glyph-name="underscore" unicode="_" horiz-adv-x="1335" 
d="M106 -150h1123q21 0 32 -21.5t11 -80.5q0 -60 -11 -81t-32 -21h-1123q-21 0 -32 21t-11 81q0 59 11 80.5t32 21.5z" />
    <glyph glyph-name="grave" unicode="`" horiz-adv-x="581" 
d="M420 1182q-15 0 -39 16q-35 23 -133 94.5t-117 89.5q-20 17 -20 35q0 24 43 68.5t65 44.5q16 0 37 -21q7 -8 56 -62.5t91 -102t56 -64.5q20 -20 20 -37q0 -12 -23.5 -36.5t-35.5 -24.5z" />
    <glyph glyph-name="a" unicode="a" horiz-adv-x="1128" 
d="M299 305q0 -79 54.5 -118t142.5 -37q83 0 150 40t67 76v269q0 20 -21 20q-22 0 -78 -16q-9 -3 -44.5 -13.5t-49 -15t-45.5 -16t-47 -20t-40 -22.5t-37 -28t-26.5 -32.5t-20 -40t-5.5 -46.5zM918 -16q-42 0 -78.5 14.5t-57.5 35t-33 37t-14 25.5q-156 -114 -327 -114
q-149 0 -242.5 77t-93.5 222q0 54 14.5 99.5t37 79t62.5 63t76.5 49t96 40t104 32.5t115.5 30q69 16 99 31t30 38q0 67 -54 106.5t-153 39.5q-72 0 -140 -23t-111 -46t-54 -23q-21 0 -21 26q0 48 31 129q17 35 115 73t208 38q217 0 311.5 -97t94.5 -300v-422q0 -46 18 -67
t56 -23q2 -2 49 -2q20 0 20 -17q0 -34 -54 -92.5t-105 -58.5z" />
    <glyph glyph-name="b" unicode="b" horiz-adv-x="1171" 
d="M139 227v1211q0 37 109 37q45 0 70 -5.5t32.5 -13t7.5 -18.5v-508q5 5 14.5 14t41.5 32t66.5 40.5t88.5 32t109 14.5q168 0 282.5 -137t114.5 -365q0 -119 -29 -216.5t-78 -164t-116.5 -112t-142 -66t-156.5 -20.5q-172 0 -293 76t-121 169zM586 887q-86 0 -157 -62
t-71 -114v-420q0 -60 60.5 -104t148.5 -44q122 0 193 97t71 311q0 336 -245 336z" />
    <glyph glyph-name="c" unicode="c" horiz-adv-x="1062" 
d="M629 -18q-107 0 -199.5 29.5t-168 89t-119.5 162.5t-44 239q0 138 43.5 247t118.5 176.5t171.5 102.5t207.5 35q71 0 132 -12t97.5 -30t57 -37.5t20.5 -35.5q0 -30 -40.5 -85.5t-65.5 -55.5q-8 0 -26.5 12t-40.5 27t-63.5 27t-88.5 12q-51 0 -97.5 -20t-88 -61
t-66.5 -115.5t-25 -172.5q0 -178 88 -266t232 -88q59 0 113.5 14t85 31t57 31t36.5 14q25 0 25 -25q0 -54 -37 -127q-19 -37 -110.5 -77.5t-204.5 -40.5z" />
    <glyph glyph-name="d" unicode="d" horiz-adv-x="1222" 
d="M807 281v507q0 40 -48 72.5t-110 32.5q-61 0 -114 -22.5t-98 -69t-71 -129t-26 -193.5q0 -91 23.5 -158.5t63 -104.5t83 -54t92.5 -17q80 0 142.5 48t62.5 88zM526 -18q-63 0 -122.5 16t-115.5 53.5t-98 92t-67 137.5t-25 184q0 127 33 230.5t85 170.5t120.5 112.5
t136.5 65t135 19.5t128 -19.5t71 -33.5v428q0 37 111 37q110 0 110 -37v-1194q0 -84 68 -90q4 -2 55 -2q20 0 20 -17q0 -34 -54.5 -92.5t-104.5 -58.5q-43 0 -80.5 14.5t-59 35t-33.5 37t-14 25.5q-10 -10 -29 -24t-58 -36.5t-95.5 -38t-116.5 -15.5z" />
    <glyph glyph-name="e" unicode="e" horiz-adv-x="1060" 
d="M625 -18q-110 0 -203 29.5t-166.5 88.5t-115.5 157.5t-42 227.5q0 119 29 217t78 164t114.5 111t137 65.5t147.5 20.5q182 0 279.5 -81t97.5 -208q0 -81 -41.5 -148.5t-106.5 -111.5t-151 -75.5t-169 -46t-165 -17.5q28 -110 109.5 -161.5t195.5 -51.5q56 0 108 12.5
t81.5 28t55.5 29.5t36 16q14 5 23.5 -0.5t9.5 -20.5q0 -41 -35 -127q-19 -36 -109 -77t-198 -41zM612 915q-54 0 -100.5 -23t-85.5 -70t-62.5 -129t-25.5 -191q78 5 150 24.5t133 53t98 87.5t37 119q0 56 -40 92.5t-104 36.5z" />
    <glyph glyph-name="f" unicode="f" horiz-adv-x="819" 
d="M297 0q-109 0 -109 37v840h-75q-35 0 -35 84q0 83 37 83h73v21q0 186 108 298t294 112q80 0 148.5 -31.5t68.5 -57.5q0 -23 -43.5 -76t-63.5 -53q-13 0 -31.5 12.5t-45.5 25t-62 12.5q-64 0 -108.5 -52.5t-44.5 -140.5v-70h254q12 0 20 -8t8 -20q0 -34 -37.5 -86.5
t-66.5 -52.5h-178v-840q0 -37 -111 -37z" />
    <glyph glyph-name="g" unicode="g" horiz-adv-x="1179" 
d="M805 295v526q0 32 -37.5 56t-99.5 24q-69 0 -126 -22.5t-103.5 -70.5t-72.5 -132.5t-26 -198.5q0 -94 21.5 -161t60 -103t83 -52t97.5 -16q78 0 140.5 51t62.5 99zM805 -57v145q-8 -12 -39.5 -34t-99.5 -47t-140 -25q-60 0 -119.5 18t-115.5 57t-98.5 95t-68.5 138
t-26 179q0 124 33.5 225t89.5 168.5t133 113.5t161.5 66.5t176.5 20.5q88 0 167 -21t123 -51.5t44 -60.5v-993q0 -117 -53 -215t-155 -158t-234 -60q-105 0 -202 34t-118 71q-35 78 -35 129q0 22 21 22q11 0 52.5 -19t106.5 -38.5t134 -19.5q120 0 191 67t71 193z" />
    <glyph glyph-name="h" unicode="h" horiz-adv-x="1241" 
d="M1022 -16q-92 0 -144.5 58.5t-52.5 158.5v499q0 91 -47.5 138t-132.5 47q-48 0 -99.5 -24t-87.5 -56.5t-59.5 -65t-23.5 -51.5v-651q0 -37 -111 -37q-45 0 -70 5.5t-32.5 13t-7.5 18.5v1401q0 11 7.5 18.5t32.5 13t70 5.5q111 0 111 -37v-535q72 66 167.5 113t200.5 47
q132 0 218 -79.5t86 -199.5v-538q0 -50 18.5 -71t60.5 -21q48 0 48 -2q8 -3 8 -11q0 -43 -54 -97t-106 -60z" />
    <glyph glyph-name="i" unicode="i" 
d="M242 1454q127 0 127 -137q0 -71 -32 -102t-95 -31t-95 31t-32 102q0 137 127 137zM131 209v799q0 36 111 36q110 0 110 -36v-754q0 -50 19 -71t61 -21q47 0 47 -2q8 -3 8 -10q0 -43 -53.5 -97.5t-105.5 -60.5q-92 0 -144.5 58.5t-52.5 158.5z" />
    <glyph glyph-name="j" unicode="j" horiz-adv-x="550" 
d="M276 1454q63 0 95 -32.5t32 -104.5q0 -71 -31.5 -102t-95.5 -31q-62 0 -93 31t-31 102q0 72 31 104.5t93 32.5zM276 1044q45 0 70.5 -5t33 -12.5t7.5 -18.5v-1033q0 -115 -26.5 -205.5t-70.5 -144t-97.5 -81t-112.5 -27.5q-42 0 -87.5 36.5t-45.5 61.5q0 15 8 19.5
t41 9.5q88 28 130 107.5t42 254.5v1002q0 11 7.5 18.5t32 12.5t68.5 5z" />
    <glyph glyph-name="k" unicode="k" horiz-adv-x="1105" 
d="M248 0q-109 0 -109 37v1401q0 37 109 37q45 0 70 -5.5t32.5 -13t7.5 -18.5v-826q102 33 190 101.5t144 146t86 158.5q10 26 31 26h145q14 0 22 -6t7 -18q0 -17 -12 -47q-47 -115 -138.5 -232t-193.5 -178q30 -12 58.5 -36.5t50 -50.5t49.5 -72.5t45.5 -79t48.5 -93.5
q22 -42 44 -57.5t54 -17.5q6 -4 60 -4q20 0 20 -17q0 -33 -58 -92t-108 -59q-114 0 -160 82q-16 28 -41 73t-38 68.5t-33 59.5t-32 54.5t-28.5 43.5t-27.5 38.5t-24.5 27.5t-25.5 20.5t-24 9.5q-33 -10 -111 -39v-385q0 -11 -7.5 -18.5t-32.5 -13t-70 -5.5z" />
    <glyph glyph-name="l" unicode="l" 
d="M139 201v1237q0 37 109 37q45 0 70 -5.5t32.5 -13t7.5 -18.5v-1192q0 -50 19 -71t61 -21q47 0 47 -2q9 -3 9 -11q0 -43 -54 -97t-106 -60q-92 0 -144.5 58.5t-50.5 158.5z" />
    <glyph glyph-name="m" unicode="m" horiz-adv-x="1837" 
d="M1421 201v512q0 82 -44.5 127t-123.5 45q-81 0 -158 -60t-77 -112v-676q0 -37 -111 -37q-45 0 -70 5.5t-32.5 13t-7.5 18.5v672q0 84 -49 130t-125 46q-82 0 -157 -62t-75 -118v-668q0 -37 -110 -37q-111 0 -111 37v760q0 45 -15 78t-29.5 50.5t-14.5 26.5
q0 24 67.5 66.5t102.5 42.5q75 0 108 -148q32 29 53.5 46.5t66 46t99 43t115.5 14.5q91 0 150.5 -42.5t103.5 -121.5q61 66 164.5 115t199.5 49q133 0 217 -72t84 -194v-551q0 -50 19 -71t61 -21q47 0 47 -2q9 -3 9 -11q0 -43 -54 -97t-106 -60q-92 0 -144.5 58.5
t-52.5 158.5z" />
    <glyph glyph-name="n" unicode="n" horiz-adv-x="1257" 
d="M842 201v495q0 189 -180 189q-63 0 -129 -39t-104 -85t-38 -73v-651q0 -37 -110 -37q-111 0 -111 37v760q0 45 -15 78t-29.5 50.5t-14.5 26.5q0 24 67.5 66.5t102.5 42.5q73 0 102 -131l6 -25q189 158 367 158q139 0 223 -78.5t84 -202.5v-536q0 -50 19 -71t61 -21
q47 0 47 -2q8 -3 8 -11q0 -43 -54 -97t-106 -60q-92 0 -144 58.5t-52 158.5z" />
    <glyph glyph-name="o" unicode="o" horiz-adv-x="1191" 
d="M598 -16q-101 0 -190 32.5t-160.5 96.5t-113.5 170t-42 243q0 109 27.5 199.5t75 152t112.5 104t138 62t153 19.5q79 0 151.5 -19.5t136.5 -62t111.5 -104t75 -152t27.5 -199.5q0 -136 -41.5 -242.5t-113 -170.5t-159.5 -96.5t-188 -32.5zM598 145q114 0 188 94t74 291
q0 196 -73.5 288.5t-188.5 92.5q-116 0 -191 -92.5t-75 -288.5q0 -101 21.5 -177t59 -120.5t84 -66t101.5 -21.5z" />
    <glyph glyph-name="p" unicode="p" horiz-adv-x="1193" 
d="M272 -506q-108 0 -108 37v1266q0 35 -9.5 64t-21.5 43t-21.5 27t-9.5 21q0 24 67.5 66.5t102.5 42.5q71 0 109 -143q6 6 16 15.5t42.5 34.5t66.5 44.5t83 35t95 15.5q186 0 300 -130t114 -370q0 -278 -131 -429.5t-340 -151.5q-50 0 -111 16.5t-97 33.5l-36 17v-518
q0 -37 -111 -37zM580 135q127 0 201.5 108t74.5 304q0 181 -65.5 260.5t-176.5 79.5q-57 0 -113.5 -33.5t-87 -70.5t-30.5 -58v-465q0 -40 62.5 -82.5t134.5 -42.5z" />
    <glyph glyph-name="q" unicode="q" horiz-adv-x="1177" 
d="M913 -506q-108 0 -108 37v557q-7 -8 -27.5 -23t-56 -35t-89 -34t-108.5 -14q-75 0 -148.5 30t-136.5 87t-102 153.5t-39 216.5q0 124 33 225t89 168.5t132.5 113.5t161 66.5t176.5 20.5q88 0 167 -21t123 -51.5t44 -60.5v-1399q0 -37 -111 -37zM805 295v526
q0 31 -38 55.5t-101 24.5q-69 0 -126 -22.5t-103.5 -70.5t-72.5 -132t-26 -197q0 -94 22 -162t60.5 -104t82.5 -52t97 -16q79 0 142 51t63 99z" />
    <glyph glyph-name="r" unicode="r" horiz-adv-x="864" 
d="M281 0q-111 0 -111 37v760q0 45 -15 78t-29.5 50.5t-14.5 26.5q0 24 67.5 66.5t102.5 42.5q39 0 64 -36t44 -107q4 6 12.5 15.5t35.5 34.5t55.5 44.5t71.5 35t85 15.5q67 0 123.5 -24t56.5 -52q0 -20 -30.5 -68t-59.5 -79q-18 -21 -34 -21q-8 0 -51.5 25.5t-86.5 25.5
q-67 0 -121.5 -62.5t-54.5 -131.5v-639q0 -37 -110 -37z" />
    <glyph glyph-name="s" unicode="s" horiz-adv-x="954" 
d="M489 -18q-84 0 -164.5 22t-132 52.5t-83 59t-31.5 44.5q0 28 42.5 76.5t63.5 48.5q11 0 40 -22t63 -48t91 -48t116 -22q76 0 119.5 37.5t43.5 102.5q0 28 -13 51t-29 38t-51 31t-57 24t-69 24q-44 14 -66.5 22t-63 24.5t-62.5 30t-51 36.5t-43.5 47t-25.5 57.5t-11 72.5
q0 146 111.5 233t293.5 87q79 0 144.5 -16t102.5 -39t57 -45.5t20 -38.5q0 -28 -41.5 -76.5t-67.5 -48.5q-7 0 -26 17t-42 37t-67.5 37t-97.5 17q-74 0 -122 -37t-48 -96q0 -28 12.5 -50.5t27.5 -36.5t49.5 -29.5t55 -22.5t66.5 -21q141 -43 196 -73q138 -77 138 -226
t-109.5 -241t-278.5 -92z" />
    <glyph glyph-name="t" unicode="t" horiz-adv-x="720" 
d="M115 1044h73v203q0 30 75 66.5t118 36.5q29 0 29 -33v-273h211q12 0 20 -8t8 -20q0 -35 -37 -87t-69 -52h-133v-515q0 -103 44 -154.5t121 -51.5q5 0 21 1t30 2t15 1q18 0 18 -21q0 -35 -60.5 -95t-117.5 -60q-136 0 -214.5 82t-78.5 215v596h-75q-35 0 -35 84
q0 83 37 83z" />
    <glyph glyph-name="u" unicode="u" horiz-adv-x="1193" 
d="M981 -16q-76 0 -125.5 39t-64.5 110q-35 -32 -56.5 -49t-66.5 -45.5t-97.5 -42.5t-111.5 -14q-151 0 -247.5 89t-96.5 238v699q0 36 110 36q45 0 70.5 -5t33 -12.5t7.5 -18.5v-641q0 -99 52.5 -149t150.5 -50q96 0 171.5 65.5t75.5 118.5v656q0 11 7.5 18.5t32.5 12.5
t69 5q45 0 70.5 -5t33 -12.5t7.5 -18.5v-762q0 -50 18.5 -71t60.5 -21q48 0 48 -2q8 -3 8 -11q0 -43 -54 -97t-106 -60z" />
    <glyph glyph-name="v" unicode="v" horiz-adv-x="1079" 
d="M518 -18q-100 0 -191.5 42.5t-151.5 124.5t-60 183v676q0 36 110 36q111 0 111 -36v-646q0 -94 60 -147t145 -53q102 0 173.5 119.5t71.5 316.5q0 84 -15.5 162t-33.5 122.5t-33.5 79.5t-15.5 42q0 40 90 40q123 0 158 -79q23 -55 36.5 -94.5t26.5 -110t13 -144.5
q0 -175 -67.5 -321.5t-180.5 -229.5t-246 -83z" />
    <glyph glyph-name="w" unicode="w" horiz-adv-x="1695" 
d="M473 -18q-166 0 -262 96.5t-96 275.5v654q0 36 110 36q111 0 111 -36v-588q0 -135 52 -193.5t147 -58.5q89 0 153 59.5t64 141.5v639q0 36 110 36q111 0 111 -36v-646q0 -90 49.5 -142t138.5 -52q117 0 179.5 116t62.5 314q0 84 -15.5 162t-33.5 122.5t-33.5 79.5
t-15.5 42q0 40 90 40q122 0 157 -79q22 -53 35.5 -94t26 -110.5t12.5 -144.5q0 -135 -31.5 -250t-92 -201t-154.5 -134.5t-213 -48.5q-74 0 -139 19.5t-103.5 47t-59 48t-26.5 32.5q-9 -12 -31.5 -31.5t-64.5 -48t-105.5 -48t-132.5 -19.5z" />
    <glyph glyph-name="x" unicode="x" horiz-adv-x="1097" 
d="M883 1044q66 0 86 -8t20 -35q0 -95 -71 -204q-72 -98 -248 -240l354 -483q14 -23 14 -37q5 -37 -106 -37q-115 0 -137 29l-277 374q-206 -243 -223 -358q-5 -25 -30.5 -35t-96.5 -10q-65 0 -86 8.5t-21 36.5q0 84 97 207q58 77 136.5 153.5t133.5 120.5l-324 443
q-16 25 -16 39q-1 9 6 16.5t33 13.5t70 6q117 0 137 -26l244 -334q69 79 119 164t61 153q5 24 29.5 33.5t95.5 9.5z" />
    <glyph glyph-name="y" unicode="y" horiz-adv-x="1150" 
d="M571 -496q-105 0 -201 34t-118 71q-35 78 -35 129q0 26 31 18q5 -2 52 -23t105 -35.5t125 -14.5q120 0 191.5 67t71.5 193v188q-3 -2 -25.5 -21t-38.5 -32t-48 -33t-61.5 -32t-70.5 -21.5t-82 -9.5q-150 0 -239 88.5t-89 238.5v699q0 11 7.5 18.5t32.5 12.5t69 5
q45 0 70 -5t32.5 -12.5t7.5 -18.5v-641q0 -199 189 -199q96 0 171 66.5t75 121.5v652q0 36 110 36q45 0 70.5 -5t33 -12.5t7.5 -18.5v-1071q0 -117 -53 -215t-155.5 -158t-234.5 -60z" />
    <glyph glyph-name="z" unicode="z" horiz-adv-x="1030" 
d="M115 0q-15 0 -26 9.5t-11 29.5q0 92 11 126.5t56 92.5l502 573q15 20 15 23q0 12 -15 12q-103 0 -216 -11t-185.5 -21.5t-77.5 -10.5q-23 0 -23 25q0 104 21.5 150t77.5 46h653q41 0 41 -36q0 -96 -9.5 -129t-51.5 -82l-502 -574q-17 -17 -17 -24q0 -13 17 -13
q117 0 248 11t216 22.5t91 11.5q22 0 22 -24q0 -104 -27.5 -155.5t-86.5 -51.5h-723z" />
    <glyph glyph-name="braceleft" unicode="{" horiz-adv-x="792" 
d="M608 -563q-19 0 -59 22q-47 26 -81.5 48t-89 67t-90 91t-62.5 114.5t-27 142.5q0 85 20.5 179.5t20.5 125.5q0 46 -14.5 81t-57.5 63q-48 31 -63 50.5t-15 63.5t15.5 64t62.5 51q43 28 57.5 62.5t14.5 80.5q0 31 -20.5 126t-20.5 180q0 74 27 142.5t62 114t90 91t89.5 67
t81.5 47.5q42 23 59 23q15 0 26.5 -8.5t29.5 -34.5q34 -48 34 -61q0 -24 -39 -48q-50 -32 -79 -51.5t-72 -55.5t-66 -68t-41 -78t-18 -95q0 -58 22.5 -139t22.5 -168q0 -68 -32 -133t-74 -109q42 -42 74 -106.5t32 -134.5q0 -87 -22.5 -167.5t-22.5 -139.5q0 -42 10.5 -79.5
t33.5 -70.5t45.5 -58.5t59.5 -53.5t61.5 -44.5t65.5 -42.5q39 -24 39 -47q0 -13 -34 -61q-18 -26 -29.5 -34.5t-26.5 -8.5z" />
    <glyph glyph-name="bar" unicode="|" horiz-adv-x="559" 
d="M279 -371q-45 0 -69 5t-30 11.5t-6 18.5v1776q0 12 6 18.5t30 11.5t69 5q43 0 66.5 -5t29.5 -12t6 -18v-1776q0 -11 -6 -18t-29.5 -12t-66.5 -5z" />
    <glyph glyph-name="braceright" unicode="}" horiz-adv-x="792" 
d="M184 -563q-14 0 -25.5 8.5t-29.5 34.5q-35 49 -35 61q0 22 41 47q50 32 78 51t71.5 56t66.5 69t41 78t18 95q0 59 -22.5 139.5t-22.5 167.5q0 70 32 134.5t74 106.5q-42 44 -74 109t-32 133q0 87 22.5 168t22.5 139q0 49 -18 95t-41 77.5t-67 68.5t-71 55.5t-78 51.5
q-41 25 -41 48q0 12 35 61q18 26 29.5 34.5t25.5 8.5q17 0 62 -23q47 -27 80.5 -48t88.5 -66.5t90 -91t62 -114t27 -142.5q0 -85 -20.5 -180t-20.5 -126q0 -46 14.5 -80.5t57.5 -62.5q47 -31 62 -51t15 -64t-15 -63.5t-62 -50.5q-43 -28 -57.5 -63t-14.5 -81
q0 -31 20.5 -125.5t20.5 -179.5q0 -74 -27 -142.5t-62 -114t-90 -91.5t-88.5 -67t-80.5 -48q-43 -22 -62 -22z" />
    <glyph glyph-name="asciitilde" unicode="~" horiz-adv-x="1236" 
d="M1042 889q21 31 50 31q26 0 63 -37q39 -36 39 -60t-25.5 -60t-67 -70t-103 -58.5t-124.5 -24.5q-67 0 -139 25.5t-124 55.5t-116 55.5t-116 25.5q-106 0 -178 -106q-18 -31 -51 -31q-27 0 -66 35q-41 38 -41 61q0 24 27 59.5t71 69.5t108 58t128 24q57 0 131 -25.5
t132 -55.5t120.5 -55.5t99.5 -25.5q44 0 95 29t87 80z" />
    <glyph glyph-name="exclamdown" unicode="&#xa1;" horiz-adv-x="575" 
d="M238 561h92q23 0 37 -14t14 -39v-920q0 -24 -13.5 -38.5t-37.5 -14.5h-92q-25 0 -38.5 14t-13.5 39v920q0 25 13.5 39t38.5 14zM291 1024q133 0 133 -147q0 -75 -34.5 -113.5t-98.5 -38.5q-65 0 -102 38.5t-37 113.5q0 147 139 147z" />
    <glyph glyph-name="cent" unicode="&#xa2;" horiz-adv-x="1058" 
d="M561 -133q-38 0 -57.5 5t-24 11t-4.5 17v110q-186 38 -305 170t-119 344q0 120 34 217.5t94 162.5t134.5 105.5t161.5 57.5v107q0 11 4.5 17t24 10.5t57.5 4.5q37 0 56.5 -4.5t23.5 -10.5t4 -17v-97q151 -10 245.5 -68t94.5 -112q0 -99 -14 -156q-3 -11 -4 -15t-6.5 -12
t-13 -11t-23 -6t-37.5 -3q-40 0 -56.5 18t-21.5 56q-7 67 -54 107.5t-110 52.5v-752q58 2 111.5 15.5t84 28.5t57 28.5t36.5 15.5q13 3 23 -2.5t10 -19.5q0 -36 -37 -127q-21 -35 -103.5 -74t-181.5 -43v-98q0 -11 -4 -17t-23.5 -11t-56.5 -5zM283 532q0 -260 192 -333v712
q-192 -74 -192 -379z" />
    <glyph glyph-name="sterling" unicode="&#xa3;" horiz-adv-x="1075" 
d="M791 524h-304q5 -40 5 -45q0 -65 -19.5 -135.5t-46.5 -122.5q82 21 145 21q38 0 115 -22.5t109 -22.5q33 0 83 28.5t58 28.5q16 0 47 -47t31 -66q0 -14 -42.5 -51.5t-105.5 -71.5t-108 -34q-44 0 -145 34.5t-138 34.5q-45 0 -132.5 -36.5t-106.5 -36.5q-31 0 -73 56
t-42 85q0 11 17.5 29t42 41.5t49 53t42 70.5t17.5 86q0 34 -13 123h-155q-37 0 -37 86q0 88 37 88h110q-38 148 -38 242q0 135 61.5 238.5t166 158t232.5 54.5q87 0 158 -24.5t110 -60t59.5 -67.5t20.5 -53q0 -30 -48.5 -82.5t-78.5 -52.5q-10 0 -31.5 23.5t-45 51t-68.5 51
t-98 23.5q-99 0 -161 -64t-62 -200q0 -86 38 -238h345q36 0 36 -88q0 -86 -36 -86z" />
    <glyph glyph-name="yen" unicode="&#xa5;" horiz-adv-x="1024" 
d="M745 262h-143v-211q0 -24 -13.5 -37.5t-37.5 -13.5h-86q-24 0 -37.5 13.5t-13.5 37.5v211h-131q-27 0 -42.5 13.5t-15.5 37.5v49q0 24 15.5 38t42.5 14h131v67h-133q-25 0 -40.5 13t-15.5 36v50q0 24 15.5 37.5t40.5 13.5h133v90l-12 17q-11 16 -40.5 60t-70 106
t-109.5 170t-149 237q-15 31 -3 46t36 15h110q29 0 47 -31l283 -419l287 419q18 31 49 31h110q23 0 34.5 -15t-1.5 -46q-81 -129 -150.5 -237t-110 -170t-70 -106t-40.5 -60l-12 -17v-90h143q54 0 54 -51v-50q0 -23 -14.5 -36t-39.5 -13h-143v-67h143q56 0 56 -52v-49
q0 -24 -15.5 -37.5t-40.5 -13.5z" />
    <glyph glyph-name="brokenbar" unicode="&#xa6;" horiz-adv-x="264" 
d="M160 -350h-54q-24 0 -38.5 14.5t-14.5 40.5v594q0 23 13 38t40 15h54q23 0 37 -14t14 -39v-594q0 -26 -13.5 -40.5t-37.5 -14.5zM160 580h-54q-24 0 -38.5 14.5t-14.5 40.5v594q0 23 13 38t40 15h54q23 0 37 -14t14 -39v-594q0 -25 -14 -40t-37 -15z" />
    <glyph glyph-name="section" unicode="&#xa7;" horiz-adv-x="849" 
d="M408 -12q-140 0 -233 84t-93 184q0 38 63 68q46 22 80 22q23 -3 35 -18q10 -23 10 -49q5 -49 43 -82t99 -33q155 0 155 127q0 27 -13 50t-44.5 44.5t-59.5 36.5t-81 39q-38 18 -53.5 25.5t-50.5 25.5t-51.5 29t-45.5 31t-43 36.5t-33.5 40.5t-28 48t-15.5 54.5t-7 63.5
q0 16 2.5 32t6.5 29t10.5 27.5t11.5 24t13 22t12.5 18.5t11.5 15.5t8 11.5q-31 52 -31 107q0 139 103 228t260 89q138 0 228 -78.5t95 -177.5q0 -37 -49 -71q-43 -31 -84 -31q-23 0 -39 16q-14 17 -14 39q0 55 -38 92t-106 37q-76 0 -117.5 -30.5t-41.5 -92.5
q0 -49 48.5 -86t151.5 -84q131 -63 179 -97q147 -101 147 -259q0 -20 -4.5 -41.5t-10 -38t-15.5 -36t-15.5 -28.5t-15.5 -24l-9 -16q25 -56 25 -101q0 -141 -100 -232t-256 -91zM248 877q-1 -2 -5.5 -10t-8 -16t-6.5 -20.5t-3 -25.5q0 -43 45.5 -81t132.5 -83
q41 -22 110 -57t91 -47q1 1 5 10t7 16.5t6 20t3 24.5q0 45 -44.5 81t-134.5 83q-144 77 -198 105z" />
    <glyph glyph-name="dieresis" unicode="&#xa8;" horiz-adv-x="694" 
d="M170 1206q-119 0 -119 133q0 67 30.5 101.5t88.5 34.5q59 0 93 -35t34 -101q0 -133 -127 -133zM520 1206q-121 0 -121 133q0 136 121 136q58 0 91.5 -35t33.5 -101q0 -133 -125 -133z" />
    <glyph glyph-name="copyright" unicode="&#xa9;" horiz-adv-x="1376" 
d="M688 203q-166 0 -305.5 77t-221 212t-81.5 296q0 162 81.5 297.5t221 213t305.5 77.5t305.5 -77.5t221 -213t81.5 -297.5q0 -161 -81.5 -296t-221 -212t-305.5 -77zM688 1229q-191 0 -317.5 -119t-126.5 -322q0 -196 126.5 -316t317.5 -120q123 0 224.5 54t162 154.5
t60.5 227.5q0 135 -61.5 237t-162 153t-223.5 51zM952 940q0 -32 -33 -49t-65 -17q-48 0 -53 39q-17 88 -80 88q-143 0 -143 -219q0 -113 38 -154.5t103 -41.5t90 43q20 30 43 30q32 0 65.5 -14.5t32.5 -40.5q0 -24 -14 -51.5t-42 -54.5t-78 -44.5t-114 -17.5
q-134 0 -218.5 88t-84.5 252q0 174 78.5 274.5t237.5 100.5q114 0 174 -55.5t63 -155.5z" />
    <glyph glyph-name="ordfeminine" unicode="&#xaa;" horiz-adv-x="909" 
d="M285 809q0 -51 35.5 -77.5t93.5 -26.5q54 0 92.5 26t38.5 53v170q0 19 -19 19q-15 0 -71 -17q-76 -24 -123 -57.5t-47 -89.5zM717 557q-30 0 -56.5 8.5t-43 21t-29 25t-18.5 20.5l-5 9q-111 -84 -235 -84q-111 0 -180.5 59t-69.5 168q0 123 80 185.5t258 101.5
q65 15 94 27t29 30q0 41 -37 65t-105 24q-53 0 -104.5 -17.5t-84 -35t-40.5 -17.5q-18 0 -18 22q0 40 26 113q12 29 89 59.5t163 30.5q170 0 241.5 -75t71.5 -234v-287q0 -67 62 -67h43q14 0 14 -15q0 -31 -49 -84t-96 -53z" />
    <glyph glyph-name="guillemotleft" unicode="&#xab;" horiz-adv-x="1275" 
d="M657 774q-344 -239 -383 -278q-22 -18 -22 -37q0 -15 18 -29q52 -40 181.5 -126.5t203.5 -131.5q26 -18 23 -37q0 -10 -15.5 -38.5t-27.5 -43.5q-13 -20 -39 -20q-17 0 -31 14q-417 257 -469 309q-37 29 -37 99q0 48 35 92q21 26 122.5 102t283.5 207l63 45q20 12 35 12
q22 0 39 -20l33 -51q8 -16 8 -29q0 -21 -21 -39zM1157 774q-332 -234 -383 -278q-20 -17 -20 -37q0 -16 16 -29q53 -41 184 -128t203 -130q24 -17 21 -37q0 -10 -15.5 -38.5t-27.5 -43.5q-13 -20 -37 -20q-16 0 -33 14q-412 254 -467 309q-39 31 -39 99q0 48 35 92
q33 39 404 306q44 32 67 48q16 12 33 12q26 0 39 -20l34 -51q0 -1 4.5 -11.5t4.5 -17.5q0 -23 -23 -39z" />
    <glyph glyph-name="registered" unicode="&#xae;" horiz-adv-x="1376" 
d="M688 203q-166 0 -305.5 77t-221 212t-81.5 296q0 162 81.5 297.5t221 213t305.5 77.5t305.5 -77.5t221 -213t81.5 -297.5q0 -161 -81.5 -296t-221 -212t-305.5 -77zM688 352q123 0 224.5 54t162 154.5t60.5 227.5q0 135 -61.5 237t-162 153t-223.5 51q-191 0 -317.5 -119
t-126.5 -322q0 -196 126.5 -316t317.5 -120zM973 956q0 -69 -46 -131t-116 -108l190 -207q31 -33 -30 -43q-21 -4 -53 -4q-46 0 -61.5 3t-31.5 19q-14 14 -77.5 87.5t-67.5 80.5q-7 -3 -21 -9.5t-33.5 -16.5t-29.5 -15v-114q0 -35 -39 -35h-86q-33 0 -33 6l-4 682h242
q67 0 118.5 -9.5t93 -31t63.5 -60.5t22 -94zM596 1034v-295q44 19 76 37t67 45t53.5 62t18.5 75q0 41 -32.5 58.5t-100.5 17.5h-82z" />
    <glyph glyph-name="macron" unicode="&#xaf;" horiz-adv-x="739" 
d="M602 1192h-463q-22 0 -36.5 14t-14.5 37v49q0 23 14 37t37 14h463q24 0 37.5 -13.5t13.5 -37.5v-49q0 -24 -13.5 -37.5t-37.5 -13.5z" />
    <glyph glyph-name="degree" unicode="&#xb0;" horiz-adv-x="927" 
d="M465 657q-158 0 -261.5 95.5t-103.5 267.5q0 167 103.5 259.5t261.5 92.5q156 0 259 -92.5t103 -259.5q0 -172 -103 -267.5t-259 -95.5zM465 813q82 0 133 49.5t51 157.5q0 106 -51 153.5t-133 47.5q-84 0 -135 -47.5t-51 -153.5q0 -109 51 -158t135 -49z" />
    <glyph glyph-name="plusminus" unicode="&#xb1;" horiz-adv-x="1034" 
d="M530 250h-63q-24 0 -37.5 15t-13.5 40v334h-336q-25 0 -41 13t-16 36v60q0 25 15.5 39t41.5 14h336v336q0 25 14 40t37 15h63q25 0 39.5 -15t14.5 -40v-336h360q55 0 55 -53v-60q0 -49 -55 -49h-360v-334q0 -24 -13.5 -39.5t-40.5 -15.5zM86 2q-25 0 -41 13t-16 36v49
q0 25 15.5 39.5t41.5 14.5h852q24 0 39.5 -13.5t15.5 -40.5v-49q0 -49 -55 -49h-852z" />
    <glyph glyph-name="twosuperior" unicode="&#xb2;" horiz-adv-x="905" 
d="M133 338q-13 0 -21 8t-8 23v108q0 6 1 11.5t1.5 9t3 8t3 6t4.5 5.5t4.5 5t6.5 6l5 4q11 10 50.5 42.5t68.5 56.5t74 64.5t78 73.5t70 76.5t61 80t39.5 77t15.5 74.5q0 55 -38.5 86t-107.5 31q-74 0 -147 -31q-10 -5 -22.5 -12.5t-19.5 -12t-14.5 -7.5t-13.5 -3
q-20 0 -50 41.5t-30 65.5q0 12 23.5 35.5t62.5 49t100.5 44t125.5 18.5q158 0 248 -80.5t90 -214.5q0 -58 -23 -120.5t-59.5 -116t-81 -104.5t-89 -91t-81 -70.5t-59.5 -46.5l-23 -16h383q31 0 31 -92t-31 -92h-631z" />
    <glyph glyph-name="threesuperior" unicode="&#xb3;" horiz-adv-x="874" 
d="M430 322q-124 0 -216 44t-105 83q-25 53 -25 143q0 22 18 22q9 0 35.5 -18t59 -40t89 -40t117.5 -18q80 0 124 40t44 107q0 80 -57 115t-166 35q-61 0 -61 100q0 38 11.5 50.5t43.5 21.5q30 8 59 21.5t57 32.5t45 46t17 57q0 39 -28.5 60.5t-75.5 21.5q-74 0 -154 -39
q-13 -7 -30 -17.5t-27 -16t-17 -5.5q-20 0 -49.5 41.5t-29.5 65.5q0 12 23 35.5t61.5 49t100 44t126.5 18.5q148 0 227.5 -64.5t77.5 -162.5q-1 -43 -16.5 -84.5t-38 -69.5t-44.5 -49.5t-38 -31.5l-15 -11q8 -2 21 -6t46.5 -23.5t59.5 -45.5t47 -76t21 -111
q0 -136 -98.5 -230.5t-239.5 -94.5z" />
    <glyph glyph-name="acute" unicode="&#xb4;" horiz-adv-x="473" 
d="M109 1182q-13 0 -36.5 24.5t-23.5 36.5q0 14 19 37q18 21 202 229q25 21 37 21q23 0 67 -44t44 -69q0 -17 -21 -35q-19 -18 -117 -89.5t-133 -94.5q-28 -16 -38 -16z" />
    <glyph glyph-name="mu" unicode="&#xb5;" horiz-adv-x="946" 
d="M236 -360h-93q-51 0 -51 53v1644q0 52 51 52h93q49 0 49 -52v-1116q0 -34 47 -60t108 -26q73 0 138 50t65 87v1065q0 25 13.5 38.5t37.5 13.5h92q23 0 36.5 -13.5t13.5 -38.5v-1284q0 -25 -13.5 -39t-36.5 -14h-92q-23 0 -37 14t-14 39v19q-38 -41 -102.5 -64.5
t-124.5 -23.5q-57 0 -131 18v-309q0 -25 -13 -39t-36 -14z" />
    <glyph glyph-name="paragraph" unicode="&#xb6;" horiz-adv-x="1163" 
d="M924 -178h-84q-47 0 -47 49v690h-138v-688q0 -51 -49 -51h-94q-23 0 -36 14t-13 37v684q-88 5 -163.5 30.5t-136 70.5t-95.5 116t-35 160q0 101 28.5 178t78 126t124 79.5t158 42.5t188.5 12h396q22 0 34.5 -12.5t12.5 -34.5v-92q0 -47 -47 -47h-35v-1315
q0 -23 -12.5 -36t-34.5 -13zM657 713h136v508h-136v-508z" />
    <glyph glyph-name="cedilla" unicode="&#xb8;" horiz-adv-x="499" 
d="M223 -477q-70 0 -125 25.5t-55 45.5q0 16 19.5 40t29.5 24q1 0 34 -15.5t69 -15.5q50 0 77 30t27 75q0 31 -19 57t-42.5 40.5t-42.5 29t-19 24.5v125q0 16 9.5 23.5t21.5 7.5h74q30 0 30 -31v-92q144 -68 144 -184q0 -91 -72.5 -150t-159.5 -59z" />
    <glyph glyph-name="onesuperior" unicode="&#xb9;" 
d="M301 344q-106 0 -106 31v690h-109q-37 0 -37 35q0 6 5 18t15.5 30t20.5 34t26 40.5t25.5 38.5t27 39t21.5 31q1 2 6 8t6 7.5t5.5 6t7 5.5t7.5 4.5t9.5 4t12 2t15.5 2t18.5 1t23.5 0.5q109 0 109 -31v-966q0 -31 -109 -31z" />
    <glyph glyph-name="ordmasculine" unicode="&#xba;" horiz-adv-x="1015" 
d="M504 569q-79 0 -148.5 26t-124.5 75t-86.5 129t-31.5 180q0 79 21 146t57 114t86 79.5t107 48t120 15.5q78 0 147.5 -25.5t124 -73.5t86 -126.5t31.5 -177.5q0 -100 -31.5 -180t-86 -129t-124 -75t-147.5 -26zM504 713q76 0 123 66.5t47 201.5t-47 201.5t-123 66.5
q-77 0 -124.5 -67t-47.5 -201t47.5 -201t124.5 -67z" />
    <glyph glyph-name="guillemotright" unicode="&#xbb;" horiz-adv-x="1275" 
d="M676 33q-26 0 -39 20q-12 15 -26.5 41.5t-14.5 36.5q0 22 16 33q209 137 297 203l31 23q32 22 57 42t25 25q0 23 -16 39q-70 61 -289 215q-19 13 -65 49.5t-46 44.5q-3 21 4 33q0 4 13 24.5t22 30.5q13 20 37 20q18 0 35 -14q43 -31 131 -94t127 -91t92.5 -68t79.5 -62
t37 -35q33 -47 33 -92q0 -70 -37 -99q-51 -48 -471 -313q-12 -12 -33 -12zM176 33q-26 0 -39 20q-13 16 -28 42t-15 36q0 22 17 33q173 111 299 203q2 1 21 15.5t38 28.5t35 28t16 18q0 23 -16 39q-46 46 -289 215q-1 1 -15 11.5t-28 22t-30 24.5t-26 23t-10 13q-3 18 3 33
q3 8 34 55q17 20 39 20q16 0 33 -14q49 -35 132 -94.5t125.5 -90.5t94 -69t78.5 -60.5t37 -35.5q35 -44 35 -92q0 -68 -39 -99q-60 -57 -471 -313q-12 -12 -31 -12z" />
    <glyph glyph-name="onequarter" unicode="&#xbc;" horiz-adv-x="1822" 
d="M1561 -10q-109 0 -109 30v185h-489q-13 0 -22 22.5t-9 63.5q0 87 18 112l459 584q22 31 107 31q124 0 124 -33q0 -12 -6 -20l-448 -576h266v205q0 26 18 47l142 180q15 21 33 21q22 0 22 -29v-793q0 -30 -106 -30zM1227 1274l-613 -1229q-8 -15 -17.5 -23.5t-36.5 -15
t-71 -6.5q-60 0 -80 14t-20 43q0 10 10 35l615 1235q9 15 18 23t36 15t71 7q59 0 79.5 -15.5t20.5 -41.5q0 -14 -12 -41zM301 344q-106 0 -106 31v690h-109q-37 0 -37 35q0 6 5 18t15.5 30t20.5 34t26 40.5t25.5 38.5t27 39t21.5 31q1 2 6 8t6 7.5t5.5 6t7 5.5t7.5 4.5
t9.5 4t12 2t15.5 2t18.5 1t23.5 0.5q109 0 109 -31v-966q0 -31 -109 -31z" />
    <glyph glyph-name="onehalf" unicode="&#xbd;" horiz-adv-x="1947" 
d="M1157 0q-13 0 -21 8t-8 23v108q0 15 5 26.5t8.5 15.5t15.5 14q10 8 59 48.5t81.5 68.5t85 75.5t88 88t71 87.5t54 92t18.5 84q0 55 -38.5 86t-107.5 31q-74 0 -147 -31q-9 -5 -22 -12.5t-20 -11.5t-14.5 -7t-13.5 -3q-20 0 -50 41t-30 65q0 12 23.5 35.5t62.5 49
t100.5 44t125.5 18.5q158 0 248 -80t90 -214q0 -79 -43 -166.5t-104 -156t-122 -125t-104 -87.5l-43 -31h383q31 0 31 -92t-31 -92h-631zM1227 1274l-613 -1229q-8 -15 -17.5 -23.5t-36.5 -15t-71 -6.5q-60 0 -80 14t-20 43q0 10 10 35l615 1235q9 15 18 23t36 15t71 7
q59 0 79.5 -15.5t20.5 -41.5q0 -14 -12 -41zM301 344q-106 0 -106 31v690h-109q-37 0 -37 35q0 6 5 18t15.5 30t20.5 34t26 40.5t25.5 38.5t27 39t21.5 31q1 2 6 8t6 7.5t5.5 6t7 5.5t7.5 4.5t9.5 4t12 2t15.5 2t18.5 1t23.5 0.5q109 0 109 -31v-966q0 -31 -109 -31z" />
    <glyph glyph-name="threequarters" unicode="&#xbe;" horiz-adv-x="2058" 
d="M1806 -10q-108 0 -108 30v185h-490q-13 0 -21.5 22.5t-8.5 63.5q0 87 18 112l459 584q22 31 106 31q125 0 125 -33q0 -12 -6 -20l-448 -576h266v205q0 26 18 47l142 180q15 21 32 21q23 0 23 -29v-793q0 -30 -107 -30zM430 322q-124 0 -216 44t-105 83q-25 53 -25 143
q0 22 18 22q9 0 35.5 -18t59 -40t89 -40t117.5 -18q80 0 124 40t44 107q0 80 -57 115t-166 35q-61 0 -61 100q0 38 11.5 50.5t43.5 21.5q30 8 59 21.5t57 32.5t45 46t17 57q0 39 -28.5 60.5t-75.5 21.5q-74 0 -154 -39q-13 -7 -30 -17.5t-27 -16t-17 -5.5q-20 0 -49.5 41.5
t-29.5 65.5q0 12 23 35.5t61.5 49t100 44t126.5 18.5q148 0 227.5 -64.5t77.5 -162.5q-1 -43 -16.5 -84.5t-38 -69.5t-44.5 -49.5t-38 -31.5l-15 -11q8 -2 21 -6t46.5 -23.5t59.5 -45.5t47 -76t21 -111q0 -136 -98.5 -230.5t-239.5 -94.5zM1473 1274l-613 -1229
q-8 -15 -17.5 -23.5t-36.5 -15t-71 -6.5q-60 0 -80 14t-20 43q0 10 10 35l615 1235q9 15 17.5 22.5t35.5 15t71 7.5q101 0 101 -57q0 -14 -12 -41z" />
    <glyph glyph-name="questiondown" unicode="&#xbf;" horiz-adv-x="921" 
d="M49 -16q0 69 34 138t82 122t96 97.5t82 79t34 52.5v123q0 35 119 35q118 0 118 -37v-168q0 -21 -35 -57t-84.5 -77.5t-99 -88.5t-84.5 -103t-35 -108q0 -88 53 -136.5t138 -48.5q96 0 146.5 65.5t68.5 195.5q3 21 11 27.5t32 6.5q50 0 104 -28.5t54 -55.5
q0 -78 -25.5 -148t-75.5 -127.5t-134 -91.5t-191 -34q-190 0 -299 100t-109 267zM500 1024q133 0 133 -147q0 -152 -133 -152q-65 0 -102.5 38.5t-37.5 113.5q0 147 140 147z" />
    <glyph glyph-name="Agrave" unicode="&#xc0;" horiz-adv-x="1359" 
d="M477 453h406q20 0 20 24l-203 551q-11 27 -20 27q-8 0 -21 -25l-202 -553q0 -24 20 -24zM948 272h-536q-28 0 -35 -20l-80 -217q-9 -21 -32.5 -28t-92.5 -7q-49 0 -75.5 3.5t-33.5 9.5t-6 16q0 6 17 57l471 1233q12 31 39 42t96 11q71 0 97.5 -11t37.5 -42l471 -1233
q17 -51 17 -57q1 -10 -5.5 -15.5t-32.5 -9.5t-75 -4q-70 0 -93.5 7t-31.5 28l-82 217q-8 20 -35 20zM809 1462q-14 0 -39 17q-35 23 -133 94.5t-117 89.5q-20 17 -20 35q0 24 43 68t65 44q17 0 37 -20q7 -8 56 -62.5t91 -102t56 -64.5q20 -20 20 -37q0 -12 -23.5 -37
t-35.5 -25z" />
    <glyph glyph-name="Aacute" unicode="&#xc1;" horiz-adv-x="1359" 
d="M477 453h406q20 0 20 24l-203 551q-11 27 -20 27q-8 0 -21 -25l-202 -553q0 -24 20 -24zM948 272h-536q-28 0 -35 -20l-80 -217q-9 -21 -32.5 -28t-92.5 -7q-49 0 -75.5 3.5t-33.5 9.5t-6 16q0 6 17 57l471 1233q12 31 39 42t96 11q71 0 97.5 -11t37.5 -42l471 -1233
q17 -51 17 -57q1 -10 -5.5 -15.5t-32.5 -9.5t-75 -4q-70 0 -93.5 7t-31.5 28l-82 217q-8 20 -35 20zM551 1473q-13 0 -36 24.5t-23 36.5q0 15 18 37q15 17 57 65t90.5 102t55.5 62q25 21 37 21q23 0 66.5 -44t43.5 -69q0 -18 -20 -35q-19 -18 -117 -89.5t-133 -94.5
q-28 -16 -39 -16z" />
    <glyph glyph-name="Acircumflex" unicode="&#xc2;" horiz-adv-x="1359" 
d="M948 272h-536q-28 0 -35 -20l-80 -217q-9 -21 -32.5 -28t-92.5 -7q-49 0 -75.5 3.5t-33.5 9.5t-6 16q0 6 17 57l471 1233q12 31 39 42t96 11q71 0 97.5 -11t37.5 -42l471 -1233q17 -51 17 -57q1 -10 -5.5 -15.5t-32.5 -9.5t-75 -4q-70 0 -93.5 7t-31.5 28l-82 217
q-8 20 -35 20zM477 453h406q20 0 20 24l-203 551q-11 27 -20 27q-8 0 -21 -25l-202 -553q0 -24 20 -24zM872 1452q-15 0 -34 16l-162 148l-154 -146q-20 -16 -37 -16t-24 10l-62 56q-18 18 -18 36q0 15 14 29l203 187q20 17 34.5 21.5t45.5 4.5q34 0 49 -5t33 -21l203 -187
q14 -14 14 -31q0 -15 -19 -34l-57 -56q-12 -12 -29 -12z" />
    <glyph glyph-name="Atilde" unicode="&#xc3;" horiz-adv-x="1359" 
d="M477 453h406q20 0 20 24l-203 551q-11 27 -20 27q-8 0 -21 -25l-202 -553q0 -24 20 -24zM948 272h-536q-28 0 -35 -20l-80 -217q-9 -21 -32.5 -28t-92.5 -7q-49 0 -75.5 3.5t-33.5 9.5t-6 16q0 6 17 57l471 1233q12 31 39 42t96 11q71 0 97.5 -11t37.5 -42l471 -1233
q17 -51 17 -57q1 -10 -5.5 -15.5t-32.5 -9.5t-75 -4q-70 0 -93.5 7t-31.5 28l-82 217q-8 20 -35 20zM459 1436q-16 -13 -25 -13q-16 0 -54 42t-38 55q0 19 20 39q35 42 87 68t108 26q45 0 96 -21.5t93 -43t67 -21.5q44 0 96 65q10 13 19 13q14 0 52 -42t38 -57
q0 -37 -59.5 -84t-131.5 -47q-48 0 -97.5 21t-93.5 42t-77 21q-13 0 -31.5 -10.5t-29.5 -19.5t-39 -33z" />
    <glyph glyph-name="Adieresis" unicode="&#xc4;" horiz-adv-x="1359" 
d="M477 453h406q20 0 20 24l-203 551q-11 27 -20 27q-8 0 -21 -25l-202 -553q0 -24 20 -24zM948 272h-536q-28 0 -35 -20l-80 -217q-9 -21 -32.5 -28t-92.5 -7q-49 0 -75.5 3.5t-33.5 9.5t-6 16q0 6 17 57l471 1233q12 31 39 42t96 11q71 0 97.5 -11t37.5 -42l471 -1233
q17 -51 17 -57q1 -10 -5.5 -15.5t-32.5 -9.5t-75 -4q-70 0 -93.5 7t-31.5 28l-82 217q-8 20 -35 20zM502 1509q-119 0 -119 133q0 67 30.5 101.5t88.5 34.5q59 0 93 -35t34 -101q0 -133 -127 -133zM852 1509q-121 0 -121 133q0 136 121 136q58 0 91.5 -35t33.5 -101
q0 -133 -125 -133z" />
    <glyph glyph-name="Aring" unicode="&#xc5;" horiz-adv-x="1359" 
d="M477 453h406q20 0 20 24l-203 551q-11 27 -20 27q-8 0 -21 -25l-202 -553q0 -24 20 -24zM948 272h-536q-28 0 -35 -20l-80 -217q-9 -21 -32.5 -28t-92.5 -7q-49 0 -75.5 3.5t-33.5 9.5t-6 16q0 6 17 57l471 1233q12 31 39 42t96 11q71 0 97.5 -11t37.5 -42l471 -1233
q17 -51 17 -57q1 -10 -5.5 -15.5t-32.5 -9.5t-75 -4q-70 0 -93.5 7t-31.5 28l-82 217q-8 20 -35 20zM678 1489q-85 0 -144 57.5t-59 139.5q0 83 59.5 141.5t143.5 58.5q85 0 146 -58.5t61 -141.5q0 -81 -61 -139t-146 -58zM678 1782q-35 0 -59.5 -28.5t-24.5 -67.5t24 -67
t60 -28q37 0 61.5 28t24.5 67t-25 67.5t-61 28.5z" />
    <glyph glyph-name="AE" unicode="&#xc6;" horiz-adv-x="1857" 
d="M887 1372h799q17 0 25.5 -21t8.5 -81t-8.5 -81.5t-25.5 -21.5h-619v-376h498q17 0 25.5 -21.5t8.5 -81.5q0 -59 -8.5 -80.5t-25.5 -21.5h-498v-381h659q17 0 26 -21.5t9 -81.5q0 -102 -35 -102h-843q-37 0 -37 39v240h-418q-18 0 -33 -29l-114 -213q-11 -21 -36.5 -29
t-92.5 -8q-47 0 -73.5 3.5t-35.5 9.5t-8 16t20 53l660 1225q19 38 55.5 51.5t116.5 13.5zM846 1149l-342 -668q-4 -9 -1 -14.5t11 -5.5h332v688z" />
    <glyph glyph-name="Ccedilla" unicode="&#xc7;" horiz-adv-x="1357" 
d="M774 -504q-70 0 -125 26t-55 46q0 16 19.5 39.5t29.5 23.5q1 0 33.5 -15t68.5 -15q50 0 77.5 29.5t27.5 74.5q0 31 -19 57.5t-42.5 41t-42.5 29t-19 24.5v125v4q-127 10 -238 57t-199.5 128.5t-140 209t-51.5 287.5q0 137 38.5 255t105 202.5t155.5 145.5t191 90.5
t211 29.5q79 0 148 -13.5t113.5 -34t77 -44t46.5 -42t14 -30.5q0 -26 -33.5 -71.5t-54.5 -45.5q-11 0 -35 11.5t-52 25.5t-85.5 25.5t-128.5 11.5q-92 0 -174.5 -32t-148.5 -93t-105 -161t-39 -226q0 -105 27 -188.5t72.5 -138t109 -90.5t133.5 -51.5t150 -15.5q88 0 168 21
t125 46t81 46t45 21q23 0 23 -27q0 -67 -37 -145q-17 -40 -129 -96.5t-248 -67.5v-4v-93q144 -68 144 -184q0 -91 -72.5 -150t-159.5 -59z" />
    <glyph glyph-name="Egrave" unicode="&#xc8;" horiz-adv-x="1185" 
d="M227 0q-51 0 -51 51v1272q0 49 51 49h713q52 0 72 -47t20 -154q0 -30 -24 -30q-5 0 -43.5 10.5t-118 21.5t-182.5 11h-244q-27 0 -27 -27v-340q0 -11 6.5 -20t16.5 -9h434q35 0 35 -100q0 -57 -9 -77.5t-26 -20.5h-434q-10 0 -16.5 -11.5t-6.5 -23.5v-338q0 -27 27 -27
h282q103 0 187 11t127.5 21.5t48.5 10.5q22 0 22 -32q0 -108 -19.5 -154.5t-72.5 -46.5h-768zM717 1473q-15 0 -39 16q-35 23 -133 94.5t-117 89.5q-20 17 -20 35q0 24 43 68.5t65 44.5q16 0 37 -21q7 -8 56 -62.5t91 -102t56 -64.5q20 -20 20 -37q0 -12 -23.5 -36.5
t-35.5 -24.5z" />
    <glyph glyph-name="Eacute" unicode="&#xc9;" horiz-adv-x="1185" 
d="M227 0q-51 0 -51 51v1272q0 49 51 49h713q52 0 72 -47t20 -154q0 -30 -24 -30q-5 0 -43.5 10.5t-118 21.5t-182.5 11h-244q-27 0 -27 -27v-340q0 -11 6.5 -20t16.5 -9h434q35 0 35 -100q0 -57 -9 -77.5t-26 -20.5h-434q-10 0 -16.5 -11.5t-6.5 -23.5v-338q0 -27 27 -27
h282q103 0 187 11t127.5 21.5t48.5 10.5q22 0 22 -32q0 -108 -19.5 -154.5t-72.5 -46.5h-768zM496 1464q-13 0 -36.5 25t-23.5 37q0 14 19 37q18 21 202 229q24 20 37 20q24 0 67.5 -44t43.5 -68q0 -18 -21 -35q-20 -18 -117 -89.5t-132 -94.5q-30 -17 -39 -17z" />
    <glyph glyph-name="Ecircumflex" unicode="&#xca;" horiz-adv-x="1185" 
d="M227 0q-51 0 -51 51v1272q0 49 51 49h713q52 0 72 -47t20 -154q0 -30 -24 -30q-5 0 -43.5 10.5t-118 21.5t-182.5 11h-244q-27 0 -27 -27v-340q0 -11 6.5 -20t16.5 -9h434q35 0 35 -100q0 -57 -9 -77.5t-26 -20.5h-434q-10 0 -16.5 -11.5t-6.5 -23.5v-338q0 -27 27 -27
h282q103 0 187 11t127.5 21.5t48.5 10.5q22 0 22 -32q0 -108 -19.5 -154.5t-72.5 -46.5h-768zM786 1475q-15 0 -34 16l-162 147l-154 -145q-20 -16 -37 -16t-24 10l-62 55q-18 18 -18 37q0 15 14 29l203 186q20 17 34.5 22t45.5 5q33 0 48 -5.5t34 -21.5l203 -186
q14 -14 14 -31q0 -16 -19 -35l-57 -55q-12 -12 -29 -12z" />
    <glyph glyph-name="Edieresis" unicode="&#xcb;" horiz-adv-x="1185" 
d="M227 0q-51 0 -51 51v1272q0 49 51 49h713q52 0 72 -47t20 -154q0 -30 -24 -30q-5 0 -43.5 10.5t-118 21.5t-182.5 11h-244q-27 0 -27 -27v-340q0 -11 6.5 -20t16.5 -9h434q35 0 35 -100q0 -57 -9 -77.5t-26 -20.5h-434q-10 0 -16.5 -11.5t-6.5 -23.5v-338q0 -27 27 -27
h282q103 0 187 11t127.5 21.5t48.5 10.5q22 0 22 -32q0 -108 -19.5 -154.5t-72.5 -46.5h-768zM414 1475q-119 0 -119 133q0 135 119 135q59 0 93 -34.5t34 -100.5q0 -133 -127 -133zM764 1475q-121 0 -121 133q0 135 121 135q58 0 91.5 -34.5t33.5 -100.5q0 -133 -125 -133z
" />
    <glyph glyph-name="Igrave" unicode="&#xcc;" horiz-adv-x="575" 
d="M289 0q-113 0 -113 35v1302q0 35 113 35q110 0 110 -35v-1302q0 -35 -110 -35zM418 1473q-15 0 -39 16q-35 23 -133 94.5t-117 89.5q-20 17 -20 35q0 24 43 68.5t65 44.5q16 0 37 -21q7 -8 56 -62.5t91 -102t56 -64.5q20 -20 20 -37q0 -12 -23.5 -36.5t-35.5 -24.5z" />
    <glyph glyph-name="Iacute" unicode="&#xcd;" horiz-adv-x="575" 
d="M289 0q-113 0 -113 35v1302q0 35 113 35q110 0 110 -35v-1302q0 -35 -110 -35zM162 1481q-13 0 -36.5 24.5t-23.5 36.5q0 14 19 37q15 17 57 65t90.5 102t55.5 62q25 21 36 21q23 0 67 -44t44 -69q0 -18 -20 -35q-19 -18 -117 -89.5t-133 -94.5q-28 -16 -39 -16z" />
    <glyph glyph-name="Icircumflex" unicode="&#xce;" horiz-adv-x="575" 
d="M289 0q-113 0 -113 35v1302q0 35 113 35q110 0 110 -35v-1302q0 -35 -110 -35zM481 1448q-16 0 -35 16l-161 148l-154 -146q-20 -16 -37 -16q-16 0 -24 10l-62 56q-18 18 -18 36q0 15 14 29l203 186q20 17 34.5 22t45.5 5q33 0 48 -5.5t34 -21.5l202 -186q15 -15 15 -31
q0 -15 -19 -34l-57 -56q-12 -12 -29 -12z" />
    <glyph glyph-name="Idieresis" unicode="&#xcf;" horiz-adv-x="575" 
d="M289 0q-113 0 -113 35v1302q0 35 113 35q110 0 110 -35v-1302q0 -35 -110 -35zM111 1499q-119 0 -119 133q0 135 119 135q59 0 93 -34.5t34 -100.5q0 -133 -127 -133zM461 1499q-121 0 -121 133q0 135 121 135q58 0 91.5 -34.5t33.5 -100.5q0 -133 -125 -133z" />
    <glyph glyph-name="Eth" unicode="&#xd0;" horiz-adv-x="1425" 
d="M111 727h65v549q0 46 122.5 80.5t295.5 34.5q84 0 159.5 -9.5t150.5 -32t137 -57t116 -88.5t91 -123t58 -163.5t21 -206.5q0 -145 -36 -264.5t-101.5 -205t-158 -143.5t-204 -86t-241.5 -28q-171 0 -290.5 34t-119.5 80v424h-65q-21 0 -32 22t-11 81t11 80.5t32 21.5z
M1106 709q0 92 -15.5 166.5t-41 126.5t-65 90.5t-81.5 61.5t-96 37t-103 18.5t-108 4.5q-92 0 -144.5 -19.5t-52.5 -51.5v-416h322q21 0 32 -21t11 -81t-11 -81.5t-32 -21.5h-322v-284q0 -34 46 -55t141 -21q87 0 161.5 17t141.5 57.5t114.5 102.5t75 156t27.5 214z" />
    <glyph glyph-name="Ntilde" unicode="&#xd1;" horiz-adv-x="1447" 
d="M281 0q-44 0 -68 5t-30.5 12t-6.5 18v1302q0 35 78 35q57 0 76.5 -4.5t29.5 -17.5l707 -959v946q0 12 5.5 18.5t28.5 11.5t66 5q44 0 68 -5t30.5 -12t6.5 -18v-1302q0 -35 -80 -35q-55 0 -75.5 5.5t-29.5 17.5l-706 942v-930q0 -11 -5.5 -17.5t-29 -12t-65.5 -5.5z
M502 1468q-15 -12 -25 -12q-16 0 -54 41.5t-38 54.5q0 18 21 39q35 43 87 69t107 26q45 0 96 -22t93 -43.5t67 -21.5q43 0 96 66q9 12 19 12q14 0 52 -41.5t38 -56.5q0 -37 -59.5 -84t-131.5 -47q-48 0 -97.5 21t-93.5 42t-77 21q-25 0 -90 -56q-7 -5 -10 -8z" />
    <glyph glyph-name="Ograve" unicode="&#xd2;" horiz-adv-x="1480" 
d="M741 -18q-295 0 -469 181t-174 527q0 139 34.5 255t94 197.5t141 138t176 83.5t197.5 27t197.5 -27t176 -83.5t141 -138t94 -197.5t34.5 -255q0 -174 -49.5 -310.5t-137 -222.5t-203.5 -130.5t-253 -44.5zM741 178q87 0 159.5 28.5t130.5 87t91 159t33 233.5
q0 134 -34.5 234.5t-94 157.5t-131 84.5t-154.5 27.5q-84 0 -155.5 -27.5t-131 -84.5t-94 -157.5t-34.5 -234.5t31 -233.5t88 -158.5t131 -87.5t165 -28.5zM864 1507q-14 0 -39 17q-35 23 -133 94.5t-117 89.5q-20 17 -20 35q0 24 43.5 68t65.5 44q16 0 36 -20
q7 -8 56 -62.5t91 -102t56 -64.5q21 -21 21 -37q0 -12 -24 -37t-36 -25z" />
    <glyph glyph-name="Oacute" unicode="&#xd3;" horiz-adv-x="1480" 
d="M741 -18q-295 0 -469 181t-174 527q0 139 34.5 255t94 197.5t141 138t176 83.5t197.5 27t197.5 -27t176 -83.5t141 -138t94 -197.5t34.5 -255q0 -174 -49.5 -310.5t-137 -222.5t-203.5 -130.5t-253 -44.5zM741 178q87 0 159.5 28.5t130.5 87t91 159t33 233.5
q0 134 -34.5 234.5t-94 157.5t-131 84.5t-154.5 27.5q-84 0 -155.5 -27.5t-131 -84.5t-94 -157.5t-34.5 -234.5t31 -233.5t88 -158.5t131 -87.5t165 -28.5zM614 1473q-13 0 -36 24.5t-23 36.5q0 15 18 37q15 17 57 65t90.5 102t55.5 62q25 21 37 21q23 0 67 -44t44 -69
q0 -18 -21 -35q-19 -18 -117 -89.5t-133 -94.5q-28 -16 -39 -16z" />
    <glyph glyph-name="Ocircumflex" unicode="&#xd4;" horiz-adv-x="1480" 
d="M741 -18q-295 0 -469 181t-174 527q0 139 34.5 255t94 197.5t141 138t176 83.5t197.5 27t197.5 -27t176 -83.5t141 -138t94 -197.5t34.5 -255q0 -174 -49.5 -310.5t-137 -222.5t-203.5 -130.5t-253 -44.5zM741 178q87 0 159.5 28.5t130.5 87t91 159t33 233.5
q0 134 -34.5 234.5t-94 157.5t-131 84.5t-154.5 27.5q-84 0 -155.5 -27.5t-131 -84.5t-94 -157.5t-34.5 -234.5t31 -233.5t88 -158.5t131 -87.5t165 -28.5zM934 1491q-16 0 -35 16l-162 148l-153 -146q-20 -16 -37 -16t-25 10l-61 56q-19 19 -19 36q0 14 15 29l202 186
q20 17 34.5 22t45.5 5q33 0 48 -5.5t34 -21.5l203 -186q14 -14 14 -31q0 -16 -18 -34l-57 -56q-12 -12 -29 -12z" />
    <glyph glyph-name="Otilde" unicode="&#xd5;" horiz-adv-x="1480" 
d="M741 -18q-295 0 -469 181t-174 527q0 139 34.5 255t94 197.5t141 138t176 83.5t197.5 27t197.5 -27t176 -83.5t141 -138t94 -197.5t34.5 -255q0 -174 -49.5 -310.5t-137 -222.5t-203.5 -130.5t-253 -44.5zM741 178q87 0 159.5 28.5t130.5 87t91 159t33 233.5
q0 134 -34.5 234.5t-94 157.5t-131 84.5t-154.5 27.5q-84 0 -155.5 -27.5t-131 -84.5t-94 -157.5t-34.5 -234.5t31 -233.5t88 -158.5t131 -87.5t165 -28.5zM518 1499q-15 -12 -24 -12q-16 0 -54.5 41.5t-38.5 54.5q0 18 21 39q35 42 86.5 68t107.5 26q45 0 96 -21.5t93 -43
t67 -21.5q44 0 97 66q9 12 18 12q14 0 52 -41.5t38 -56.5q0 -37 -59 -84t-131 -47q-48 0 -98 21t-94 42t-77 21q-25 0 -90 -56q-7 -5 -10 -8z" />
    <glyph glyph-name="Odieresis" unicode="&#xd6;" horiz-adv-x="1480" 
d="M741 -18q-295 0 -469 181t-174 527q0 139 34.5 255t94 197.5t141 138t176 83.5t197.5 27t197.5 -27t176 -83.5t141 -138t94 -197.5t34.5 -255q0 -174 -49.5 -310.5t-137 -222.5t-203.5 -130.5t-253 -44.5zM741 178q87 0 159.5 28.5t130.5 87t91 159t33 233.5
q0 134 -34.5 234.5t-94 157.5t-131 84.5t-154.5 27.5q-84 0 -155.5 -27.5t-131 -84.5t-94 -157.5t-34.5 -234.5t31 -233.5t88 -158.5t131 -87.5t165 -28.5zM555 1462q-119 0 -119 133q0 67 30.5 101.5t88.5 34.5q59 0 93 -35t34 -101q0 -133 -127 -133zM905 1462
q-121 0 -121 133q0 136 121 136q58 0 91.5 -35t33.5 -101q0 -133 -125 -133z" />
    <glyph glyph-name="multiply" unicode="&#xd7;" horiz-adv-x="1036" 
d="M805 305q-19 0 -41 19l-250 249l-244 -241q-16 -19 -37 -19q-22 0 -38 19l-66 65q-16 13 -16 35q-4 21 18 39l242 244l-242 241q-18 18 -18 41q0 22 16 35l64 66q19 16 34 16q21 0 41 -20l242 -242l244 242q14 14 39 18q17 0 36 -16l66 -66q16 -16 16 -39q0 -21 -18 -39
l-242 -241l250 -252q21 -18 21 -37q0 -16 -19 -35l-65 -65q-17 -17 -33 -17z" />
    <glyph glyph-name="Oslash" unicode="&#xd8;" horiz-adv-x="1482" 
d="M1174 1341l-39 -75q117 -88 183 -233.5t66 -342.5q0 -174 -49.5 -310.5t-137 -222.5t-203.5 -130.5t-253 -44.5q-119 0 -231 32l-14 -26q-8 -15 -17.5 -23.5t-36.5 -15t-71 -6.5q-59 0 -80 14t-21 41q0 15 15 41l37 76q-224 183 -224 575q0 139 34.5 255t94 197.5
t141 138t176 83.5t197.5 27t205 -31l12 26q9 15 18 23t36 15.5t71 7.5q60 0 80.5 -13.5t20.5 -42.5q0 -18 -10 -35zM741 178q87 0 159.5 28.5t130.5 87t91 159t33 233.5q0 249 -119 381l-436 -870q68 -19 141 -19zM326 686q0 -238 98 -367l430 857q-52 14 -113 14
q-84 0 -155.5 -27.5t-131 -84.5t-94 -157.5t-34.5 -234.5z" />
    <glyph glyph-name="Ugrave" unicode="&#xd9;" horiz-adv-x="1386" 
d="M692 -18q-136 0 -240.5 41t-169 114.5t-96.5 169t-32 209.5v821q0 11 8 18t33 12t69 5q113 0 113 -35v-770q0 -189 78 -289t237 -100q160 0 239 100t79 289v770q0 35 110 35q113 0 113 -35v-821q0 -114 -32.5 -210t-97.5 -169t-170 -114t-241 -41zM817 1417q-13 0 -39 17
q-35 23 -133 94.5t-117 89.5q-20 17 -20 35q0 24 43 68t65 44q17 0 37 -20q7 -8 56 -62.5t91 -102t56 -64.5q21 -21 21 -37q0 -12 -24 -37t-36 -25z" />
    <glyph glyph-name="Uacute" unicode="&#xda;" horiz-adv-x="1386" 
d="M692 -18q-136 0 -240.5 41t-169 114.5t-96.5 169t-32 209.5v821q0 11 8 18t33 12t69 5q113 0 113 -35v-770q0 -189 78 -289t237 -100q160 0 239 100t79 289v770q0 35 110 35q113 0 113 -35v-821q0 -114 -32.5 -210t-97.5 -169t-170 -114t-241 -41zM567 1458q-13 0 -36 25
t-23 37q0 14 18 36q15 18 203 230q24 20 37 20q24 0 67.5 -44t43.5 -68q0 -18 -21 -35q-19 -18 -117 -89.5t-133 -94.5q-30 -17 -39 -17z" />
    <glyph glyph-name="Ucircumflex" unicode="&#xdb;" horiz-adv-x="1386" 
d="M692 -18q-136 0 -240.5 41t-169 114.5t-96.5 169t-32 209.5v821q0 11 8 18t33 12t69 5q113 0 113 -35v-770q0 -189 78 -289t237 -100q160 0 239 100t79 289v770q0 35 110 35q113 0 113 -35v-821q0 -114 -32.5 -210t-97.5 -169t-170 -114t-241 -41zM887 1440q-16 0 -35 16
l-162 148l-153 -146q-20 -16 -37 -16q-18 0 -25 10l-61 55q-19 19 -19 37q0 14 15 29l202 186q20 17 34.5 22t45.5 5q33 0 48 -5.5t34 -21.5l203 -186q14 -14 14 -31t-18 -35l-58 -55q-12 -12 -28 -12z" />
    <glyph glyph-name="Udieresis" unicode="&#xdc;" horiz-adv-x="1386" 
d="M692 -18q-136 0 -240.5 41t-169 114.5t-96.5 169t-32 209.5v821q0 11 8 18t33 12t69 5q113 0 113 -35v-770q0 -189 78 -289t237 -100q160 0 239 100t79 289v770q0 35 110 35q113 0 113 -35v-821q0 -114 -32.5 -210t-97.5 -169t-170 -114t-241 -41zM514 1483
q-119 0 -119 133q0 135 119 135q59 0 93 -34.5t34 -100.5q0 -133 -127 -133zM864 1483q-121 0 -121 133q0 135 121 135q58 0 91.5 -34.5t33.5 -100.5q0 -133 -125 -133z" />
    <glyph glyph-name="Yacute" unicode="&#xdd;" horiz-adv-x="1183" 
d="M592 0q-111 0 -111 35v530q0 7 -2 16.5t-4 14.5l-2 6l-420 707q-10 20 -10 24q-1 10 9 18.5t38.5 14.5t71.5 6q110 0 129 -35l301 -526l301 526q19 35 129 35q44 0 73 -6t39 -14.5t9 -18.5l-13 -26l-421 -705q-7 -19 -7 -35v-532q0 -35 -110 -35zM467 1427q-13 0 -36 25
t-23 37q0 15 18 37q15 17 57 65t90.5 102t55.5 62q25 21 37 21q23 0 66.5 -44t43.5 -69q0 -18 -20 -35q-19 -18 -117 -89.5t-133 -94.5q-30 -17 -39 -17z" />
    <glyph glyph-name="Thorn" unicode="&#xde;" horiz-adv-x="960" 
d="M223 0q-51 0 -51 53v1280q0 25 13.5 40.5t37.5 15.5h94q25 0 39.5 -15.5t14.5 -40.5v-239q70 34 145 34q168 0 275.5 -103.5t107.5 -291.5q0 -99 -32.5 -181t-87 -133.5t-123.5 -79.5t-144 -28t-141 27v-285q0 -22 -13.5 -37.5t-40.5 -15.5h-94zM514 952
q-58 0 -100.5 -22t-42.5 -60v-327q0 -21 28 -34t56.5 -16.5t56.5 -3.5q91 0 146 65t55 177q0 114 -56 167.5t-143 53.5z" />
    <glyph glyph-name="germandbls" unicode="&#xdf;" horiz-adv-x="1226" 
d="M395 932v-895q0 -37 -110 -37q-111 0 -111 37v909q0 194 116 319.5t300 125.5q175 0 276 -95t101 -235q0 -73 -24.5 -137t-48.5 -103t-24 -51q0 -9 18.5 -24t57.5 -43t68 -52q143 -129 143 -291q0 -174 -102 -275t-256 -101q-53 0 -109 16.5t-95 39t-64 44.5t-25 35
q0 25 46.5 76t68.5 51q13 0 39 -19t63 -38t76 -19q65 0 108 48t43 128q0 72 -39 122.5t-106 98.5q-14 10 -46 31t-45.5 31t-32.5 25.5t-26.5 28t-7.5 24.5q0 10 4 21.5t7.5 19t13.5 25l14 24.5q25 43 37 66.5t25.5 66.5t13.5 82q0 78 -46 128t-134 50q-94 0 -140.5 -67
t-46.5 -191z" />
    <glyph glyph-name="agrave" unicode="&#xe0;" horiz-adv-x="1128" 
d="M299 305q0 -79 54.5 -118t142.5 -37q83 0 150 40t67 76v269q0 20 -21 20q-22 0 -78 -16q-9 -3 -44.5 -13.5t-49 -15t-45.5 -16t-47 -20t-40 -22.5t-37 -28t-26.5 -32.5t-20 -40t-5.5 -46.5zM918 -16q-42 0 -78.5 14.5t-57.5 35t-33 37t-14 25.5q-156 -114 -327 -114
q-149 0 -242.5 77t-93.5 222q0 54 14.5 99.5t37 79t62.5 63t76.5 49t96 40t104 32.5t115.5 30q69 16 99 31t30 38q0 67 -54 106.5t-153 39.5q-72 0 -140 -23t-111 -46t-54 -23q-21 0 -21 26q0 48 31 129q17 35 115 73t208 38q217 0 311.5 -97t94.5 -300v-422q0 -46 18 -67
t56 -23q2 -2 49 -2q20 0 20 -17q0 -34 -54 -92.5t-105 -58.5zM688 1130q-14 0 -39 17q-35 23 -133 94.5t-117 89.5q-20 17 -20 35q0 24 43 68.5t65 44.5q16 0 37 -21q7 -8 56 -62.5t91 -102t56 -64.5q21 -21 21 -37q0 -12 -24 -37t-36 -25z" />
    <glyph glyph-name="aacute" unicode="&#xe1;" horiz-adv-x="1128" 
d="M299 305q0 -79 54.5 -118t142.5 -37q83 0 150 40t67 76v269q0 20 -21 20q-22 0 -78 -16q-9 -3 -44.5 -13.5t-49 -15t-45.5 -16t-47 -20t-40 -22.5t-37 -28t-26.5 -32.5t-20 -40t-5.5 -46.5zM918 -16q-42 0 -78.5 14.5t-57.5 35t-33 37t-14 25.5q-156 -114 -327 -114
q-149 0 -242.5 77t-93.5 222q0 54 14.5 99.5t37 79t62.5 63t76.5 49t96 40t104 32.5t115.5 30q69 16 99 31t30 38q0 67 -54 106.5t-153 39.5q-72 0 -140 -23t-111 -46t-54 -23q-21 0 -21 26q0 48 31 129q17 35 115 73t208 38q217 0 311.5 -97t94.5 -300v-422q0 -46 18 -67
t56 -23q2 -2 49 -2q20 0 20 -17q0 -34 -54 -92.5t-105 -58.5zM438 1137q-13 0 -36 24.5t-23 36.5q0 15 18 37q15 17 57 65t90.5 102t55.5 62q25 21 37 21q23 0 67 -44t44 -69q0 -18 -21 -35q-19 -18 -117 -89.5t-133 -94.5q-28 -16 -39 -16z" />
    <glyph glyph-name="acircumflex" unicode="&#xe2;" horiz-adv-x="1128" 
d="M918 -16q-42 0 -78.5 14.5t-57.5 35t-33 37t-14 25.5q-156 -114 -327 -114q-149 0 -242.5 77t-93.5 222q0 54 14.5 99.5t37 79t62.5 63t76.5 49t96 40t104 32.5t115.5 30q69 16 99 31t30 38q0 67 -54 106.5t-153 39.5q-72 0 -140 -23t-111 -46t-54 -23q-21 0 -21 26
q0 48 31 129q17 35 115 73t208 38q217 0 311.5 -97t94.5 -300v-422q0 -46 18 -67t56 -23q2 -2 49 -2q20 0 20 -17q0 -34 -54 -92.5t-105 -58.5zM299 305q0 -79 54.5 -118t142.5 -37q83 0 150 40t67 76v269q0 20 -21 20q-22 0 -78 -16q-9 -3 -44.5 -13.5t-49 -15t-45.5 -16
t-47 -20t-40 -22.5t-37 -28t-26.5 -32.5t-20 -40t-5.5 -46.5zM750 1155q-16 0 -35 16l-162 148l-154 -145q-21 -17 -37 -17t-24 10l-62 56q-18 18 -18 37q0 14 14 28l203 187q20 17 34.5 21.5t45.5 4.5q34 0 49 -5t33 -21l203 -187q14 -14 14 -31q0 -16 -18 -34l-58 -56
q-12 -12 -28 -12z" />
    <glyph glyph-name="atilde" unicode="&#xe3;" horiz-adv-x="1128" 
d="M299 305q0 -79 54.5 -118t142.5 -37q83 0 150 40t67 76v269q0 20 -21 20q-22 0 -78 -16q-9 -3 -44.5 -13.5t-49 -15t-45.5 -16t-47 -20t-40 -22.5t-37 -28t-26.5 -32.5t-20 -40t-5.5 -46.5zM918 -16q-42 0 -78.5 14.5t-57.5 35t-33 37t-14 25.5q-156 -114 -327 -114
q-149 0 -242.5 77t-93.5 222q0 54 14.5 99.5t37 79t62.5 63t76.5 49t96 40t104 32.5t115.5 30q69 16 99 31t30 38q0 67 -54 106.5t-153 39.5q-72 0 -140 -23t-111 -46t-54 -23q-21 0 -21 26q0 48 31 129q17 35 115 73t208 38q217 0 311.5 -97t94.5 -300v-422q0 -46 18 -67
t56 -23q2 -2 49 -2q20 0 20 -17q0 -34 -54 -92.5t-105 -58.5zM332 1161q-15 -12 -25 -12q-16 0 -54 41.5t-38 54.5q0 18 21 39q35 42 86.5 68t107.5 26q45 0 96 -21.5t93 -43t67 -21.5q43 0 96 66q9 12 19 12q14 0 52 -41.5t38 -56.5q0 -37 -59.5 -84t-131.5 -47
q-48 0 -97.5 21t-93.5 42t-77 21q-25 0 -90 -56q-7 -5 -10 -8z" />
    <glyph glyph-name="adieresis" unicode="&#xe4;" horiz-adv-x="1128" 
d="M299 305q0 -79 54.5 -118t142.5 -37q83 0 150 40t67 76v269q0 20 -21 20q-22 0 -78 -16q-9 -3 -44.5 -13.5t-49 -15t-45.5 -16t-47 -20t-40 -22.5t-37 -28t-26.5 -32.5t-20 -40t-5.5 -46.5zM918 -16q-42 0 -78.5 14.5t-57.5 35t-33 37t-14 25.5q-156 -114 -327 -114
q-149 0 -242.5 77t-93.5 222q0 54 14.5 99.5t37 79t62.5 63t76.5 49t96 40t104 32.5t115.5 30q69 16 99 31t30 38q0 67 -54 106.5t-153 39.5q-72 0 -140 -23t-111 -46t-54 -23q-21 0 -21 26q0 48 31 129q17 35 115 73t208 38q217 0 311.5 -97t94.5 -300v-422q0 -46 18 -67
t56 -23q2 -2 49 -2q20 0 20 -17q0 -34 -54 -92.5t-105 -58.5zM362 1147q-118 0 -118 133q0 135 118 135q59 0 93 -34.5t34 -100.5q0 -133 -127 -133zM713 1147q-121 0 -121 133q0 135 121 135q58 0 91.5 -34.5t33.5 -100.5q0 -133 -125 -133z" />
    <glyph glyph-name="aring" unicode="&#xe5;" horiz-adv-x="1128" 
d="M299 305q0 -79 54.5 -118t142.5 -37q83 0 150 40t67 76v269q0 20 -21 20q-22 0 -78 -16q-9 -3 -44.5 -13.5t-49 -15t-45.5 -16t-47 -20t-40 -22.5t-37 -28t-26.5 -32.5t-20 -40t-5.5 -46.5zM918 -16q-42 0 -78.5 14.5t-57.5 35t-33 37t-14 25.5q-156 -114 -327 -114
q-149 0 -242.5 77t-93.5 222q0 54 14.5 99.5t37 79t62.5 63t76.5 49t96 40t104 32.5t115.5 30q69 16 99 31t30 38q0 67 -54 106.5t-153 39.5q-72 0 -140 -23t-111 -46t-54 -23q-21 0 -21 26q0 48 31 129q17 35 115 73t208 38q217 0 311.5 -97t94.5 -300v-422q0 -46 18 -67
t56 -23q2 -2 49 -2q20 0 20 -17q0 -34 -54 -92.5t-105 -58.5zM532 1157q-85 0 -143.5 57.5t-58.5 139.5q0 83 59.5 141.5t142.5 58.5q85 0 146 -58.5t61 -141.5q0 -81 -61 -139t-146 -58zM532 1450q-35 0 -59 -28.5t-24 -67.5t23.5 -66.5t59.5 -27.5q38 0 62 27.5t24 66.5
t-25 67.5t-61 28.5z" />
    <glyph glyph-name="ae" unicode="&#xe6;" horiz-adv-x="1634" 
d="M842 133q-63 -55 -183.5 -103t-248.5 -48q-145 0 -240.5 82.5t-95.5 228.5q0 53 13.5 96.5t34.5 76t59 61t73.5 47.5t93 38.5t101.5 32t114 29.5q69 16 99 31t30 38q0 67 -54 106.5t-153 39.5q-69 0 -129 -20t-101 -43t-50 -25q-31 -6 -31 22q0 43 33 129q16 36 107 73.5
t200 37.5q253 0 336 -148q65 74 154.5 111t187.5 37q186 0 276.5 -79.5t90.5 -211.5q0 -84 -38.5 -152t-97.5 -111t-141.5 -73.5t-159.5 -45t-161 -21.5q22 -105 96.5 -156t183.5 -51q57 0 109 12.5t82 28t56 29.5t36 16q14 5 23 -0.5t9 -20.5q0 -44 -34 -127
q-22 -37 -111.5 -77.5t-198.5 -40.5q-239 0 -370 151zM307 311q0 -158 187 -155q79 0 142.5 36.5t63.5 65.5v268q0 23 -22 23q-18 0 -78 -17q-130 -35 -175 -56q-118 -56 -118 -165zM1196 913q-111 0 -179 -99t-69 -312q66 10 115 21t101.5 33t86 51t55 75.5t21.5 105.5
q0 58 -34.5 91.5t-96.5 33.5z" />
    <glyph glyph-name="ccedilla" unicode="&#xe7;" horiz-adv-x="1062" 
d="M602 -506q-70 0 -125 26t-55 46q0 16 19.5 39.5t29.5 23.5q1 0 33.5 -15t68.5 -15q50 0 77.5 29.5t27.5 74.5q0 31 -19 57.5t-42.5 41t-42.5 29t-19 24.5v125v6q-96 9 -176 43t-144 94.5t-100.5 157.5t-36.5 221q0 138 43.5 247t118.5 176.5t171.5 102.5t207.5 35
q71 0 132 -12t97.5 -30t57 -37.5t20.5 -35.5q0 -30 -40.5 -85.5t-65.5 -55.5q-8 0 -26.5 12t-40.5 27t-63.5 27t-88.5 12q-51 0 -97.5 -20t-88 -61t-66.5 -115.5t-25 -172.5q0 -178 88 -266t232 -88q59 0 113.5 14t85 31t57 31t36.5 14q25 0 25 -25q0 -54 -37 -127
q-16 -31 -88 -67.5t-166 -46.5v-6v-93q144 -68 144 -184q0 -91 -72.5 -150t-159.5 -59z" />
    <glyph glyph-name="egrave" unicode="&#xe8;" horiz-adv-x="1060" 
d="M625 -18q-110 0 -203 29.5t-166.5 88.5t-115.5 157.5t-42 227.5q0 119 29 217t78 164t114.5 111t137 65.5t147.5 20.5q182 0 279.5 -81t97.5 -208q0 -81 -41.5 -148.5t-106.5 -111.5t-151 -75.5t-169 -46t-165 -17.5q28 -110 109.5 -161.5t195.5 -51.5q56 0 108 12.5
t81.5 28t55.5 29.5t36 16q14 5 23.5 -0.5t9.5 -20.5q0 -41 -35 -127q-19 -36 -109 -77t-198 -41zM612 915q-54 0 -100.5 -23t-85.5 -70t-62.5 -129t-25.5 -191q78 5 150 24.5t133 53t98 87.5t37 119q0 56 -40 92.5t-104 36.5zM717 1149q-15 0 -39 16q-35 22 -132.5 94.5
t-117.5 90.5q-20 17 -20 34q0 24 43 68.5t65 44.5q17 0 37 -20q197 -222 203 -230q20 -20 20 -37q0 -12 -23.5 -36.5t-35.5 -24.5z" />
    <glyph glyph-name="eacute" unicode="&#xe9;" horiz-adv-x="1060" 
d="M625 -18q-110 0 -203 29.5t-166.5 88.5t-115.5 157.5t-42 227.5q0 119 29 217t78 164t114.5 111t137 65.5t147.5 20.5q182 0 279.5 -81t97.5 -208q0 -81 -41.5 -148.5t-106.5 -111.5t-151 -75.5t-169 -46t-165 -17.5q28 -110 109.5 -161.5t195.5 -51.5q56 0 108 12.5
t81.5 28t55.5 29.5t36 16q14 5 23.5 -0.5t9.5 -20.5q0 -41 -35 -127q-19 -36 -109 -77t-198 -41zM612 915q-54 0 -100.5 -23t-85.5 -70t-62.5 -129t-25.5 -191q78 5 150 24.5t133 53t98 87.5t37 119q0 56 -40 92.5t-104 36.5zM471 1139q-13 0 -36 24.5t-23 36.5q0 15 18 37
q15 17 57 65t90.5 102t55.5 62q25 21 37 21q23 0 66.5 -44t43.5 -69q0 -18 -20 -35q-19 -18 -117 -89.5t-133 -94.5q-28 -16 -39 -16z" />
    <glyph glyph-name="ecircumflex" unicode="&#xea;" horiz-adv-x="1060" 
d="M625 -18q-110 0 -203 29.5t-166.5 88.5t-115.5 157.5t-42 227.5q0 119 29 217t78 164t114.5 111t137 65.5t147.5 20.5q182 0 279.5 -81t97.5 -208q0 -81 -41.5 -148.5t-106.5 -111.5t-151 -75.5t-169 -46t-165 -17.5q28 -110 109.5 -161.5t195.5 -51.5q56 0 108 12.5
t81.5 28t55.5 29.5t36 16q14 5 23.5 -0.5t9.5 -20.5q0 -41 -35 -127q-19 -36 -109 -77t-198 -41zM612 915q-54 0 -100.5 -23t-85.5 -70t-62.5 -129t-25.5 -191q78 5 150 24.5t133 53t98 87.5t37 119q0 56 -40 92.5t-104 36.5zM805 1126q-15 0 -35 17l-162 147l-153 -145
q-21 -17 -37 -17q-17 0 -25 11l-61 55q-19 19 -19 37q0 14 15 29l202 186q20 17 34.5 22t45.5 5q33 0 48 -5.5t34 -21.5l203 -186q14 -14 14 -31t-18 -35l-57 -55q-13 -13 -29 -13z" />
    <glyph glyph-name="edieresis" unicode="&#xeb;" horiz-adv-x="1060" 
d="M625 -18q-110 0 -203 29.5t-166.5 88.5t-115.5 157.5t-42 227.5q0 119 29 217t78 164t114.5 111t137 65.5t147.5 20.5q182 0 279.5 -81t97.5 -208q0 -81 -41.5 -148.5t-106.5 -111.5t-151 -75.5t-169 -46t-165 -17.5q28 -110 109.5 -161.5t195.5 -51.5q56 0 108 12.5
t81.5 28t55.5 29.5t36 16q14 5 23.5 -0.5t9.5 -20.5q0 -41 -35 -127q-19 -36 -109 -77t-198 -41zM612 915q-54 0 -100.5 -23t-85.5 -70t-62.5 -129t-25.5 -191q78 5 150 24.5t133 53t98 87.5t37 119q0 56 -40 92.5t-104 36.5zM793 1184q-121 0 -121 133q0 135 121 135
q58 0 91.5 -34.5t33.5 -100.5q0 -133 -125 -133zM442 1184q-118 0 -118 133q0 135 118 135q59 0 93 -34.5t34 -100.5q0 -133 -127 -133z" />
    <glyph glyph-name="igrave" unicode="&#xec;" 
d="M131 209v799q0 36 111 36q110 0 110 -36v-754q0 -50 19 -71t61 -21q47 0 47 -2q8 -3 8 -10q0 -43 -53.5 -97.5t-105.5 -60.5q-92 0 -144.5 58.5t-52.5 158.5zM369 1141q-15 0 -39 16q-35 23 -133 94.5t-117 89.5q-21 17 -21 35q0 24 43.5 68.5t65.5 44.5q16 0 37 -21
q7 -8 56 -62.5t91 -102t56 -64.5q20 -20 20 -37q0 -12 -23.5 -36.5t-35.5 -24.5z" />
    <glyph glyph-name="iacute" unicode="&#xed;" 
d="M131 209v799q0 36 111 36q110 0 110 -36v-754q0 -50 19 -71t61 -21q47 0 47 -2q8 -3 8 -10q0 -43 -53.5 -97.5t-105.5 -60.5q-92 0 -144.5 58.5t-52.5 158.5zM111 1147q-13 0 -36.5 24.5t-23.5 36.5q0 14 19 37q37 43 202 230q24 20 37 20q23 0 67 -44t44 -69
q0 -16 -21 -34q-20 -18 -117 -90.5t-132 -94.5q-28 -16 -39 -16z" />
    <glyph glyph-name="icircumflex" unicode="&#xee;" 
d="M131 209v799q0 36 111 36q110 0 110 -36v-754q0 -50 19 -71t61 -21q47 0 47 -2q8 -3 8 -10q0 -43 -53.5 -97.5t-105.5 -60.5q-92 0 -144.5 58.5t-52.5 158.5zM432 1128q-15 0 -35 17l-161 147l-154 -145q-21 -17 -37 -17q-17 0 -25 11l-61 55q-18 18 -18 37q0 15 14 29
l203 186q20 17 34.5 22t45.5 5q33 0 47.5 -5.5t33.5 -21.5l203 -186q15 -15 15 -31t-19 -35l-57 -55q-13 -13 -29 -13z" />
    <glyph glyph-name="idieresis" unicode="&#xef;" 
d="M131 209v799q0 36 111 36q110 0 110 -36v-754q0 -50 19 -71t61 -21q47 0 47 -2q8 -3 8 -10q0 -43 -53.5 -97.5t-105.5 -60.5q-92 0 -144.5 58.5t-52.5 158.5zM70 1139q-119 0 -119 133q0 135 119 135q59 0 93 -34.5t34 -100.5q0 -133 -127 -133zM420 1139
q-121 0 -121 133q0 135 121 135q58 0 91.5 -34.5t33.5 -100.5q0 -133 -125 -133z" />
    <glyph glyph-name="eth" unicode="&#xf0;" horiz-adv-x="1093" 
d="M217 1040l178 111q-66 74 -164 176q-10 17 -10 27q0 37 109 37q100 0 135 -35q4 -5 17.5 -18.5l36.5 -36.5l44 -44l182 115q32 23 74 -53q46 -72 17 -90l-158 -99q323 -383 323 -651q0 -225 -128.5 -360t-342.5 -135q-194 0 -313 112t-119 269q0 65 24 127.5t60.5 110.5
t87.5 93t98 75.5t99.5 58.5t83 41.5t57.5 23.5q-75 98 -100 127l-201 -125q-30 -19 -74 53q-46 71 -16 90zM782 489q0 112 -80 256q-35 -15 -69.5 -31.5t-95 -54t-104.5 -76.5t-77.5 -96.5t-33.5 -115.5q0 -92 57 -147.5t156 -55.5q104 0 175.5 89t71.5 232z" />
    <glyph glyph-name="ntilde" unicode="&#xf1;" horiz-adv-x="1257" 
d="M842 201v495q0 189 -180 189q-63 0 -129 -39t-104 -85t-38 -73v-651q0 -37 -110 -37q-111 0 -111 37v760q0 45 -15 78t-29.5 50.5t-14.5 26.5q0 24 67.5 66.5t102.5 42.5q73 0 102 -131l6 -25q189 158 367 158q139 0 223 -78.5t84 -202.5v-536q0 -50 19 -71t61 -21
q47 0 47 -2q8 -3 8 -11q0 -43 -54 -97t-106 -60q-92 0 -144 58.5t-52 158.5zM485 1192q-15 -12 -24 -12q-16 0 -54 41.5t-38 54.5q0 19 20 39q35 42 87 68t108 26q45 0 96 -21.5t93 -43t67 -21.5q43 0 96 66q9 12 18 12q14 0 52 -41.5t38 -56.5q0 -37 -59 -84.5t-131 -47.5
q-48 0 -97.5 21t-93.5 42t-77 21q-27 0 -101 -63z" />
    <glyph glyph-name="ograve" unicode="&#xf2;" horiz-adv-x="1191" 
d="M598 -16q-101 0 -190 32.5t-160.5 96.5t-113.5 170t-42 243q0 109 27.5 199.5t75 152t112.5 104t138 62t153 19.5q79 0 151.5 -19.5t136.5 -62t111.5 -104t75 -152t27.5 -199.5q0 -136 -41.5 -242.5t-113 -170.5t-159.5 -96.5t-188 -32.5zM598 145q114 0 188 94t74 291
q0 196 -73.5 288.5t-188.5 92.5q-116 0 -191 -92.5t-75 -288.5q0 -101 21.5 -177t59 -120.5t84 -66t101.5 -21.5zM721 1182q-15 0 -39 16q-35 23 -133 94.5t-117 89.5q-20 17 -20 35q0 24 43 68.5t65 44.5q16 0 37 -21q7 -8 56 -62.5t91 -102t56 -64.5q20 -20 20 -37
q0 -12 -23.5 -36.5t-35.5 -24.5z" />
    <glyph glyph-name="oacute" unicode="&#xf3;" horiz-adv-x="1191" 
d="M598 -16q-101 0 -190 32.5t-160.5 96.5t-113.5 170t-42 243q0 109 27.5 199.5t75 152t112.5 104t138 62t153 19.5q79 0 151.5 -19.5t136.5 -62t111.5 -104t75 -152t27.5 -199.5q0 -136 -41.5 -242.5t-113 -170.5t-159.5 -96.5t-188 -32.5zM598 145q114 0 188 94t74 291
q0 196 -73.5 288.5t-188.5 92.5q-116 0 -191 -92.5t-75 -288.5q0 -101 21.5 -177t59 -120.5t84 -66t101.5 -21.5zM471 1182q-13 0 -36 24.5t-23 36.5q0 15 18 37q15 17 57 65t90.5 102t55.5 62q25 21 37 21q23 0 66.5 -44t43.5 -69q0 -18 -20 -35q-19 -18 -117 -89.5
t-133 -94.5q-28 -16 -39 -16z" />
    <glyph glyph-name="ocircumflex" unicode="&#xf4;" horiz-adv-x="1191" 
d="M598 -16q-101 0 -190 32.5t-160.5 96.5t-113.5 170t-42 243q0 109 27.5 199.5t75 152t112.5 104t138 62t153 19.5q79 0 151.5 -19.5t136.5 -62t111.5 -104t75 -152t27.5 -199.5q0 -136 -41.5 -242.5t-113 -170.5t-159.5 -96.5t-188 -32.5zM598 145q114 0 188 94t74 291
q0 196 -73.5 288.5t-188.5 92.5q-116 0 -191 -92.5t-75 -288.5q0 -101 21.5 -177t59 -120.5t84 -66t101.5 -21.5zM788 1128q-14 0 -34 17l-162 147l-154 -145q-21 -17 -37 -17t-24 11l-62 55q-18 18 -18 37q0 15 14 29l203 186q20 17 34.5 22t45.5 5q33 0 48 -5.5t34 -21.5
l203 -186q14 -14 14 -31q0 -16 -19 -35l-57 -55q-13 -13 -29 -13z" />
    <glyph glyph-name="otilde" unicode="&#xf5;" horiz-adv-x="1191" 
d="M598 -16q-101 0 -190 32.5t-160.5 96.5t-113.5 170t-42 243q0 109 27.5 199.5t75 152t112.5 104t138 62t153 19.5q79 0 151.5 -19.5t136.5 -62t111.5 -104t75 -152t27.5 -199.5q0 -136 -41.5 -242.5t-113 -170.5t-159.5 -96.5t-188 -32.5zM598 145q114 0 188 94t74 291
q0 196 -73.5 288.5t-188.5 92.5q-116 0 -191 -92.5t-75 -288.5q0 -101 21.5 -177t59 -120.5t84 -66t101.5 -21.5zM375 1186q-15 -12 -25 -12q-16 0 -54 41.5t-38 54.5q0 18 21 39q35 42 86.5 68t107.5 26q45 0 96 -21.5t93 -43t67 -21.5q44 0 96 65q10 13 19 13q14 0 52 -42
t38 -57q0 -37 -59.5 -84t-131.5 -47q-48 0 -97.5 21t-93.5 42t-77 21q-13 0 -31.5 -10.5t-29.5 -19.5t-39 -33z" />
    <glyph glyph-name="odieresis" unicode="&#xf6;" horiz-adv-x="1191" 
d="M598 -16q-101 0 -190 32.5t-160.5 96.5t-113.5 170t-42 243q0 109 27.5 199.5t75 152t112.5 104t138 62t153 19.5q79 0 151.5 -19.5t136.5 -62t111.5 -104t75 -152t27.5 -199.5q0 -136 -41.5 -242.5t-113 -170.5t-159.5 -96.5t-188 -32.5zM598 145q114 0 188 94t74 291
q0 196 -73.5 288.5t-188.5 92.5q-116 0 -191 -92.5t-75 -288.5q0 -101 21.5 -177t59 -120.5t84 -66t101.5 -21.5zM418 1159q-119 0 -119 133q0 135 119 135q59 0 93 -34.5t34 -100.5q0 -133 -127 -133zM768 1159q-121 0 -121 133q0 135 121 135q58 0 91.5 -34.5t33.5 -100.5
q0 -133 -125 -133z" />
    <glyph glyph-name="divide" unicode="&#xf7;" horiz-adv-x="1083" 
d="M535 846q-50 0 -86.5 34.5t-36.5 86.5q0 53 36 86.5t87 33.5t86.5 -33.5t35.5 -86.5q0 -52 -36 -86.5t-86 -34.5zM922 596h-766q-25 0 -41.5 14t-16.5 37v49q0 24 15.5 38t42.5 14h766q55 0 55 -52v-49q0 -24 -14.5 -37.5t-40.5 -13.5zM535 256q-48 0 -84.5 35t-36.5 86
t36.5 86t84.5 35q51 0 86.5 -34.5t35.5 -86.5t-35.5 -86.5t-86.5 -34.5z" />
    <glyph glyph-name="oslash" unicode="&#xf8;" horiz-adv-x="1191" 
d="M985 1042l-49 -98q164 -147 164 -418q0 -136 -41.5 -242.5t-113 -170.5t-159.5 -96.5t-188 -32.5q-66 0 -135 16l-6 -16q-8 -15 -17.5 -23.5t-36.5 -15t-71 -6.5q-60 0 -80.5 14t-20.5 43q0 8 11 35l28 59q-178 148 -178 436q0 109 27.5 199.5t75 152t112.5 104t138 62
t153 19.5q73 0 147 -19l27 52q9 15 18 23t36 15t71 7q59 0 79.5 -16t20.5 -42q0 -14 -12 -41zM332 530q0 -145 41 -235l301 604q-37 12 -76 12q-116 0 -191 -92.5t-75 -288.5zM598 145q114 0 188 94t74 291q0 112 -31 203l-290 -581q31 -7 59 -7z" />
    <glyph glyph-name="ugrave" unicode="&#xf9;" horiz-adv-x="1193" 
d="M981 -16q-76 0 -125.5 39t-64.5 110q-35 -32 -56.5 -49t-66.5 -45.5t-97.5 -42.5t-111.5 -14q-151 0 -247.5 89t-96.5 238v699q0 36 110 36q45 0 70.5 -5t33 -12.5t7.5 -18.5v-641q0 -99 52.5 -149t150.5 -50q96 0 171.5 65.5t75.5 118.5v656q0 11 7.5 18.5t32.5 12.5
t69 5q45 0 70.5 -5t33 -12.5t7.5 -18.5v-762q0 -50 18.5 -71t60.5 -21q48 0 48 -2q8 -3 8 -11q0 -43 -54 -97t-106 -60zM674 1145q-15 0 -39 16q-35 22 -132.5 94.5t-117.5 90.5q-20 17 -20 34q0 24 43 68.5t65 44.5q17 0 37 -20q197 -222 203 -230q20 -20 20 -37
q0 -12 -23.5 -36.5t-35.5 -24.5z" />
    <glyph glyph-name="uacute" unicode="&#xfa;" horiz-adv-x="1193" 
d="M981 -16q-76 0 -125.5 39t-64.5 110q-35 -32 -56.5 -49t-66.5 -45.5t-97.5 -42.5t-111.5 -14q-151 0 -247.5 89t-96.5 238v699q0 36 110 36q45 0 70.5 -5t33 -12.5t7.5 -18.5v-641q0 -99 52.5 -149t150.5 -50q96 0 171.5 65.5t75.5 118.5v656q0 11 7.5 18.5t32.5 12.5
t69 5q45 0 70.5 -5t33 -12.5t7.5 -18.5v-762q0 -50 18.5 -71t60.5 -21q48 0 48 -2q8 -3 8 -11q0 -43 -54 -97t-106 -60zM492 1141q-13 0 -36.5 24.5t-23.5 36.5q0 14 19 37q18 21 202 229q25 21 37 21q23 0 67 -44t44 -69q0 -18 -21 -35q-19 -18 -117 -89.5t-133 -94.5
q-28 -16 -38 -16z" />
    <glyph glyph-name="ucircumflex" unicode="&#xfb;" horiz-adv-x="1193" 
d="M981 -16q-76 0 -125.5 39t-64.5 110q-35 -32 -56.5 -49t-66.5 -45.5t-97.5 -42.5t-111.5 -14q-151 0 -247.5 89t-96.5 238v699q0 36 110 36q45 0 70.5 -5t33 -12.5t7.5 -18.5v-641q0 -99 52.5 -149t150.5 -50q96 0 171.5 65.5t75.5 118.5v656q0 11 7.5 18.5t32.5 12.5
t69 5q45 0 70.5 -5t33 -12.5t7.5 -18.5v-762q0 -50 18.5 -71t60.5 -21q48 0 48 -2q8 -3 8 -11q0 -43 -54 -97t-106 -60zM762 1169q-15 0 -35 17l-162 147l-153 -145q-21 -17 -37 -17q-17 0 -25 11l-61 55q-19 19 -19 37q0 14 15 29l202 186q20 17 34.5 22t45.5 5
q33 0 48 -5.5t34 -21.5l203 -186q14 -14 14 -31t-18 -35l-57 -55q-13 -13 -29 -13z" />
    <glyph glyph-name="udieresis" unicode="&#xfc;" horiz-adv-x="1193" 
d="M981 -16q-76 0 -125.5 39t-64.5 110q-35 -32 -56.5 -49t-66.5 -45.5t-97.5 -42.5t-111.5 -14q-151 0 -247.5 89t-96.5 238v699q0 36 110 36q45 0 70.5 -5t33 -12.5t7.5 -18.5v-641q0 -99 52.5 -149t150.5 -50q96 0 171.5 65.5t75.5 118.5v656q0 11 7.5 18.5t32.5 12.5
t69 5q45 0 70.5 -5t33 -12.5t7.5 -18.5v-762q0 -50 18.5 -71t60.5 -21q48 0 48 -2q8 -3 8 -11q0 -43 -54 -97t-106 -60zM735 1159q-121 0 -121 133q0 135 121 135q58 0 91.5 -34.5t33.5 -100.5q0 -133 -125 -133zM385 1159q-119 0 -119 133q0 135 119 135q59 0 93 -34.5
t34 -100.5q0 -133 -127 -133z" />
    <glyph glyph-name="yacute" unicode="&#xfd;" horiz-adv-x="1150" 
d="M571 -496q-105 0 -201 34t-118 71q-35 78 -35 129q0 26 31 18q5 -2 52 -23t105 -35.5t125 -14.5q120 0 191.5 67t71.5 193v188q-3 -2 -25.5 -21t-38.5 -32t-48 -33t-61.5 -32t-70.5 -21.5t-82 -9.5q-150 0 -239 88.5t-89 238.5v699q0 11 7.5 18.5t32.5 12.5t69 5
q45 0 70 -5t32.5 -12.5t7.5 -18.5v-641q0 -199 189 -199q96 0 171 66.5t75 121.5v652q0 36 110 36q45 0 70.5 -5t33 -12.5t7.5 -18.5v-1071q0 -117 -53 -215t-155.5 -158t-234.5 -60zM483 1167q-13 0 -36 25t-23 37q0 15 18 37q15 17 57 65t90.5 102t55.5 62q25 21 37 21
q23 0 67 -44t44 -69q0 -17 -21 -35q-19 -18 -117 -89.5t-133 -94.5q-30 -17 -39 -17z" />
    <glyph glyph-name="thorn" unicode="&#xfe;" horiz-adv-x="1044" 
d="M319 -379h-94q-51 0 -51 53v1665q0 25 13.5 40.5t37.5 15.5h94q26 0 40 -15.5t14 -40.5v-417q72 32 168 32q189 0 300 -132t111 -341q0 -219 -111.5 -358t-305.5 -139q-99 0 -162 22v-332q0 -53 -54 -53zM375 694v-471q29 -53 149 -53q108 0 168 88.5t60 222.5
q0 129 -56 209t-157 80q-135 0 -164 -76z" />
    <glyph glyph-name="ydieresis" unicode="&#xff;" horiz-adv-x="1150" 
d="M571 -496q-105 0 -201 34t-118 71q-35 78 -35 129q0 26 31 18q5 -2 52 -23t105 -35.5t125 -14.5q120 0 191.5 67t71.5 193v188q-3 -2 -25.5 -21t-38.5 -32t-48 -33t-61.5 -32t-70.5 -21.5t-82 -9.5q-150 0 -239 88.5t-89 238.5v699q0 11 7.5 18.5t32.5 12.5t69 5
q45 0 70 -5t32.5 -12.5t7.5 -18.5v-641q0 -199 189 -199q96 0 171 66.5t75 121.5v652q0 36 110 36q45 0 70.5 -5t33 -12.5t7.5 -18.5v-1071q0 -117 -53 -215t-155.5 -158t-234.5 -60zM418 1178q-119 0 -119 133q0 135 119 135q59 0 93 -34.5t34 -100.5q0 -133 -127 -133z
M768 1178q-121 0 -121 133q0 135 121 135q58 0 91.5 -34.5t33.5 -100.5q0 -133 -125 -133z" />
    <glyph glyph-name="Amacron" unicode="&#x100;" horiz-adv-x="1359" 
d="M477 453h406q20 0 20 24l-203 551q-11 27 -20 27q-8 0 -21 -25l-202 -553q0 -24 20 -24zM948 272h-536q-28 0 -35 -20l-80 -217q-9 -21 -32.5 -28t-92.5 -7q-49 0 -75.5 3.5t-33.5 9.5t-6 16q0 6 17 57l471 1233q12 31 39 42t96 11q71 0 97.5 -11t37.5 -42l471 -1233
q17 -51 17 -57q1 -10 -5.5 -15.5t-32.5 -9.5t-75 -4q-70 0 -93.5 7t-31.5 28l-82 217q-8 20 -35 20zM911 1487h-462q-22 0 -37 14t-15 37v49q0 23 14.5 37t37.5 14h462q25 0 38.5 -14t13.5 -37v-49q0 -24 -13.5 -37.5t-38.5 -13.5z" />
    <glyph glyph-name="amacron" unicode="&#x101;" horiz-adv-x="1128" 
d="M299 305q0 -79 54.5 -118t142.5 -37q83 0 150 40t67 76v269q0 20 -21 20q-22 0 -78 -16q-9 -3 -44.5 -13.5t-49 -15t-45.5 -16t-47 -20t-40 -22.5t-37 -28t-26.5 -32.5t-20 -40t-5.5 -46.5zM918 -16q-42 0 -78.5 14.5t-57.5 35t-33 37t-14 25.5q-156 -114 -327 -114
q-149 0 -242.5 77t-93.5 222q0 54 14.5 99.5t37 79t62.5 63t76.5 49t96 40t104 32.5t115.5 30q69 16 99 31t30 38q0 67 -54 106.5t-153 39.5q-72 0 -140 -23t-111 -46t-54 -23q-21 0 -21 26q0 48 31 129q17 35 115 73t208 38q217 0 311.5 -97t94.5 -300v-422q0 -46 18 -67
t56 -23q2 -2 49 -2q20 0 20 -17q0 -34 -54 -92.5t-105 -58.5zM770 1167h-463q-22 0 -36.5 14.5t-14.5 37.5v49q0 23 14 37t37 14h463q24 0 37.5 -13.5t13.5 -37.5v-49q0 -24 -13.5 -38t-37.5 -14z" />
    <glyph glyph-name="Abreve" unicode="&#x102;" horiz-adv-x="1359" 
d="M477 453h406q20 0 20 24l-203 551q-11 27 -20 27q-8 0 -21 -25l-202 -553q0 -24 20 -24zM948 272h-536q-28 0 -35 -20l-80 -217q-9 -21 -32.5 -28t-92.5 -7q-49 0 -75.5 3.5t-33.5 9.5t-6 16q0 6 17 57l471 1233q12 31 39 42t96 11q71 0 97.5 -11t37.5 -42l471 -1233
q17 -51 17 -57q1 -10 -5.5 -15.5t-32.5 -9.5t-75 -4q-70 0 -93.5 7t-31.5 28l-82 217q-8 20 -35 20zM680 1468q-59 0 -115 28.5t-92 67.5t-58 75.5t-22 56.5q0 30 32 55t60 25q29 0 58 -50q68 -112 139 -112q67 0 137 110q16 27 28.5 39.5t26.5 12.5q29 0 61 -25t32 -55
q0 -20 -21.5 -56.5t-57.5 -75.5t-92.5 -67.5t-115.5 -28.5z" />
    <glyph glyph-name="abreve" unicode="&#x103;" horiz-adv-x="1128" 
d="M299 305q0 -79 54.5 -118t142.5 -37q83 0 150 40t67 76v269q0 20 -21 20q-22 0 -78 -16q-9 -3 -44.5 -13.5t-49 -15t-45.5 -16t-47 -20t-40 -22.5t-37 -28t-26.5 -32.5t-20 -40t-5.5 -46.5zM918 -16q-42 0 -78.5 14.5t-57.5 35t-33 37t-14 25.5q-156 -114 -327 -114
q-149 0 -242.5 77t-93.5 222q0 54 14.5 99.5t37 79t62.5 63t76.5 49t96 40t104 32.5t115.5 30q69 16 99 31t30 38q0 67 -54 106.5t-153 39.5q-72 0 -140 -23t-111 -46t-54 -23q-21 0 -21 26q0 48 31 129q17 35 115 73t208 38q217 0 311.5 -97t94.5 -300v-422q0 -46 18 -67
t56 -23q2 -2 49 -2q20 0 20 -17q0 -34 -54 -92.5t-105 -58.5zM524 1153q-59 0 -115 28.5t-91.5 67t-57.5 75t-22 56.5q0 30 32 55t60 25q17 0 29.5 -11.5t27.5 -37.5q69 -113 139 -113q68 0 138 111q31 51 55 51q29 0 60.5 -25t31.5 -55q0 -20 -21.5 -56.5t-57.5 -75
t-92.5 -67t-115.5 -28.5z" />
    <glyph glyph-name="Aogonek" unicode="&#x104;" horiz-adv-x="1359" 
d="M1229 -379q-86 0 -146.5 54.5t-60.5 142.5q0 92 100 184q-48 5 -57 33l-82 217q-8 20 -35 20h-536q-28 0 -35 -20l-80 -217q-9 -21 -32.5 -28t-92.5 -7q-49 0 -75.5 3.5t-33.5 9.5t-6 16q0 6 17 57l471 1233q12 31 39 42t96 11q71 0 97.5 -11t37.5 -42l471 -1233
q17 -51 17 -57v-2v-2v-5l-3 -4q-2 -3 -4 -4l-18 -18q-38 -32 -70 -78t-32 -92q0 -31 15 -48.5t42 -17.5q21 0 41 10.5t35 10.5q25 0 45 -27.5t20 -54.5q0 -33 -44.5 -54.5t-100.5 -21.5zM477 453h406q20 0 20 24l-203 551q-11 27 -20 27q-8 0 -21 -25l-202 -553
q0 -24 20 -24z" />
    <glyph glyph-name="aogonek" unicode="&#x105;" horiz-adv-x="1128" 
d="M901 -385q-86 0 -146.5 54.5t-60.5 142.5q0 104 119 198q-34 20 -55 46.5t-23 39.5q-156 -114 -327 -114q-149 0 -242.5 77t-93.5 222q0 54 14.5 99.5t37 79t62.5 63t76.5 49t96 40t104 32.5t115.5 30q69 16 99 31t30 38q0 67 -54 106.5t-153 39.5q-72 0 -140 -23
t-111 -46t-54 -23q-21 0 -21 26q0 48 31 129q17 35 115 73t208 38q217 0 311.5 -97t94.5 -300v-422q0 -46 18 -67t56 -23q2 -2 49 -2q20 0 20 -17q0 -27 -40 -75.5t-83 -67.5l-4 -4q-38 -32 -70 -78t-32 -92q0 -31 15 -48.5t42 -17.5q21 0 41 10.5t35 10.5q25 0 45.5 -27.5
t20.5 -54.5q0 -33 -44.5 -54.5t-101.5 -21.5zM299 305q0 -79 54.5 -118t142.5 -37q83 0 150 40t67 76v269q0 20 -21 20q-22 0 -78 -16q-9 -3 -44.5 -13.5t-49 -15t-45.5 -16t-47 -20t-40 -22.5t-37 -28t-26.5 -32.5t-20 -40t-5.5 -46.5z" />
    <glyph glyph-name="Cacute" unicode="&#x106;" horiz-adv-x="1357" 
d="M801 -18q-109 0 -210 25.5t-191 80.5t-157 134t-106 193.5t-39 252.5q0 137 38.5 255t105 202.5t155.5 145.5t191 90.5t211 29.5q79 0 148 -13.5t113.5 -34t77 -44t46.5 -42t14 -30.5q0 -26 -33.5 -71.5t-54.5 -45.5q-11 0 -35 11.5t-52 25.5t-85.5 25.5t-128.5 11.5
q-92 0 -174.5 -32t-148.5 -93t-105 -161t-39 -226q0 -105 27 -188.5t72.5 -138t109 -90.5t133.5 -51.5t150 -15.5q88 0 168 21t125 46t81 46t45 21q23 0 23 -27q0 -67 -37 -145q-11 -26 -69 -64t-161 -71t-208 -33zM659 1464q-13 0 -36 25t-23 37q0 15 18 37q15 17 57 65
t90.5 102t55.5 62q24 20 37 20q24 0 67.5 -44t43.5 -68q0 -18 -21 -35q-19 -18 -117 -89.5t-133 -94.5q-30 -17 -39 -17z" />
    <glyph glyph-name="cacute" unicode="&#x107;" horiz-adv-x="1062" 
d="M629 -18q-107 0 -199.5 29.5t-168 89t-119.5 162.5t-44 239q0 138 43.5 247t118.5 176.5t171.5 102.5t207.5 35q71 0 132 -12t97.5 -30t57 -37.5t20.5 -35.5q0 -30 -40.5 -85.5t-65.5 -55.5q-8 0 -26.5 12t-40.5 27t-63.5 27t-88.5 12q-51 0 -97.5 -20t-88 -61
t-66.5 -115.5t-25 -172.5q0 -178 88 -266t232 -88q59 0 113.5 14t85 31t57 31t36.5 14q25 0 25 -25q0 -54 -37 -127q-19 -37 -110.5 -77.5t-204.5 -40.5zM504 1130q-13 0 -36.5 25t-23.5 37q0 14 19 37q15 17 57 65t90.5 102t55.5 62q25 21 36 21q23 0 67 -44t44 -69
q0 -18 -20 -35q-19 -18 -117 -89.5t-133 -94.5q-30 -17 -39 -17z" />
    <glyph glyph-name="Ccaron" unicode="&#x10c;" horiz-adv-x="1357" 
d="M801 -18q-109 0 -210 25.5t-191 80.5t-157 134t-106 193.5t-39 252.5q0 137 38.5 255t105 202.5t155.5 145.5t191 90.5t211 29.5q79 0 148 -13.5t113.5 -34t77 -44t46.5 -42t14 -30.5q0 -26 -33.5 -71.5t-54.5 -45.5q-11 0 -35 11.5t-52 25.5t-85.5 25.5t-128.5 11.5
q-92 0 -174.5 -32t-148.5 -93t-105 -161t-39 -226q0 -105 27 -188.5t72.5 -138t109 -90.5t133.5 -51.5t150 -15.5q88 0 168 21t125 46t81 46t45 21q23 0 23 -27q0 -67 -37 -145q-11 -26 -69 -64t-161 -71t-208 -33zM778 1479q-9 0 -18 2t-15 4.5t-14 8.5t-11.5 8.5t-11.5 10
t-10 9.5l-184 196q-14 14 -14 31q0 16 14 27l55 47q11 8 27 8q24 0 33 -12l147 -158l152 158q9 12 33 12q17 0 28 -8l53 -45q13 -13 13 -29q0 -13 -11 -31l-184 -196q-1 -1 -7.5 -6.5t-8.5 -7.5t-8 -7t-10 -7.5t-10 -5.5t-11.5 -4.5t-12.5 -3t-14 -1.5z" />
    <glyph glyph-name="ccaron" unicode="&#x10d;" horiz-adv-x="1062" 
d="M629 -18q-107 0 -199.5 29.5t-168 89t-119.5 162.5t-44 239q0 138 43.5 247t118.5 176.5t171.5 102.5t207.5 35q71 0 132 -12t97.5 -30t57 -37.5t20.5 -35.5q0 -30 -40.5 -85.5t-65.5 -55.5q-8 0 -26.5 12t-40.5 27t-63.5 27t-88.5 12q-51 0 -97.5 -20t-88 -61
t-66.5 -115.5t-25 -172.5q0 -178 88 -266t232 -88q59 0 113.5 14t85 31t57 31t36.5 14q25 0 25 -25q0 -54 -37 -127q-19 -37 -110.5 -77.5t-204.5 -40.5zM623 1163q-9 0 -18 2t-15 4.5t-14 8.5t-11.5 8.5t-11.5 10t-10 9.5l-185 197q-14 14 -14 31q0 15 14 26l56 47
q12 9 26 9q23 0 33 -13l148 -157l151 157q10 13 33 13q17 0 29 -9l53 -45q12 -12 12 -28q0 -14 -10 -31l-184 -197q-1 -1 -7.5 -6.5t-8.5 -7.5t-8 -7t-10 -7.5t-10 -5.5t-11.5 -4.5t-12.5 -3t-14 -1.5z" />
    <glyph glyph-name="Dcaron" unicode="&#x10e;" horiz-adv-x="1425" 
d="M1327 711q0 -145 -36 -264.5t-101.5 -205t-158 -143.5t-204 -86t-241.5 -28q-171 0 -290.5 34t-119.5 80v1178q0 46 122.5 80.5t295.5 34.5q84 0 159.5 -9.5t150.5 -32t137 -57t116 -88.5t91 -123t58 -163.5t21 -206.5zM1106 709q0 92 -15.5 166.5t-41 126.5t-65 90.5
t-81.5 61.5t-96 37t-103 18.5t-108 4.5q-92 0 -144.5 -19.5t-52.5 -51.5v-905q0 -34 46 -55t141 -21q87 0 161.5 17t141.5 57.5t114.5 102.5t75 156t27.5 214zM610 1481q-9 0 -18 2t-15 4.5t-14 8.5t-11.5 8.5t-11.5 10t-10 9.5l-184 196q-14 14 -14 31q0 16 14 27l55 47
q11 8 27 8q24 0 33 -12l147 -158l152 158q9 12 33 12q17 0 28 -8l53 -45q13 -13 13 -29q0 -14 -10 -31l-185 -196q-1 -1 -7.5 -6.5t-8.5 -7.5t-8 -7t-10 -7.5t-10 -5.5t-11.5 -4.5t-12.5 -3t-14 -1.5z" />
    <glyph glyph-name="dcaron" unicode="&#x10f;" horiz-adv-x="1222" 
d="M807 281v507q0 40 -48 72.5t-110 32.5q-61 0 -114 -22.5t-98 -69t-71 -129t-26 -193.5q0 -91 23.5 -158.5t63 -104.5t83 -54t92.5 -17q80 0 142.5 48t62.5 88zM526 -18q-63 0 -122.5 16t-115.5 53.5t-98 92t-67 137.5t-25 184q0 127 33 230.5t85 170.5t120.5 112.5
t136.5 65t135 19.5t128 -19.5t71 -33.5v428q0 37 111 37q110 0 110 -37v-1194q0 -84 68 -90q4 -2 55 -2q20 0 20 -17q0 -34 -54.5 -92.5t-104.5 -58.5q-43 0 -80.5 14.5t-59 35t-33.5 37t-14 25.5q-10 -10 -29 -24t-58 -36.5t-95.5 -38t-116.5 -15.5zM1118 885
q-16 0 -26.5 8t-10.5 22q0 17 18.5 41.5t37 55t18.5 63.5q0 17 -7.5 30.5t-17 24.5t-17 41.5t-7.5 77.5q0 123 133 123q64 0 95.5 -30.5t31.5 -100.5q0 -67 -28 -134.5t-67.5 -114.5t-81.5 -77t-71 -30z" />
    <glyph glyph-name="Emacron" unicode="&#x112;" horiz-adv-x="1185" 
d="M227 0q-51 0 -51 51v1272q0 49 51 49h713q52 0 72 -47t20 -154q0 -30 -24 -30q-5 0 -43.5 10.5t-118 21.5t-182.5 11h-244q-27 0 -27 -27v-340q0 -11 6.5 -20t16.5 -9h434q35 0 35 -100q0 -57 -9 -77.5t-26 -20.5h-434q-10 0 -16.5 -11.5t-6.5 -23.5v-338q0 -27 27 -27
h282q103 0 187 11t127.5 21.5t48.5 10.5q22 0 22 -32q0 -108 -19.5 -154.5t-72.5 -46.5h-768zM823 1487h-463q-22 0 -36.5 14t-14.5 37v49q0 23 14 37t37 14h463q24 0 37.5 -13.5t13.5 -37.5v-49q0 -24 -13.5 -37.5t-37.5 -13.5z" />
    <glyph glyph-name="emacron" unicode="&#x113;" horiz-adv-x="1060" 
d="M625 -18q-110 0 -203 29.5t-166.5 88.5t-115.5 157.5t-42 227.5q0 119 29 217t78 164t114.5 111t137 65.5t147.5 20.5q182 0 279.5 -81t97.5 -208q0 -81 -41.5 -148.5t-106.5 -111.5t-151 -75.5t-169 -46t-165 -17.5q28 -110 109.5 -161.5t195.5 -51.5q56 0 108 12.5
t81.5 28t55.5 29.5t36 16q14 5 23.5 -0.5t9.5 -20.5q0 -41 -35 -127q-19 -36 -109 -77t-198 -41zM612 915q-54 0 -100.5 -23t-85.5 -70t-62.5 -129t-25.5 -191q78 5 150 24.5t133 53t98 87.5t37 119q0 56 -40 92.5t-104 36.5zM811 1155h-463q-22 0 -36.5 14t-14.5 37v49
q0 23 14 37.5t37 14.5h463q24 0 37.5 -14t13.5 -38v-49q0 -24 -13.5 -37.5t-37.5 -13.5z" />
    <glyph glyph-name="Ebreve" unicode="&#x114;" horiz-adv-x="1185" 
d="M227 0q-51 0 -51 51v1272q0 49 51 49h713q52 0 72 -47t20 -154q0 -30 -24 -30q-5 0 -43.5 10.5t-118 21.5t-182.5 11h-244q-27 0 -27 -27v-340q0 -11 6.5 -20t16.5 -9h434q35 0 35 -100q0 -57 -9 -77.5t-26 -20.5h-434q-10 0 -16.5 -11.5t-6.5 -23.5v-338q0 -27 27 -27
h282q103 0 187 11t127.5 21.5t48.5 10.5q22 0 22 -32q0 -108 -19.5 -154.5t-72.5 -46.5h-768zM592 1475q-59 0 -115 28.5t-92 67t-58 75t-22 56.5q0 30 32 55t60 25q30 0 58 -49q69 -113 139 -113q67 0 137 111q31 51 55 51q29 0 61 -25t32 -55q0 -20 -21.5 -56.5t-57.5 -75
t-92.5 -67t-115.5 -28.5z" />
    <glyph glyph-name="ebreve" unicode="&#x115;" horiz-adv-x="1060" 
d="M625 -18q-110 0 -203 29.5t-166.5 88.5t-115.5 157.5t-42 227.5q0 119 29 217t78 164t114.5 111t137 65.5t147.5 20.5q182 0 279.5 -81t97.5 -208q0 -81 -41.5 -148.5t-106.5 -111.5t-151 -75.5t-169 -46t-165 -17.5q28 -110 109.5 -161.5t195.5 -51.5q56 0 108 12.5
t81.5 28t55.5 29.5t36 16q14 5 23.5 -0.5t9.5 -20.5q0 -41 -35 -127q-19 -36 -109 -77t-198 -41zM612 915q-54 0 -100.5 -23t-85.5 -70t-62.5 -129t-25.5 -191q78 5 150 24.5t133 53t98 87.5t37 119q0 56 -40 92.5t-104 36.5zM588 1157q-59 0 -115 28.5t-92 67t-58 75
t-22 56.5q0 30 32 55t60 25q30 0 58 -49q68 -112 139 -112q67 0 137 110q31 51 55 51q29 0 60.5 -25t31.5 -55q0 -20 -21.5 -56.5t-57 -75t-92 -67t-115.5 -28.5z" />
    <glyph glyph-name="Eogonek" unicode="&#x118;" horiz-adv-x="1185" 
d="M227 0q-51 0 -51 51v1272q0 49 51 49h713q52 0 72 -47t20 -154q0 -30 -24 -30q-5 0 -43.5 10.5t-118 21.5t-182.5 11h-244q-27 0 -27 -27v-340q0 -11 6.5 -20t16.5 -9h434q35 0 35 -100q0 -57 -9 -77.5t-26 -20.5h-434q-10 0 -16.5 -11.5t-6.5 -23.5v-338q0 -27 27 -27
h282q103 0 187 11t127.5 21.5t48.5 10.5q22 0 22 -32q0 -108 -19.5 -154.5t-72.5 -46.5h-301q-2 -7 -22 -27q-38 -32 -70.5 -78t-32.5 -92q0 -31 15 -48t43 -17q21 0 41 10t34 10q25 0 45.5 -27.5t20.5 -54.5q0 -32 -44 -53.5t-101 -21.5q-86 0 -146.5 54t-60.5 142
q0 106 123 203h-312z" />
    <glyph glyph-name="eogonek" unicode="&#x119;" horiz-adv-x="1060" 
d="M641 -391q-86 0 -146.5 54t-60.5 142q0 93 98 183q-94 11 -171 46t-137 94.5t-93 150.5t-33 206q0 119 29 217t78 164t114.5 111t137 65.5t147.5 20.5q182 0 279.5 -81t97.5 -208q0 -81 -41.5 -148.5t-106.5 -111.5t-151 -75.5t-169 -46t-165 -17.5q28 -110 109.5 -161.5
t195.5 -51.5q56 0 108 12.5t81.5 28t55.5 29.5t36 16q14 5 23.5 -0.5t9.5 -20.5q0 -41 -35 -127q-16 -29 -84 -65t-154 -47l-4 -6q-38 -32 -70 -78t-32 -92q0 -31 15 -48.5t42 -17.5q21 0 41 10.5t35 10.5q25 0 45 -27.5t20 -54.5q0 -33 -44.5 -54.5t-100.5 -21.5zM612 915
q-54 0 -100.5 -23t-85.5 -70t-62.5 -129t-25.5 -191q78 5 150 24.5t133 53t98 87.5t37 119q0 56 -40 92.5t-104 36.5z" />
    <glyph glyph-name="Imacron" unicode="&#x12a;" horiz-adv-x="575" 
d="M289 0q-113 0 -113 35v1302q0 35 113 35q110 0 110 -35v-1302q0 -35 -110 -35zM520 1481h-463q-22 0 -36.5 14t-14.5 37v49q0 23 14 37t37 14h463q24 0 37.5 -13.5t13.5 -37.5v-49q0 -24 -13.5 -37.5t-37.5 -13.5z" />
    <glyph glyph-name="imacron" unicode="&#x12b;" 
d="M131 209v799q0 36 111 36q110 0 110 -36v-754q0 -50 19 -71t61 -21q47 0 47 -2q8 -3 8 -10q0 -43 -53.5 -97.5t-105.5 -60.5q-92 0 -144.5 58.5t-52.5 158.5zM475 1165h-463q-22 0 -36.5 14.5t-14.5 37.5v49q0 23 14 37t37 14h463q24 0 37.5 -13.5t13.5 -37.5v-49
q0 -24 -13.5 -38t-37.5 -14z" />
    <glyph glyph-name="Ibreve" unicode="&#x12c;" horiz-adv-x="575" 
d="M289 0q-113 0 -113 35v1302q0 35 113 35q110 0 110 -35v-1302q0 -35 -110 -35zM289 1466q-59 0 -115 28.5t-92 67.5t-58 75.5t-22 56.5q0 30 32 55t60 25q29 0 58 -50q68 -112 139 -112q67 0 137 110q16 27 28.5 39.5t26.5 12.5q29 0 60.5 -25t31.5 -55
q0 -20 -21.5 -56.5t-57 -75.5t-92 -67.5t-115.5 -28.5z" />
    <glyph glyph-name="ibreve" unicode="&#x12d;" 
d="M131 209v799q0 36 111 36q110 0 110 -36v-754q0 -50 19 -71t61 -21q47 0 47 -2q8 -3 8 -10q0 -43 -53.5 -97.5t-105.5 -60.5q-92 0 -144.5 58.5t-52.5 158.5zM240 1147q-59 0 -115 28.5t-92 67t-58 75t-22 56.5q0 30 32 55t60 25q17 0 29.5 -11.5t27.5 -37.5
q69 -113 140 -113q67 0 137 111q31 51 55 51q29 0 60.5 -25t31.5 -55q0 -20 -21.5 -56.5t-57 -75t-92 -67t-115.5 -28.5z" />
    <glyph glyph-name="dotlessi" unicode="&#x131;" 
d="M131 209v799q0 36 111 36q110 0 110 -36v-754q0 -50 19 -71t61 -21q47 0 47 -2q8 -3 8 -10q0 -43 -53.5 -97.5t-105.5 -60.5q-92 0 -144.5 58.5t-52.5 158.5z" />
    <glyph glyph-name="Lacute" unicode="&#x139;" horiz-adv-x="1093" 
d="M213 0q-37 0 -37 39v1298q0 35 113 35q110 0 110 -35v-1114q0 -26 27 -26h170q124 0 221.5 10.5t145.5 21.5t51 11q24 0 24 -33q0 -108 -20 -157.5t-72 -49.5h-733zM176 1499q-13 0 -36 25t-23 37q0 14 18 36q15 18 203 230q24 20 37 20q23 0 66.5 -43.5t43.5 -68.5
q0 -18 -20 -35q-19 -18 -117 -89.5t-133 -94.5q-30 -17 -39 -17z" />
    <glyph glyph-name="lacute" unicode="&#x13a;" 
d="M139 201v1237q0 37 109 37q45 0 70 -5.5t32.5 -13t7.5 -18.5v-1192q0 -50 19 -71t61 -21q47 0 47 -2q9 -3 9 -11q0 -43 -54 -97t-106 -60q-92 0 -144.5 58.5t-50.5 158.5zM127 1544q-13 0 -36 25t-23 37q0 14 18 36q15 18 203 230q24 20 37 20q23 0 66.5 -43.5
t43.5 -68.5q0 -18 -20 -35q-19 -18 -117 -89.5t-133 -94.5q-30 -17 -39 -17z" />
    <glyph glyph-name="Lcaron" unicode="&#x13d;" horiz-adv-x="1093" 
d="M213 0q-37 0 -37 39v1298q0 35 113 35q110 0 110 -35v-1114q0 -26 27 -26h170q124 0 221.5 10.5t145.5 21.5t51 11q24 0 24 -33q0 -108 -20 -157.5t-72 -49.5h-733zM582 885q-16 0 -26.5 8t-10.5 22q0 17 18.5 41.5t36.5 55t18 63.5q0 20 -12 35.5t-24.5 47.5t-12.5 91
q0 123 133 123q64 0 95.5 -30.5t31.5 -100.5q0 -67 -28 -134.5t-67 -114.5t-81 -77t-71 -30z" />
    <glyph glyph-name="lcaron" unicode="&#x13e;" 
d="M139 201v1237q0 37 109 37q45 0 70 -5.5t32.5 -13t7.5 -18.5v-1192q0 -50 19 -71t61 -21q47 0 47 -2q9 -3 9 -11q0 -43 -54 -97t-106 -60q-92 0 -144.5 58.5t-50.5 158.5zM465 885q-16 0 -26.5 8t-10.5 22q0 17 18.5 41.5t37 55t18.5 63.5q0 20 -12 35.5t-24.5 47.5
t-12.5 91q0 123 133 123q64 0 95.5 -30.5t31.5 -100.5q0 -67 -28 -134.5t-67.5 -114.5t-81.5 -77t-71 -30z" />
    <glyph glyph-name="Lslash" unicode="&#x141;" horiz-adv-x="1093" 
d="M18 588l158 90v659q0 35 113 35q110 0 110 -35v-530l148 86q36 22 88 -68q51 -88 14 -110l-250 -146v-346q0 -26 27 -26h170q124 0 221.5 10.5t145.5 21.5t51 11q24 0 24 -33q0 -108 -20 -157.5t-72 -49.5h-733q-37 0 -37 39v401l-55 -30q-38 -23 -88 67q-53 88 -15 111z
" />
    <glyph glyph-name="lslash" unicode="&#x142;" 
d="M-63 588l202 117v733q0 37 109 37q45 0 70 -5.5t32.5 -13t7.5 -18.5v-607l107 62q36 22 88 -68q51 -88 14 -110l-209 -121v-348q0 -50 19 -71t61 -21q47 0 47 -2q9 -3 9 -11q0 -43 -54 -97t-106 -60q-92 0 -144.5 58.5t-50.5 158.5v266l-100 -57q-38 -23 -88 67
q-52 88 -14 111z" />
    <glyph glyph-name="Nacute" unicode="&#x143;" horiz-adv-x="1447" 
d="M281 0q-44 0 -68 5t-30.5 12t-6.5 18v1302q0 35 78 35q57 0 76.5 -4.5t29.5 -17.5l707 -959v946q0 12 5.5 18.5t28.5 11.5t66 5q44 0 68 -5t30.5 -12t6.5 -18v-1302q0 -35 -80 -35q-55 0 -75.5 5.5t-29.5 17.5l-706 942v-930q0 -11 -5.5 -17.5t-29 -12t-65.5 -5.5z
M649 1405q-13 0 -36 24.5t-23 36.5q0 15 18 37q15 18 203 230q24 20 37 20q23 0 66.5 -44t43.5 -69q0 -17 -20 -34q-20 -18 -117.5 -90.5t-132.5 -94.5q-28 -16 -39 -16z" />
    <glyph glyph-name="nacute" unicode="&#x144;" horiz-adv-x="1257" 
d="M842 201v495q0 189 -180 189q-63 0 -129 -39t-104 -85t-38 -73v-651q0 -37 -110 -37q-111 0 -111 37v760q0 45 -15 78t-29.5 50.5t-14.5 26.5q0 24 67.5 66.5t102.5 42.5q73 0 102 -131l6 -25q189 158 367 158q139 0 223 -78.5t84 -202.5v-536q0 -50 19 -71t61 -21
q47 0 47 -2q8 -3 8 -11q0 -43 -54 -97t-106 -60q-92 0 -144 58.5t-52 158.5zM612 1161q-13 0 -36 25t-23 37q0 15 18 37q15 17 57 65t90.5 102t55.5 62q24 20 37 20q23 0 67 -43.5t44 -68.5q0 -17 -21 -35q-19 -18 -117 -89.5t-133 -94.5q-30 -17 -39 -17z" />
    <glyph glyph-name="Ncaron" unicode="&#x147;" horiz-adv-x="1447" 
d="M281 0q-44 0 -68 5t-30.5 12t-6.5 18v1302q0 35 78 35q57 0 76.5 -4.5t29.5 -17.5l707 -959v946q0 12 5.5 18.5t28.5 11.5t66 5q44 0 68 -5t30.5 -12t6.5 -18v-1302q0 -35 -80 -35q-55 0 -75.5 5.5t-29.5 17.5l-706 942v-930q0 -11 -5.5 -17.5t-29 -12t-65.5 -5.5z
M725 1427q-9 0 -18 2t-15 4.5t-14 8.5t-11.5 8.5t-11.5 10t-10 9.5l-184 197q-15 15 -15 31q0 14 15 26l55 48q11 8 27 8q22 0 32 -13l148 -157l151 157q10 13 33 13q18 0 29 -8l53 -46q12 -12 12 -28q0 -14 -10 -31l-184 -197q-1 -1 -7.5 -6.5t-8.5 -7.5t-8 -7t-10 -7.5
t-10 -5.5t-11.5 -4.5t-12.5 -3t-14 -1.5z" />
    <glyph glyph-name="ncaron" unicode="&#x148;" horiz-adv-x="1257" 
d="M842 201v495q0 189 -180 189q-63 0 -129 -39t-104 -85t-38 -73v-651q0 -37 -110 -37q-111 0 -111 37v760q0 45 -15 78t-29.5 50.5t-14.5 26.5q0 24 67.5 66.5t102.5 42.5q73 0 102 -131l6 -25q189 158 367 158q139 0 223 -78.5t84 -202.5v-536q0 -50 19 -71t61 -21
q47 0 47 -2q8 -3 8 -11q0 -43 -54 -97t-106 -60q-92 0 -144 58.5t-52 158.5zM733 1180q-9 0 -18 2t-15 4.5t-14 8.5t-11.5 8.5t-11.5 10t-10 9.5l-184 196q-14 14 -14 31q0 16 14 27l55 47q11 8 27 8q24 0 33 -12l147 -158l152 158q9 12 32 12q18 0 29 -8l53 -45
q13 -13 13 -29q0 -13 -11 -31l-184 -196q-1 -1 -7.5 -6.5t-8.5 -7.5t-8 -7t-10 -7.5t-10 -5.5t-11.5 -4.5t-12.5 -3t-14 -1.5z" />
    <glyph glyph-name="Omacron" unicode="&#x14c;" horiz-adv-x="1480" 
d="M741 -18q-295 0 -469 181t-174 527q0 139 34.5 255t94 197.5t141 138t176 83.5t197.5 27t197.5 -27t176 -83.5t141 -138t94 -197.5t34.5 -255q0 -174 -49.5 -310.5t-137 -222.5t-203.5 -130.5t-253 -44.5zM741 178q87 0 159.5 28.5t130.5 87t91 159t33 233.5
q0 134 -34.5 234.5t-94 157.5t-131 84.5t-154.5 27.5q-84 0 -155.5 -27.5t-131 -84.5t-94 -157.5t-34.5 -234.5t31 -233.5t88 -158.5t131 -87.5t165 -28.5zM971 1483h-463q-22 0 -36.5 14t-14.5 37v49q0 23 14 37t37 14h463q24 0 37.5 -13.5t13.5 -37.5v-49
q0 -24 -13.5 -37.5t-37.5 -13.5z" />
    <glyph glyph-name="omacron" unicode="&#x14d;" horiz-adv-x="1191" 
d="M598 -16q-101 0 -190 32.5t-160.5 96.5t-113.5 170t-42 243q0 109 27.5 199.5t75 152t112.5 104t138 62t153 19.5q79 0 151.5 -19.5t136.5 -62t111.5 -104t75 -152t27.5 -199.5q0 -136 -41.5 -242.5t-113 -170.5t-159.5 -96.5t-188 -32.5zM598 145q114 0 188 94t74 291
q0 196 -73.5 288.5t-188.5 92.5q-116 0 -191 -92.5t-75 -288.5q0 -101 21.5 -177t59 -120.5t84 -66t101.5 -21.5zM827 1178h-462q-22 0 -37 14t-15 37v49q0 23 14.5 37t37.5 14h462q25 0 38.5 -13.5t13.5 -37.5v-49q0 -23 -13.5 -37t-38.5 -14z" />
    <glyph glyph-name="Obreve" unicode="&#x14e;" horiz-adv-x="1480" 
d="M741 -18q-295 0 -469 181t-174 527q0 139 34.5 255t94 197.5t141 138t176 83.5t197.5 27t197.5 -27t176 -83.5t141 -138t94 -197.5t34.5 -255q0 -174 -49.5 -310.5t-137 -222.5t-203.5 -130.5t-253 -44.5zM741 178q87 0 159.5 28.5t130.5 87t91 159t33 233.5
q0 134 -34.5 234.5t-94 157.5t-131 84.5t-154.5 27.5q-84 0 -155.5 -27.5t-131 -84.5t-94 -157.5t-34.5 -234.5t31 -233.5t88 -158.5t131 -87.5t165 -28.5zM739 1479q-59 0 -115 28.5t-91.5 67t-57.5 75t-22 56.5q0 30 32 55t60 25q17 0 29.5 -11.5t27.5 -37.5
q69 -113 139 -113q68 0 138 111q31 51 55 51q29 0 60.5 -25t31.5 -55q0 -20 -21.5 -56.5t-57.5 -75t-92.5 -67t-115.5 -28.5z" />
    <glyph glyph-name="obreve" unicode="&#x14f;" horiz-adv-x="1191" 
d="M598 -16q-101 0 -190 32.5t-160.5 96.5t-113.5 170t-42 243q0 109 27.5 199.5t75 152t112.5 104t138 62t153 19.5q79 0 151.5 -19.5t136.5 -62t111.5 -104t75 -152t27.5 -199.5q0 -136 -41.5 -242.5t-113 -170.5t-159.5 -96.5t-188 -32.5zM598 145q114 0 188 94t74 291
q0 196 -73.5 288.5t-188.5 92.5q-116 0 -191 -92.5t-75 -288.5q0 -101 21.5 -177t59 -120.5t84 -66t101.5 -21.5zM596 1167q-59 0 -115 28.5t-92 67.5t-58 75.5t-22 56.5q0 30 32 55t60 25q29 0 58 -50q68 -112 139 -112q67 0 137 110q32 52 56 52q29 0 60.5 -25t31.5 -55
q0 -20 -21.5 -56.5t-57.5 -75.5t-92.5 -67.5t-115.5 -28.5z" />
    <glyph glyph-name="Ohungarumlaut" unicode="&#x150;" horiz-adv-x="1480" 
d="M741 -18q-295 0 -469 181t-174 527q0 139 34.5 255t94 197.5t141 138t176 83.5t197.5 27t197.5 -27t176 -83.5t141 -138t94 -197.5t34.5 -255q0 -174 -49.5 -310.5t-137 -222.5t-203.5 -130.5t-253 -44.5zM741 178q87 0 159.5 28.5t130.5 87t91 159t33 233.5
q0 134 -34.5 234.5t-94 157.5t-131 84.5t-154.5 27.5q-84 0 -155.5 -27.5t-131 -84.5t-94 -157.5t-34.5 -234.5t31 -233.5t88 -158.5t131 -87.5t165 -28.5zM463 1477q-13 0 -36.5 24.5t-23.5 36.5q0 14 19 37q15 17 57 65t90.5 102t55.5 62q25 21 37 21q23 0 66.5 -44
t43.5 -69q0 -18 -20 -35q-19 -18 -117 -89.5t-133 -94.5q-28 -16 -39 -16zM786 1477q-13 0 -36 24.5t-23 36.5q0 15 18 37q15 17 57 65t90.5 102t55.5 62q25 21 37 21q23 0 67 -44t44 -69q0 -18 -21 -35q-19 -18 -117 -89.5t-133 -94.5q-28 -16 -39 -16z" />
    <glyph glyph-name="ohungarumlaut" unicode="&#x151;" horiz-adv-x="1191" 
d="M598 -16q-101 0 -190 32.5t-160.5 96.5t-113.5 170t-42 243q0 109 27.5 199.5t75 152t112.5 104t138 62t153 19.5q79 0 151.5 -19.5t136.5 -62t111.5 -104t75 -152t27.5 -199.5q0 -136 -41.5 -242.5t-113 -170.5t-159.5 -96.5t-188 -32.5zM598 145q114 0 188 94t74 291
q0 196 -73.5 288.5t-188.5 92.5q-116 0 -191 -92.5t-75 -288.5q0 -101 21.5 -177t59 -120.5t84 -66t101.5 -21.5zM309 1151q-13 0 -36 24.5t-23 36.5q0 15 18 37q15 18 203 230q24 20 37 20q23 0 66.5 -44t43.5 -69q0 -17 -20 -34q-20 -18 -117.5 -90.5t-132.5 -94.5
q-28 -16 -39 -16zM633 1151q-13 0 -36.5 24.5t-23.5 36.5q0 14 19 37q15 18 203 230q24 20 36 20q23 0 67 -44t44 -69q0 -17 -20 -34q-20 -18 -117.5 -90.5t-132.5 -94.5q-28 -16 -39 -16z" />
    <glyph glyph-name="OE" unicode="&#x152;" horiz-adv-x="2150" 
d="M1180 1372h805q34 0 34 -102q0 -103 -37 -103h-616v-376h498q17 0 25.5 -21.5t8.5 -81.5q0 -59 -8.5 -80.5t-25.5 -21.5h-498v-381h657q37 0 37 -103q0 -102 -35 -102h-845q-15 0 -25 10.5t-10 28.5v98q-161 -155 -404 -155q-290 0 -461 181t-171 527q0 173 51 309
t139.5 220.5t201 128t240.5 43.5q239 0 404 -162v106q0 37 35 37zM741 178q84 0 155 28.5t128 87t89 159t32 233.5q0 134 -33.5 234.5t-91.5 157.5t-128 84.5t-151 27.5t-151 -27.5t-128.5 -84.5t-92 -157.5t-33.5 -234.5q0 -261 110.5 -384.5t294.5 -123.5z" />
    <glyph glyph-name="oe" unicode="&#x153;" horiz-adv-x="1753" 
d="M1356 162q73 0 134.5 20t100 42t47.5 24q13 5 22 -1t9 -20q0 -52 -35 -127q-19 -36 -109 -77t-198 -41q-125 0 -228 41t-167 124q-118 -165 -361 -165q-105 0 -191 32.5t-151 97.5t-101 170.5t-36 243.5q0 269 131 403t348 134q252 0 367 -176q66 89 163 132.5t206 43.5
q186 0 276 -79.5t90 -211.5q0 -84 -38.5 -152t-98 -111t-142 -73.5t-160 -45t-161.5 -21.5q24 -105 98.5 -156t184.5 -51zM571 141q110 0 176 93t66 292q0 198 -66 290.5t-176 92.5q-111 0 -178 -92.5t-67 -290.5t67 -291.5t178 -93.5zM1442 788q0 58 -34.5 91.5t-98.5 33.5
q-111 0 -178 -98.5t-70 -312.5q67 10 116 21t102 33t86.5 51t55 75.5t21.5 105.5z" />
    <glyph glyph-name="Racute" unicode="&#x154;" horiz-adv-x="1341" 
d="M289 0q-113 0 -113 35v1241q0 46 119.5 80.5t290.5 34.5q271 0 421 -111.5t150 -327.5q0 -84 -28.5 -159t-69 -123t-88.5 -84.5t-83.5 -53t-56.5 -20.5q26 -14 61 -55.5t69.5 -91t72.5 -98t82 -83t86 -39.5q18 -4 60 -4q24 0 24 -22q0 -38 -67.5 -85.5t-143.5 -47.5
q-60 0 -111.5 24.5t-88 63.5t-68.5 86.5t-59.5 96t-54.5 89t-61 67.5t-71 31h-139q-10 0 -16.5 -11.5t-6.5 -24.5v-373q0 -35 -110 -35zM399 678q0 -21 52 -34t106 -13q78 0 140 15.5t113.5 50.5t79.5 97.5t28 149.5q0 264 -316 264q-92 0 -147.5 -17t-55.5 -48v-465z
M508 1470q-13 0 -36 25t-23 37q0 15 18 37q15 17 57 65t90.5 102t55.5 62q25 21 37 21q23 0 66.5 -44t43.5 -69q0 -18 -20 -35q-19 -18 -117 -89.5t-133 -94.5q-30 -17 -39 -17z" />
    <glyph glyph-name="racute" unicode="&#x155;" horiz-adv-x="864" 
d="M281 0q-111 0 -111 37v760q0 45 -15 78t-29.5 50.5t-14.5 26.5q0 24 67.5 66.5t102.5 42.5q39 0 64 -36t44 -107q4 6 12.5 15.5t35.5 34.5t55.5 44.5t71.5 35t85 15.5q67 0 123.5 -24t56.5 -52q0 -20 -30.5 -68t-59.5 -79q-18 -21 -34 -21q-8 0 -51.5 25.5t-86.5 25.5
q-67 0 -121.5 -62.5t-54.5 -131.5v-639q0 -37 -110 -37zM498 1137q-13 0 -36.5 24.5t-23.5 36.5q0 14 19 37q18 21 202 229q25 21 37 21q23 0 67 -44t44 -69q0 -18 -21 -35q-20 -18 -117 -89.5t-132 -94.5q-28 -16 -39 -16z" />
    <glyph glyph-name="Rcaron" unicode="&#x158;" horiz-adv-x="1341" 
d="M289 0q-113 0 -113 35v1241q0 46 119.5 80.5t290.5 34.5q271 0 421 -111.5t150 -327.5q0 -84 -28.5 -159t-69 -123t-88.5 -84.5t-83.5 -53t-56.5 -20.5q26 -14 61 -55.5t69.5 -91t72.5 -98t82 -83t86 -39.5q18 -4 60 -4q24 0 24 -22q0 -38 -67.5 -85.5t-143.5 -47.5
q-60 0 -111.5 24.5t-88 63.5t-68.5 86.5t-59.5 96t-54.5 89t-61 67.5t-71 31h-139q-10 0 -16.5 -11.5t-6.5 -24.5v-373q0 -35 -110 -35zM399 678q0 -21 52 -34t106 -13q78 0 140 15.5t113.5 50.5t79.5 97.5t28 149.5q0 264 -316 264q-92 0 -147.5 -17t-55.5 -48v-465z
M612 1499q-9 0 -18 2t-15 4.5t-14 8.5t-11.5 8.5t-11.5 10t-10 9.5l-184 197q-14 14 -14 30t14 27l55 47q11 8 27 8q24 0 33 -12l147 -158l152 158q9 12 33 12q17 0 28 -8l54 -45q12 -12 12 -29q0 -13 -10 -30l-185 -197q-1 -1 -7.5 -6.5t-8.5 -7.5t-8 -7t-10 -7.5t-10 -5.5
t-11.5 -4.5t-12.5 -3t-14 -1.5z" />
    <glyph glyph-name="rcaron" unicode="&#x159;" horiz-adv-x="864" 
d="M281 0q-111 0 -111 37v760q0 45 -15 78t-29.5 50.5t-14.5 26.5q0 24 67.5 66.5t102.5 42.5q39 0 64 -36t44 -107q4 6 12.5 15.5t35.5 34.5t55.5 44.5t71.5 35t85 15.5q67 0 123.5 -24t56.5 -52q0 -20 -30.5 -68t-59.5 -79q-18 -21 -34 -21q-8 0 -51.5 25.5t-86.5 25.5
q-67 0 -121.5 -62.5t-54.5 -131.5v-639q0 -37 -110 -37zM582 1178q-9 0 -18 2t-15 4.5t-14 8.5t-11.5 8.5t-11.5 10t-10 9.5l-185 196q-14 14 -14 31q0 16 14 27l56 47q11 8 26 8q24 0 33 -12l148 -158l151 158q9 12 33 12q18 0 29 -8l53 -45q12 -12 12 -29q0 -14 -10 -31
l-184 -196q-1 -1 -7.5 -6.5t-8.5 -7.5t-8 -7t-10 -7.5t-10 -5.5t-11.5 -4.5t-12.5 -3t-14 -1.5z" />
    <glyph glyph-name="Sacute" unicode="&#x15a;" horiz-adv-x="1136" 
d="M578 -18q-82 0 -163 20.5t-136.5 50t-91.5 59t-42 48.5q-26 62 -20 151q6 29 29 29q10 0 46.5 -25.5t82 -55.5t125.5 -55.5t167 -25.5q117 0 184.5 56.5t67.5 146.5q0 60 -38.5 104.5t-100 72t-135.5 52t-148 54.5t-135.5 70t-100 107.5t-38.5 157.5q0 113 65.5 203.5
t176 139.5t243.5 49q72 0 136.5 -14t106 -35t72.5 -44.5t44.5 -42.5t13.5 -30q0 -26 -33.5 -69.5t-56.5 -43.5q-12 0 -36 14t-51.5 31t-79 31t-111.5 14q-125 0 -195 -49t-70 -139q0 -48 24 -85t64.5 -61.5t93 -45t110.5 -39t115.5 -39t110 -50t93 -67t64.5 -95t24 -129.5
q0 -189 -130 -305t-347 -116zM455 1458q-13 0 -36.5 25t-23.5 37q0 13 19 36q37 43 202 230q24 20 37 20q23 0 67 -44t44 -68q0 -18 -21 -35q-20 -18 -117 -89.5t-132 -94.5q-30 -17 -39 -17z" />
    <glyph glyph-name="sacute" unicode="&#x15b;" horiz-adv-x="954" 
d="M489 -18q-84 0 -164.5 22t-132 52.5t-83 59t-31.5 44.5q0 28 42.5 76.5t63.5 48.5q11 0 40 -22t63 -48t91 -48t116 -22q76 0 119.5 37.5t43.5 102.5q0 28 -13 51t-29 38t-51 31t-57 24t-69 24q-44 14 -66.5 22t-63 24.5t-62.5 30t-51 36.5t-43.5 47t-25.5 57.5t-11 72.5
q0 146 111.5 233t293.5 87q79 0 144.5 -16t102.5 -39t57 -45.5t20 -38.5q0 -28 -41.5 -76.5t-67.5 -48.5q-7 0 -26 17t-42 37t-67.5 37t-97.5 17q-74 0 -122 -37t-48 -96q0 -28 12.5 -50.5t27.5 -36.5t49.5 -29.5t55 -22.5t66.5 -21q141 -43 196 -73q138 -77 138 -226
t-109.5 -241t-278.5 -92zM408 1163q-13 0 -36.5 25t-23.5 37q0 14 19 37q18 21 202 229q24 20 37 20q24 0 67.5 -43.5t43.5 -68.5q0 -17 -21 -35q-19 -18 -117 -89.5t-133 -94.5q-30 -17 -38 -17z" />
    <glyph glyph-name="Scaron" unicode="&#x160;" horiz-adv-x="1136" 
d="M578 -18q-82 0 -163 20.5t-136.5 50t-91.5 59t-42 48.5q-26 62 -20 151q6 29 29 29q10 0 46.5 -25.5t82 -55.5t125.5 -55.5t167 -25.5q117 0 184.5 56.5t67.5 146.5q0 60 -38.5 104.5t-100 72t-135.5 52t-148 54.5t-135.5 70t-100 107.5t-38.5 157.5q0 113 65.5 203.5
t176 139.5t243.5 49q72 0 136.5 -14t106 -35t72.5 -44.5t44.5 -42.5t13.5 -30q0 -26 -33.5 -69.5t-56.5 -43.5q-12 0 -36 14t-51.5 31t-79 31t-111.5 14q-125 0 -195 -49t-70 -139q0 -48 24 -85t64.5 -61.5t93 -45t110.5 -39t115.5 -39t110 -50t93 -67t64.5 -95t24 -129.5
q0 -189 -130 -305t-347 -116zM614 1483q-11 0 -20.5 2t-19 8.5t-13.5 9t-14.5 12.5t-11.5 11l-185 196q-14 14 -14 31q0 16 14 27l56 47q11 8 26 8q24 0 33 -12l147 -158l152 158q9 12 33 12q17 0 28 -8l54 -45q12 -12 12 -29q0 -14 -10 -31l-185 -196q-1 -1 -7.5 -6.5
t-8.5 -7.5t-8 -7t-10 -7.5t-10 -5.5t-11.5 -4.5t-12.5 -3t-14 -1.5z" />
    <glyph glyph-name="scaron" unicode="&#x161;" horiz-adv-x="954" 
d="M489 -18q-84 0 -164.5 22t-132 52.5t-83 59t-31.5 44.5q0 28 42.5 76.5t63.5 48.5q11 0 40 -22t63 -48t91 -48t116 -22q76 0 119.5 37.5t43.5 102.5q0 28 -13 51t-29 38t-51 31t-57 24t-69 24q-44 14 -66.5 22t-63 24.5t-62.5 30t-51 36.5t-43.5 47t-25.5 57.5t-11 72.5
q0 146 111.5 233t293.5 87q79 0 144.5 -16t102.5 -39t57 -45.5t20 -38.5q0 -28 -41.5 -76.5t-67.5 -48.5q-7 0 -26 17t-42 37t-67.5 37t-97.5 17q-74 0 -122 -37t-48 -96q0 -28 12.5 -50.5t27.5 -36.5t49.5 -29.5t55 -22.5t66.5 -21q141 -43 196 -73q138 -77 138 -226
t-109.5 -241t-278.5 -92zM508 1147q-9 0 -18 2t-15 4.5t-14 8.5t-11.5 8.5t-11.5 10t-10 9.5l-184 196q-15 15 -15 31q0 15 15 27l55 47q11 8 27 8q23 0 32 -12l148 -158l151 158q9 12 33 12q18 0 29 -8l53 -45q12 -12 12 -29q0 -14 -10 -31l-184 -196q-1 -1 -7.5 -6.5
t-8.5 -7.5t-8 -7t-10 -7.5t-10 -5.5t-11.5 -4.5t-12.5 -3t-14 -1.5z" />
    <glyph glyph-name="Tcommaaccent" unicode="&#x162;" horiz-adv-x="1073" 
d="M537 0q-45 0 -70.5 5t-33 12t-7.5 18v1118q0 10 -10 16.5t-21 6.5h-303q-35 0 -35 102q0 55 9 74.5t26 19.5h889q17 0 26 -19.5t9 -74.5q0 -102 -35 -102h-301q-13 0 -23 -6.5t-10 -16.5v-1118q0 -35 -110 -35zM430 -621q-16 0 -26.5 8.5t-10.5 22.5q0 17 18.5 41.5
t37 55t18.5 63.5q0 17 -7.5 30.5t-17 24.5t-17 41.5t-7.5 77.5q0 123 133 123q64 0 95.5 -30.5t31.5 -100.5q0 -67 -28 -134.5t-67.5 -115t-81.5 -77.5t-71 -30z" />
    <glyph glyph-name="tcommaaccent" unicode="&#x163;" horiz-adv-x="720" 
d="M115 1044h73v203q0 30 75 66.5t118 36.5q29 0 29 -33v-273h211q12 0 20 -8t8 -20q0 -35 -37 -87t-69 -52h-133v-515q0 -103 44 -154.5t121 -51.5q5 0 21 1t30 2t15 1q18 0 18 -21q0 -35 -60.5 -95t-117.5 -60q-136 0 -214.5 82t-78.5 215v596h-75q-35 0 -35 84
q0 83 37 83zM295 -600q-16 0 -26.5 8.5t-10.5 22.5q0 17 18.5 41t37 54.5t18.5 63.5q0 20 -12 35.5t-24.5 47.5t-12.5 91q0 123 133 123q64 0 95.5 -30.5t31.5 -100.5q0 -67 -28 -134.5t-67.5 -114.5t-81.5 -77t-71 -30z" />
    <glyph glyph-name="Tcaron" unicode="&#x164;" horiz-adv-x="1073" 
d="M537 0q-45 0 -70.5 5t-33 12t-7.5 18v1118q0 10 -10 16.5t-21 6.5h-303q-35 0 -35 102q0 55 9 74.5t26 19.5h889q17 0 26 -19.5t9 -74.5q0 -102 -35 -102h-301q-13 0 -23 -6.5t-10 -16.5v-1118q0 -35 -110 -35zM537 1468q-9 0 -18 2t-15 4.5t-14 8.5t-11.5 8.5t-11.5 10
t-10 9.5l-185 197q-14 14 -14 31q0 15 14 26l56 47q12 9 26 9q23 0 33 -13l148 -157l151 157q10 13 33 13q17 0 29 -9l53 -45q12 -12 12 -28q0 -14 -10 -31l-185 -197l-10 -9q-9 -9 -11.5 -10.5t-11.5 -8t-14.5 -8.5t-15 -4.5t-18.5 -2.5z" />
    <glyph glyph-name="tcaron" unicode="&#x165;" horiz-adv-x="720" 
d="M115 1044h73v203q0 30 75 66.5t118 36.5q29 0 29 -33v-273h211q12 0 20 -8t8 -20q0 -35 -37 -87t-69 -52h-133v-515q0 -103 44 -154.5t121 -51.5q5 0 21 1t30 2t15 1q18 0 18 -21q0 -35 -60.5 -95t-117.5 -60q-136 0 -214.5 82t-78.5 215v596h-75q-35 0 -35 84
q0 83 37 83zM528 1118q-16 0 -26 8t-10 23q0 17 18 41.5t36.5 55t18.5 63.5q0 17 -7.5 30.5t-17 24.5t-17 41.5t-7.5 77.5q0 123 133 123q64 0 95.5 -30.5t31.5 -100.5q0 -67 -28 -134.5t-67.5 -115t-81.5 -77.5t-71 -30z" />
    <glyph glyph-name="Umacron" unicode="&#x16a;" horiz-adv-x="1386" 
d="M692 -18q-136 0 -240.5 41t-169 114.5t-96.5 169t-32 209.5v821q0 11 8 18t33 12t69 5q113 0 113 -35v-770q0 -189 78 -289t237 -100q160 0 239 100t79 289v770q0 35 110 35q113 0 113 -35v-821q0 -114 -32.5 -210t-97.5 -169t-170 -114t-241 -41zM924 1475h-463
q-22 0 -36.5 14t-14.5 37v49q0 23 14 37t37 14h463q24 0 37.5 -13.5t13.5 -37.5v-49q0 -24 -13.5 -37.5t-37.5 -13.5z" />
    <glyph glyph-name="umacron" unicode="&#x16b;" horiz-adv-x="1193" 
d="M981 -16q-76 0 -125.5 39t-64.5 110q-35 -32 -56.5 -49t-66.5 -45.5t-97.5 -42.5t-111.5 -14q-151 0 -247.5 89t-96.5 238v699q0 36 110 36q45 0 70.5 -5t33 -12.5t7.5 -18.5v-641q0 -99 52.5 -149t150.5 -50q96 0 171.5 65.5t75.5 118.5v656q0 11 7.5 18.5t32.5 12.5
t69 5q45 0 70.5 -5t33 -12.5t7.5 -18.5v-762q0 -50 18.5 -71t60.5 -21q48 0 48 -2q8 -3 8 -11q0 -43 -54 -97t-106 -60zM799 1169h-463q-22 0 -36.5 14.5t-14.5 37.5v49q0 23 14 37t37 14h463q24 0 37.5 -13.5t13.5 -37.5v-49q0 -24 -13.5 -38t-37.5 -14z" />
    <glyph glyph-name="Ubreve" unicode="&#x16c;" horiz-adv-x="1386" 
d="M692 -18q-136 0 -240.5 41t-169 114.5t-96.5 169t-32 209.5v821q0 11 8 18t33 12t69 5q113 0 113 -35v-770q0 -189 78 -289t237 -100q160 0 239 100t79 289v770q0 35 110 35q113 0 113 -35v-821q0 -114 -32.5 -210t-97.5 -169t-170 -114t-241 -41zM692 1464
q-59 0 -115 28.5t-91.5 67.5t-57.5 75.5t-22 56.5q0 30 32 55t60 25q17 0 29.5 -12t27.5 -38q68 -112 139 -112q67 0 137 110q32 52 56 52q29 0 60.5 -25t31.5 -55q0 -20 -21.5 -56.5t-57.5 -75.5t-92.5 -67.5t-115.5 -28.5z" />
    <glyph glyph-name="ubreve" unicode="&#x16d;" horiz-adv-x="1193" 
d="M981 -16q-76 0 -125.5 39t-64.5 110q-35 -32 -56.5 -49t-66.5 -45.5t-97.5 -42.5t-111.5 -14q-151 0 -247.5 89t-96.5 238v699q0 36 110 36q45 0 70.5 -5t33 -12.5t7.5 -18.5v-641q0 -99 52.5 -149t150.5 -50q96 0 171.5 65.5t75.5 118.5v656q0 11 7.5 18.5t32.5 12.5
t69 5q45 0 70.5 -5t33 -12.5t7.5 -18.5v-762q0 -50 18.5 -71t60.5 -21q48 0 48 -2q8 -3 8 -11q0 -43 -54 -97t-106 -60zM571 1139q-59 0 -115 28.5t-91.5 67t-57.5 75t-22 56.5q0 30 32 55t60 25q17 0 29.5 -11.5t27.5 -37.5q69 -113 139 -113q68 0 138 111q31 51 55 51
q29 0 60.5 -25t31.5 -55q0 -20 -21.5 -56.5t-57.5 -75t-92.5 -67t-115.5 -28.5z" />
    <glyph glyph-name="Uring" unicode="&#x16e;" horiz-adv-x="1386" 
d="M692 -18q-136 0 -240.5 41t-169 114.5t-96.5 169t-32 209.5v821q0 11 8 18t33 12t69 5q113 0 113 -35v-770q0 -189 78 -289t237 -100q160 0 239 100t79 289v770q0 35 110 35q113 0 113 -35v-821q0 -114 -32.5 -210t-97.5 -169t-170 -114t-241 -41zM690 1460
q-85 0 -144 57.5t-59 139.5q0 83 60 142t143 59q85 0 146 -59t61 -142q0 -81 -61 -139t-146 -58zM690 1753q-35 0 -59.5 -28.5t-24.5 -67.5t24 -66.5t60 -27.5q38 0 62 27.5t24 66.5t-25 67.5t-61 28.5z" />
    <glyph glyph-name="uring" unicode="&#x16f;" horiz-adv-x="1193" 
d="M981 -16q-76 0 -125.5 39t-64.5 110q-35 -32 -56.5 -49t-66.5 -45.5t-97.5 -42.5t-111.5 -14q-151 0 -247.5 89t-96.5 238v699q0 36 110 36q45 0 70.5 -5t33 -12.5t7.5 -18.5v-641q0 -99 52.5 -149t150.5 -50q96 0 171.5 65.5t75.5 118.5v656q0 11 7.5 18.5t32.5 12.5
t69 5q45 0 70.5 -5t33 -12.5t7.5 -18.5v-762q0 -50 18.5 -71t60.5 -21q48 0 48 -2q8 -3 8 -11q0 -43 -54 -97t-106 -60zM563 1135q-85 0 -144 57t-59 139q0 83 60 142t143 59q85 0 146 -59t61 -142q0 -81 -61 -138.5t-146 -57.5zM563 1427q-35 0 -59.5 -28.5t-24.5 -67.5
t24 -66.5t60 -27.5q38 0 62 27.5t24 66.5t-25 67.5t-61 28.5z" />
    <glyph glyph-name="Uhungarumlaut" unicode="&#x170;" horiz-adv-x="1386" 
d="M692 -18q-136 0 -240.5 41t-169 114.5t-96.5 169t-32 209.5v821q0 11 8 18t33 12t69 5q113 0 113 -35v-770q0 -189 78 -289t237 -100q160 0 239 100t79 289v770q0 35 110 35q113 0 113 -35v-821q0 -114 -32.5 -210t-97.5 -169t-170 -114t-241 -41zM455 1477
q-13 0 -36.5 24.5t-23.5 36.5q0 14 19 37q18 21 202 229q25 21 37 21q23 0 67 -44t44 -69q0 -18 -21 -35q-20 -18 -117 -89.5t-132 -94.5q-28 -16 -39 -16zM778 1477q-13 0 -36 24.5t-23 36.5q0 15 18 37q15 17 57 65t90.5 102t55.5 62q25 21 37 21q23 0 66.5 -44t43.5 -69
q0 -18 -20 -35q-19 -18 -117 -89.5t-133 -94.5q-28 -16 -39 -16z" />
    <glyph glyph-name="uhungarumlaut" unicode="&#x171;" horiz-adv-x="1193" 
d="M981 -16q-76 0 -125.5 39t-64.5 110q-35 -32 -56.5 -49t-66.5 -45.5t-97.5 -42.5t-111.5 -14q-151 0 -247.5 89t-96.5 238v699q0 36 110 36q45 0 70.5 -5t33 -12.5t7.5 -18.5v-641q0 -99 52.5 -149t150.5 -50q96 0 171.5 65.5t75.5 118.5v656q0 11 7.5 18.5t32.5 12.5
t69 5q45 0 70.5 -5t33 -12.5t7.5 -18.5v-762q0 -50 18.5 -71t60.5 -21q48 0 48 -2q8 -3 8 -11q0 -43 -54 -97t-106 -60zM662 1151q-13 0 -36.5 24.5t-23.5 36.5q0 14 19 37q37 43 202 230q24 20 37 20q23 0 67 -44t44 -69q0 -16 -21 -34q-20 -18 -117.5 -90.5t-132.5 -94.5
q-28 -16 -38 -16zM338 1151q-13 0 -36 24.5t-23 36.5q0 15 18 37q15 18 203 230q24 20 37 20q23 0 66.5 -44t43.5 -69q0 -17 -20 -34q-20 -18 -117.5 -90.5t-132.5 -94.5q-28 -16 -39 -16z" />
    <glyph glyph-name="Ydieresis" unicode="&#x178;" horiz-adv-x="1183" 
d="M592 0q-111 0 -111 35v530q0 7 -2 16.5t-4 14.5l-2 6l-420 707q-10 20 -10 24q-1 10 9 18.5t38.5 14.5t71.5 6q110 0 129 -35l301 -526l301 526q19 35 129 35q44 0 73 -6t39 -14.5t9 -18.5l-13 -26l-421 -705q-7 -19 -7 -35v-532q0 -35 -110 -35zM414 1460
q-119 0 -119 133q0 67 30.5 101.5t88.5 34.5q59 0 93 -35t34 -101q0 -133 -127 -133zM764 1460q-121 0 -121 133q0 136 121 136q58 0 91.5 -35t33.5 -101q0 -133 -125 -133z" />
    <glyph glyph-name="Zacute" unicode="&#x179;" horiz-adv-x="1267" 
d="M379 197h395q110 0 196 10.5t128.5 21.5t46.5 11q22 0 22 -33q0 -109 -19.5 -158t-72.5 -49h-930q-45 0 -45 115q0 71 25 106l741 955h-340q-109 0 -192.5 -10t-124.5 -20.5t-45 -10.5q-23 0 -23 30q0 109 19 158t71 49h865q45 0 45 -115q0 -73 -31 -114zM565 1444
q-13 0 -36 24.5t-23 36.5q0 15 18 37q15 18 203 230q24 20 37 20q23 0 66.5 -44t43.5 -69q0 -17 -20 -34q-20 -18 -117.5 -90.5t-132.5 -94.5q-28 -16 -39 -16z" />
    <glyph glyph-name="zacute" unicode="&#x17a;" horiz-adv-x="1030" 
d="M115 0q-15 0 -26 9.5t-11 29.5q0 92 11 126.5t56 92.5l502 573q15 20 15 23q0 12 -15 12q-103 0 -216 -11t-185.5 -21.5t-77.5 -10.5q-23 0 -23 25q0 104 21.5 150t77.5 46h653q41 0 41 -36q0 -96 -9.5 -129t-51.5 -82l-502 -574q-17 -17 -17 -24q0 -13 17 -13
q117 0 248 11t216 22.5t91 11.5q22 0 22 -24q0 -104 -27.5 -155.5t-86.5 -51.5h-723zM479 1116q-13 0 -36 25t-23 37q0 14 18 36q15 18 203 230q24 20 37 20q23 0 66.5 -43.5t43.5 -68.5q0 -18 -20 -35q-19 -18 -117 -89.5t-133 -94.5q-30 -17 -39 -17z" />
    <glyph glyph-name="Zdotaccent" unicode="&#x17b;" horiz-adv-x="1267" 
d="M379 197h395q110 0 196 10.5t128.5 21.5t46.5 11q22 0 22 -33q0 -109 -19.5 -158t-72.5 -49h-930q-45 0 -45 115q0 71 25 106l741 955h-340q-109 0 -192.5 -10t-124.5 -20.5t-45 -10.5q-23 0 -23 30q0 109 19 158t71 49h865q45 0 45 -115q0 -73 -31 -114zM629 1493
q-123 0 -123 133q0 135 123 135q63 0 97 -34.5t34 -100.5q0 -69 -32.5 -101t-98.5 -32z" />
    <glyph glyph-name="zdotaccent" unicode="&#x17c;" horiz-adv-x="1030" 
d="M115 0q-15 0 -26 9.5t-11 29.5q0 92 11 126.5t56 92.5l502 573q15 20 15 23q0 12 -15 12q-103 0 -216 -11t-185.5 -21.5t-77.5 -10.5q-23 0 -23 25q0 104 21.5 150t77.5 46h653q41 0 41 -36q0 -96 -9.5 -129t-51.5 -82l-502 -574q-17 -17 -17 -24q0 -13 17 -13
q117 0 248 11t216 22.5t91 11.5q22 0 22 -24q0 -104 -27.5 -155.5t-86.5 -51.5h-723zM559 1149q-123 0 -123 133q0 135 123 135q63 0 97 -34.5t34 -100.5q0 -69 -32.5 -101t-98.5 -32z" />
    <glyph glyph-name="Zcaron" unicode="&#x17d;" horiz-adv-x="1267" 
d="M379 197h395q110 0 196 10.5t128.5 21.5t46.5 11q22 0 22 -33q0 -109 -19.5 -158t-72.5 -49h-930q-45 0 -45 115q0 71 25 106l741 955h-340q-109 0 -192.5 -10t-124.5 -20.5t-45 -10.5q-23 0 -23 30q0 109 19 158t71 49h865q45 0 45 -115q0 -73 -31 -114zM635 1491
q-9 0 -18 2t-15 4.5t-14 8.5t-11.5 8.5t-11.5 10t-10 9.5l-184 197q-15 15 -15 30t15 27l55 47q11 8 27 8q23 0 32 -12l148 -158l151 158q9 12 33 12q18 0 29 -8l53 -45q12 -12 12 -29q0 -13 -10 -30l-184 -197q-1 -1 -7.5 -6.5t-8.5 -7.5t-8 -7t-10 -7.5t-10 -5.5
t-11.5 -4.5t-12.5 -3t-14 -1.5z" />
    <glyph glyph-name="zcaron" unicode="&#x17e;" horiz-adv-x="1030" 
d="M115 0q-15 0 -26 9.5t-11 29.5q0 92 11 126.5t56 92.5l502 573q15 20 15 23q0 12 -15 12q-103 0 -216 -11t-185.5 -21.5t-77.5 -10.5q-23 0 -23 25q0 104 21.5 150t77.5 46h653q41 0 41 -36q0 -96 -9.5 -129t-51.5 -82l-502 -574q-17 -17 -17 -24q0 -13 17 -13
q117 0 248 11t216 22.5t91 11.5q22 0 22 -24q0 -104 -27.5 -155.5t-86.5 -51.5h-723zM547 1137q-9 0 -18 2t-15 4.5t-14 8.5t-11.5 8.5t-11.5 10t-10 9.5l-184 196q-15 15 -15 31q0 15 15 27l55 47q11 8 27 8q23 0 32 -12l148 -158l151 158q9 12 33 12q18 0 29 -8l53 -45
q12 -12 12 -29q0 -14 -10 -31l-184 -196q-1 -1 -7.5 -6.5t-8.5 -7.5t-8 -7t-10 -7.5t-10 -5.5t-11.5 -4.5t-12.5 -3t-14 -1.5z" />
    <glyph glyph-name="florin" unicode="&#x192;" horiz-adv-x="751" 
d="M285 764h-72q-23 0 -33 14.5t-10 61.5q0 43 11 58t34 15h70v281q0 155 80.5 260t230.5 105q75 0 116.5 -26.5t41.5 -57.5q0 -25 -25.5 -54.5t-44.5 -29.5q-8 0 -40.5 16t-74.5 16t-67 -31.5t-33 -79.5t-8 -122v-277h160q23 0 34 -15t11 -58q0 -47 -10 -61.5t-33 -14.5
h-162v-533q0 -161 -84 -263.5t-242 -102.5q-75 0 -116.5 26.5t-41.5 57.5q0 23 25.5 53.5t44.5 30.5q8 0 41.5 -17.5t73.5 -17.5q62 0 92.5 65.5t30.5 172.5v528z" />
    <glyph glyph-name="Scommaaccent" unicode="&#x218;" horiz-adv-x="1136" 
d="M578 -18q-82 0 -163 20.5t-136.5 50t-91.5 59t-42 48.5q-26 62 -20 151q6 29 29 29q10 0 46.5 -25.5t82 -55.5t125.5 -55.5t167 -25.5q117 0 184.5 56.5t67.5 146.5q0 60 -38.5 104.5t-100 72t-135.5 52t-148 54.5t-135.5 70t-100 107.5t-38.5 157.5q0 113 65.5 203.5
t176 139.5t243.5 49q72 0 136.5 -14t106 -35t72.5 -44.5t44.5 -42.5t13.5 -30q0 -26 -33.5 -69.5t-56.5 -43.5q-12 0 -36 14t-51.5 31t-79 31t-111.5 14q-125 0 -195 -49t-70 -139q0 -48 24 -85t64.5 -61.5t93 -45t110.5 -39t115.5 -39t110 -50t93 -67t64.5 -95t24 -129.5
q0 -189 -130 -305t-347 -116zM463 -621q-16 0 -26.5 8.5t-10.5 22.5q0 17 18.5 41.5t37 55t18.5 63.5q0 20 -12 35.5t-24.5 47.5t-12.5 91q0 123 133 123q64 0 95.5 -30.5t31.5 -100.5q0 -67 -28 -134.5t-67.5 -115t-81.5 -77.5t-71 -30z" />
    <glyph glyph-name="scommaaccent" unicode="&#x219;" horiz-adv-x="954" 
d="M489 -18q-84 0 -164.5 22t-132 52.5t-83 59t-31.5 44.5q0 28 42.5 76.5t63.5 48.5q11 0 40 -22t63 -48t91 -48t116 -22q76 0 119.5 37.5t43.5 102.5q0 28 -13 51t-29 38t-51 31t-57 24t-69 24q-44 14 -66.5 22t-63 24.5t-62.5 30t-51 36.5t-43.5 47t-25.5 57.5t-11 72.5
q0 146 111.5 233t293.5 87q79 0 144.5 -16t102.5 -39t57 -45.5t20 -38.5q0 -28 -41.5 -76.5t-67.5 -48.5q-7 0 -26 17t-42 37t-67.5 37t-97.5 17q-74 0 -122 -37t-48 -96q0 -28 12.5 -50.5t27.5 -36.5t49.5 -29.5t55 -22.5t66.5 -21q141 -43 196 -73q138 -77 138 -226
t-109.5 -241t-278.5 -92zM371 -621q-16 0 -26.5 8.5t-10.5 22.5q0 17 18.5 41.5t37 55t18.5 63.5q0 17 -8 30.5t-17 24.5t-17 41.5t-8 77.5q0 123 134 123q64 0 95 -30.5t31 -100.5q0 -67 -28 -134.5t-67 -115t-81 -77.5t-71 -30z" />
    <glyph glyph-name="circumflex" unicode="&#x2c6;" horiz-adv-x="727" 
d="M557 1182q-16 0 -35 16l-162 148l-153 -146q-20 -16 -37 -16q-18 0 -25 10l-61 55q-18 18 -18 37q0 15 14 29l203 186q20 17 34 22t45 5q33 0 48 -5.5t34 -21.5l203 -186q15 -15 15 -31t-19 -35l-57 -55q-12 -12 -29 -12z" />
    <glyph glyph-name="caron" unicode="&#x2c7;" horiz-adv-x="673" 
d="M334 1184q-9 0 -18 2t-15 4.5t-14 8.5t-11.5 8.5t-11.5 10t-10 9.5l-184 196q-15 15 -15 31q0 15 15 27l55 47q11 8 27 8q23 0 32 -12l148 -158l151 158q9 12 33 12q18 0 29 -8l53 -45q12 -12 12 -29q0 -14 -10 -31l-184 -196q-1 -1 -7.5 -6.5t-8.5 -7.5t-8 -7t-10 -7.5
t-10 -5.5t-11.5 -4.5t-12.5 -3t-14 -1.5z" />
    <glyph glyph-name="breve" unicode="&#x2d8;" horiz-adv-x="661" 
d="M330 1192q-59 0 -115 28.5t-92 67t-58 75t-22 56.5q0 30 32 55t60 25q30 0 58 -49q69 -113 139 -113q67 0 137 111q31 51 55 51q29 0 60.5 -25t31.5 -55q0 -20 -21.5 -56.5t-57 -75t-92 -67t-115.5 -28.5z" />
    <glyph glyph-name="dotaccent" unicode="&#x2d9;" horiz-adv-x="348" 
d="M170 1204q-123 0 -123 133q0 136 123 136q62 0 96.5 -34.5t34.5 -101.5q0 -69 -32.5 -101t-98.5 -32z" />
    <glyph glyph-name="ring" unicode="&#x2da;" horiz-adv-x="491" 
d="M244 1178q-85 0 -144 57t-59 139q0 83 60 142t143 59q85 0 146 -59t61 -142q0 -81 -61 -138.5t-146 -57.5zM244 1470q-35 0 -59.5 -28.5t-24.5 -67.5t24 -66.5t60 -27.5q38 0 62 27.5t24 66.5t-25 67.5t-61 28.5z" />
    <glyph glyph-name="ogonek" unicode="&#x2db;" horiz-adv-x="438" 
d="M240 -399q-86 0 -146.5 54t-60.5 142q0 38 15 74t44.5 67.5t49 49t51.5 41.5q33 20 45 20q17 0 46 -17.5t29 -27.5q0 -7 -24 -31q-38 -32 -70.5 -78t-32.5 -92q0 -31 15 -48t43 -17q20 0 40 10t35 10q25 0 45.5 -27.5t20.5 -54.5q0 -32 -44 -53.5t-101 -21.5z" />
    <glyph glyph-name="tilde" unicode="&#x2dc;" horiz-adv-x="792" 
d="M168 1214q-15 -12 -25 -12q-16 0 -54 41.5t-38 54.5q0 18 21 39q35 43 87 69t107 26q45 0 96 -21.5t93 -43t67 -21.5q44 0 96 65q9 12 19 12q14 0 52 -41.5t38 -56.5q0 -37 -59 -84t-131 -47q-48 0 -98 21t-94 42t-77 21q-25 0 -90 -56q-7 -5 -10 -8z" />
    <glyph glyph-name="hungarumlaut" unicode="&#x2dd;" horiz-adv-x="790" 
d="M109 1182q-13 0 -36.5 24.5t-23.5 36.5q0 14 19 37q18 21 202 229q25 21 37 21q23 0 67 -44t44 -69q0 -17 -21 -35q-19 -18 -117 -89.5t-133 -94.5q-28 -16 -38 -16zM432 1182q-13 0 -36 24.5t-23 36.5q0 15 18 37q15 17 57 65t90.5 102t55.5 62q25 21 37 21
q23 0 66.5 -44t43.5 -69q0 -18 -20 -35q-19 -18 -117 -89.5t-133 -94.5q-28 -16 -39 -16z" />
    <glyph glyph-name="endash" unicode="&#x2013;" horiz-adv-x="976" 
d="M115 772h753q20 0 30.5 -21t10.5 -81t-10 -81.5t-31 -21.5h-753q-21 0 -32 22t-11 81t11 80.5t32 21.5z" />
    <glyph glyph-name="emdash" unicode="&#x2014;" horiz-adv-x="1339" 
d="M98 772h1143q21 0 32 -21t11 -81t-11 -81.5t-32 -21.5h-1143q-41 0 -41 103q0 59 10 80.5t31 21.5z" />
    <glyph glyph-name="quoteleft" unicode="&#x2018;" horiz-adv-x="606" 
d="M422 1391q16 0 27.5 -8.5t11.5 -24.5q0 -21 -39 -74q-39 -54 -39 -98q0 -18 8.5 -33t18 -26.5t18 -44.5t8.5 -83q0 -135 -143 -135q-71 0 -106 33.5t-35 108.5q0 72 30.5 145t74 124t89 83.5t76.5 32.5z" />
    <glyph glyph-name="quoteright" unicode="&#x2019;" horiz-adv-x="606" 
d="M184 864q-16 0 -27.5 9.5t-11.5 25.5q0 9 4 19t8 15.5t14.5 19t14.5 18.5q1 2 5 8.5t6 9t5.5 9t5 9.5l4.5 9t4.5 10t3.5 10t3 11t1.5 10.5t0.5 11.5q0 19 -8.5 34t-18 26.5t-18 44.5t-8.5 83q0 134 143 134q70 0 105 -33t35 -109q0 -72 -30.5 -145t-74 -124t-89.5 -83.5
t-77 -32.5z" />
    <glyph glyph-name="quotesinglbase" unicode="&#x201a;" horiz-adv-x="581" 
d="M182 -174q-16 0 -26.5 8.5t-10.5 22.5q0 6 1.5 12t6.5 14l7.5 12t11 15t10.5 14q37 51 37 90q0 17 -7.5 31t-17 25t-17 41t-7.5 77q0 123 133 123q64 0 95.5 -30.5t31.5 -100.5q0 -66 -28 -133t-67.5 -114t-81.5 -77t-71 -30z" />
    <glyph glyph-name="quotedblleft" unicode="&#x201c;" horiz-adv-x="993" 
d="M809 1391q16 0 27.5 -8.5t11.5 -24.5q0 -8 -4 -18.5t-8 -16.5t-14 -20t-13 -19q-39 -54 -39 -98q0 -18 8 -33t17.5 -26.5t17.5 -44.5t8 -83q0 -135 -143 -135q-69 0 -104 33.5t-35 108.5q0 72 30.5 145t74 124t89 83.5t76.5 32.5zM422 1391q16 0 27.5 -8.5t11.5 -24.5
q0 -21 -39 -74q-39 -54 -39 -98q0 -18 8.5 -33t18 -26.5t18 -44.5t8.5 -83q0 -135 -143 -135q-71 0 -106 33.5t-35 108.5q0 72 30.5 145t74 124t89 83.5t76.5 32.5z" />
    <glyph glyph-name="quotedblright" unicode="&#x201d;" horiz-adv-x="993" 
d="M184 864q-16 0 -27.5 9.5t-11.5 25.5q0 9 4 19t8 15.5t14.5 19t14.5 18.5q1 2 5 8.5t6 9t5.5 9t5 9.5l4.5 9t4.5 10t3.5 10t3 11t1.5 10.5t0.5 11.5q0 19 -8.5 34t-18 26.5t-18 44.5t-8.5 83q0 134 143 134q70 0 105 -33t35 -109q0 -72 -30.5 -145t-74 -124t-89.5 -83.5
t-77 -32.5zM571 864q-16 0 -27.5 9.5t-11.5 25.5q0 9 4 19t8 15.5t14.5 19t14.5 18.5q37 60 37 98q0 19 -8.5 34t-18 26.5t-18 44.5t-8.5 83q0 134 143 134q71 0 106.5 -33t35.5 -109q0 -72 -30.5 -145t-74 -124t-89.5 -83.5t-77 -32.5z" />
    <glyph glyph-name="quotedblbase" unicode="&#x201e;" horiz-adv-x="944" 
d="M182 -174q-16 0 -26.5 8.5t-10.5 22.5q0 6 1.5 12t6.5 14l7.5 12t11 15t10.5 14q37 51 37 90q0 17 -7.5 31t-17 25t-17 41t-7.5 77q0 123 133 123q64 0 95.5 -30.5t31.5 -100.5q0 -66 -28 -133t-67.5 -114t-81.5 -77t-71 -30zM543 -174q-14 0 -24.5 8.5t-10.5 22.5
q0 6 1.5 12t6.5 14l7.5 12t11 15t10.5 14q35 49 35 90q0 17 -8 31t-17 25t-17 41t-8 77q0 123 134 123q65 0 97 -30.5t32 -100.5q0 -66 -28.5 -133t-68.5 -114t-82 -77t-71 -30z" />
    <glyph glyph-name="dagger" unicode="&#x2020;" horiz-adv-x="759" 
d="M629 844h-158v-944q0 -22 -13.5 -38t-39.5 -16h-80q-23 0 -37 14.5t-14 39.5v944h-154q-27 0 -40 17.5t-13 64.5q0 49 12.5 67.5t38.5 18.5h156v407q0 25 13.5 40.5t37.5 15.5h80q24 0 38.5 -15.5t14.5 -40.5v-407h158q51 0 51 -86q0 -82 -51 -82z" />
    <glyph glyph-name="daggerdbl" unicode="&#x2021;" horiz-adv-x="821" 
d="M682 233h-180v-362q0 -22 -13.5 -37.5t-39.5 -15.5h-80q-23 0 -37.5 14t-14.5 39v362h-184q-25 0 -39 14.5t-14 37.5q0 121 61 121h176v442h-184q-25 0 -39 14t-14 37q0 119 61 119h176v401q0 25 14 40.5t38 15.5h80q25 0 39 -15t14 -41v-401h188q22 0 36.5 -12.5
t14.5 -38.5q0 -119 -59 -119h-180v-442h188q22 0 36.5 -14t14.5 -40q0 -119 -59 -119z" />
    <glyph glyph-name="bullet" unicode="&#x2022;" horiz-adv-x="524" 
d="M256 500q-145 0 -145 164q0 165 145 165t145 -165q0 -164 -145 -164z" />
    <glyph glyph-name="ellipsis" unicode="&#x2026;" horiz-adv-x="1761" 
d="M291 -14q-131 0 -131 147q0 152 131 152q66 0 102.5 -38.5t36.5 -113.5q0 -147 -139 -147zM877 -14q-134 0 -134 147q0 75 35 113.5t99 38.5q66 0 102.5 -38.5t36.5 -113.5q0 -147 -139 -147zM1462 -14q-133 0 -133 147q0 75 34.5 113.5t98.5 38.5q66 0 103 -38.5
t37 -113.5q0 -147 -140 -147z" />
    <glyph glyph-name="perthousand" unicode="&#x2030;" horiz-adv-x="2617" 
d="M424 657q-158 0 -261.5 95.5t-103.5 267.5q0 167 103.5 259.5t261.5 92.5q156 0 259 -92.5t103 -259.5q0 -172 -103 -267.5t-259 -95.5zM424 813q82 0 133 49.5t51 157.5q0 106 -51 153.5t-133 47.5q-84 0 -135 -47.5t-51 -153.5q0 -109 51 -158t135 -49zM1315 1300
l-625 -1255q-11 -23 -35 -34t-88 -11q-61 0 -81.5 11t-20.5 38q0 23 8 39l619 1239q9 15 17.5 22.5t35 15t69.5 7.5q64 0 87.5 -9t23.5 -34q0 -11 -10 -29zM1376 -10q-158 0 -261 95t-103 267q0 167 103 260t261 93q156 0 259.5 -93t103.5 -260q0 -172 -103 -267t-260 -95z
M1376 145q82 0 133.5 49.5t51.5 157.5q0 105 -51 153t-134 48q-84 0 -135 -47.5t-51 -153.5q0 -109 51 -158t135 -49zM2175 -10q-158 0 -261.5 95t-103.5 267q0 167 103.5 260t261.5 93q156 0 259 -93t103 -260q0 -172 -102.5 -267t-259.5 -95zM2175 145q82 0 133 49.5
t51 157.5q0 106 -51 153.5t-133 47.5q-84 0 -135 -47.5t-51 -153.5q0 -109 51 -158t135 -49z" />
    <glyph glyph-name="guilsinglleft" unicode="&#x2039;" horiz-adv-x="768" 
d="M672 788q-159 -112 -262 -191.5t-121 -100.5q-23 -19 -23 -35q0 -18 19 -31q72 -55 199.5 -147t187.5 -129q31 -22 20 -39l-43 -78q-12 -21 -39 -21q-16 0 -32 13q-111 78 -224.5 156.5t-169 116.5t-71.5 52q-39 31 -39 99q0 42 35 92q10 13 38 38t78 63.5t96.5 73.5
t125 94t131.5 99q19 15 34 15q25 0 39 -21l35 -51q8 -11 8 -29q0 -23 -22 -39z" />
    <glyph glyph-name="guilsinglright" unicode="&#x203a;" horiz-adv-x="768" 
d="M102 788q-22 16 -22 39q0 18 8 29l35 51q14 21 39 21q16 0 35 -15q53 -40 131.5 -99t125 -94t96.5 -73.5t78 -63.5t38 -38q34 -49 34 -92q0 -69 -38 -99q-16 -14 -71.5 -52t-169 -116.5t-224.5 -156.5q-16 -13 -33 -13q-27 0 -39 21l-43 78q-11 17 20 39q60 37 187.5 129
t199.5 147q19 13 19 31q0 16 -23 35q-18 21 -121 100.5t-262 191.5z" />
    <glyph glyph-name="fraction" unicode="&#x2044;" horiz-adv-x="1005" 
d="M926 1300l-625 -1255q-11 -23 -35 -34t-88 -11q-61 0 -81.5 11t-20.5 38q0 23 8 39l618 1239q9 15 18 23t35.5 15t69.5 7q64 0 87.5 -9t23.5 -34q0 -11 -10 -29z" />
    <glyph glyph-name="zerosuperior" unicode="&#x2070;" horiz-adv-x="1167" 
d="M580 319q-222 0 -340.5 134.5t-118.5 398.5q0 257 127 392.5t332 135.5t330.5 -135t125.5 -393q0 -262 -121 -397.5t-335 -135.5zM580 496q123 0 187 82.5t64 271.5q0 350 -251 350q-252 0 -252 -350q0 -191 62.5 -272.5t189.5 -81.5z" />
    <glyph glyph-name="foursuperior" unicode="&#x2074;" horiz-adv-x="942" 
d="M721 340q-109 0 -109 31v184h-489q-13 0 -22 22.5t-9 63.5q0 86 19 113l458 583q22 31 107 31q125 0 125 -33q0 -12 -6 -20l-449 -576h266v205q0 25 19 47l141 180q15 21 33 21q22 0 22 -29v-792q0 -31 -106 -31z" />
    <glyph glyph-name="fivesuperior" unicode="&#x2075;" horiz-adv-x="958" 
d="M442 326q-124 0 -217 44t-106 81q-25 55 -25 145q0 22 19 22q9 0 40.5 -18t69.5 -40t99 -40t122 -18q92 0 148.5 57t56.5 148q0 100 -44 145t-136 45q-56 0 -103 -12.5t-71 -27.5t-45 -27.5t-31 -12.5q-28 0 -67 27t-39 55v440q0 31 28 31h615q30 0 30 -92t-30 -92h-447
v-162q8 4 24 10.5t68.5 17.5t108.5 11q89 0 164.5 -38t125.5 -119t50 -191q0 -174 -113 -281.5t-295 -107.5z" />
    <glyph glyph-name="sixsuperior" unicode="&#x2076;" horiz-adv-x="1056" 
d="M549 319q-194 0 -317 122.5t-123 330.5q0 146 36.5 262.5t101 191.5t150.5 114.5t187 39.5q62 0 115.5 -11t88 -27t60 -35t36.5 -34.5t11 -25.5q0 -24 -30 -65t-50 -41q-10 0 -36 16.5t-76 33.5t-119 17q-56 0 -104 -25t-75.5 -60t-47.5 -70.5t-27 -60.5l-8 -25l11 11
t32 24t53 30t73 24t93 11q157 0 260.5 -100.5t103.5 -261.5q0 -99 -46 -185.5t-139 -143.5t-214 -57zM305 700q0 -93 67.5 -157t170.5 -64q100 0 159.5 65t59.5 167q0 92 -54 148t-147 56q-97 0 -176.5 -62.5t-79.5 -152.5z" />
    <glyph glyph-name="sevensuperior" unicode="&#x2077;" horiz-adv-x="870" 
d="M217 342q-113 0 -113 31q0 14 27 78t82.5 173t120.5 216q63 104 122 190.5t87 121.5l28 34h-469q-30 0 -30 92t30 92h676q12 0 20.5 -8t8.5 -23l-2 -104q0 -48 -33 -88q-137 -183 -278 -418q-90 -153 -160 -356q-12 -31 -117 -31z" />
    <glyph glyph-name="eightsuperior" unicode="&#x2078;" horiz-adv-x="976" 
d="M487 322q-181 0 -292 81t-111 236q0 52 15.5 97.5t37.5 73t43.5 47.5t37.5 28l15 8q-5 3 -12.5 9t-26.5 26t-34 43t-27 59.5t-12 75.5q0 115 108.5 195.5t257.5 80.5t257 -80.5t108 -195.5q0 -39 -11.5 -75t-28 -60t-32.5 -42.5t-28 -26.5l-11 -9q6 -3 16 -8.5t36 -27.5
t46 -48.5t36 -72t16 -97.5q0 -155 -112 -236t-292 -81zM487 934q58 0 114 50.5t56 113.5q0 72 -45.5 107.5t-124.5 35.5q-76 0 -123 -39t-47 -102q0 -68 49.5 -117t120.5 -49zM487 487q93 0 145 41t52 109t-59 109.5t-138 41.5q-80 0 -138 -41t-58 -108q0 -70 51.5 -111
t144.5 -41z" />
    <glyph glyph-name="ninesuperior" unicode="&#x2079;" horiz-adv-x="1024" 
d="M451 319q-95 0 -168.5 30.5t-85.5 62.5q-29 67 -29 133q0 22 20 22q9 0 42 -19.5t88.5 -39t119.5 -19.5q68 0 120.5 23t83.5 60.5t48 77.5t23 83l-11 -11t-31.5 -24.5t-52 -31t-71.5 -24.5t-90 -11q-159 0 -264 94.5t-105 249.5q0 166 114 285.5t298 119.5
q87 0 161.5 -27.5t133 -81.5t92 -142.5t33.5 -202.5q0 -288 -131.5 -447.5t-337.5 -159.5zM717 1006q0 95 -56 155t-157 60t-166.5 -67t-65.5 -173q0 -90 57 -143.5t158 -53.5q103 0 166.5 63.5t63.5 158.5z" />
    <glyph glyph-name="zeroinferior" unicode="&#x2080;" horiz-adv-x="1167" 
d="M580 -10q-222 0 -340.5 134t-118.5 398q0 258 127 393.5t332 135.5t330.5 -135.5t125.5 -393.5q0 -262 -121 -397t-335 -135zM580 166q123 0 187 82.5t64 271.5q0 350 -251 350q-252 0 -252 -350q0 -191 62.5 -272.5t189.5 -81.5z" />
    <glyph glyph-name="oneinferior" unicode="&#x2081;" 
d="M301 -10q-106 0 -106 30v691h-109q-37 0 -37 34q0 25 141 232q1 2 6 8t6 7.5t5.5 6t7 5.5t7.5 4.5t9.5 4t12 2t15.5 2t18.5 1t23.5 0.5q109 0 109 -31v-967q0 -30 -109 -30z" />
    <glyph glyph-name="twoinferior" unicode="&#x2082;" horiz-adv-x="905" 
d="M133 0q-13 0 -21 8t-8 23v108q0 15 5 26.5t8.5 15.5t15.5 14q10 8 59 48.5t81.5 68.5t85 75.5t88 88t71 87.5t54 92t18.5 84q0 55 -38.5 86t-107.5 31q-74 0 -147 -31q-9 -5 -22 -12.5t-20 -11.5t-14.5 -7t-13.5 -3q-20 0 -50 41t-30 65q0 12 23.5 35.5t62.5 49t100.5 44
t125.5 18.5q158 0 248 -80t90 -214q0 -79 -43 -166.5t-104 -156t-122 -125t-104 -87.5l-43 -31h383q31 0 31 -92t-31 -92h-631z" />
    <glyph glyph-name="threeinferior" unicode="&#x2083;" horiz-adv-x="874" 
d="M430 -10q-124 0 -216 44t-105 83q-25 53 -25 143q0 23 18 23q9 0 35.5 -18.5t59 -40t89 -40t117.5 -18.5q80 0 124 40t44 107q0 80 -57 115t-166 35q-61 0 -61 100q0 38 11.5 50.5t43.5 21.5q67 19 122.5 60t55.5 98q0 39 -28.5 60t-75.5 21q-76 0 -154 -38
q-13 -7 -30 -17.5t-27 -16t-17 -5.5q-20 0 -49.5 41t-29.5 65q0 12 23 35.5t61.5 49t100 44.5t126.5 19q148 0 227.5 -65t77.5 -163q-1 -43 -16.5 -84t-38 -69t-44.5 -49.5t-38 -32.5l-15 -10q8 -2 21 -6t46.5 -23.5t59.5 -46t47 -76.5t21 -111q0 -136 -98.5 -230.5
t-239.5 -94.5z" />
    <glyph glyph-name="fourinferior" unicode="&#x2084;" horiz-adv-x="942" 
d="M721 -10q-109 0 -109 30v185h-489q-13 0 -22 22.5t-9 63.5q0 85 19 112l458 584q22 31 107 31q125 0 125 -33q0 -12 -6 -20l-449 -576h266v205q0 25 19 47l141 180q15 21 33 21q22 0 22 -29v-793q0 -30 -106 -30z" />
    <glyph glyph-name="fiveinferior" unicode="&#x2085;" horiz-adv-x="958" 
d="M442 -10q-124 0 -217 44t-106 81q-25 55 -25 145q0 23 19 23q9 0 40.5 -18.5t69.5 -40t99 -40t122 -18.5q92 0 148.5 57t56.5 148q0 100 -44 145t-136 45q-56 0 -103 -12.5t-71 -27.5t-45 -27.5t-31 -12.5q-28 0 -67 27t-39 55v441q0 30 28 30h615q30 0 30 -92t-30 -92
h-447v-162q8 4 24 10.5t68.5 17.5t108.5 11q89 0 164.5 -38t125.5 -119t50 -191q0 -174 -113 -281.5t-295 -107.5z" />
    <glyph glyph-name="sixinferior" unicode="&#x2086;" horiz-adv-x="1056" 
d="M549 -10q-194 0 -317 122t-123 330q0 146 36.5 263t101 192t150.5 114.5t187 39.5q62 0 115.5 -11t88 -27t60 -35t36.5 -34.5t11 -25.5q0 -24 -30 -65.5t-50 -41.5q-10 0 -28.5 10.5t-40 23.5t-65 23.5t-97.5 10.5q-56 0 -104 -25t-75.5 -60.5t-47.5 -71t-27 -60.5
l-8 -25l11 11t32 24t53 30t73 24t93 11q157 0 260.5 -100.5t103.5 -261.5q0 -73 -27.5 -141.5t-77 -123t-126.5 -87.5t-168 -33zM305 371q0 -93 67.5 -157t170.5 -64q100 0 159.5 65t59.5 166q0 92 -54 148.5t-147 56.5q-97 0 -176.5 -62.5t-79.5 -152.5z" />
    <glyph glyph-name="seveninferior" unicode="&#x2087;" horiz-adv-x="870" 
d="M217 -10q-113 0 -113 30q0 14 27 78t82.5 173t120.5 216q63 104 122 190.5t87 121.5l28 35h-469q-30 0 -30 92t30 92h676q12 0 20.5 -8t8.5 -23l-2 -104q0 -48 -33 -88q-137 -183 -278 -418q-90 -152 -160 -357q-11 -30 -117 -30z" />
    <glyph glyph-name="eightinferior" unicode="&#x2088;" horiz-adv-x="976" 
d="M487 -10q-181 0 -292 81t-111 236q0 52 15.5 97.5t37.5 73t43.5 47.5t37.5 28l15 8q-5 3 -12.5 9t-26.5 26t-34 43t-27 59.5t-12 75.5q0 115 108.5 196t257.5 81t257 -81t108 -196q0 -39 -11.5 -75t-28 -60t-32.5 -42.5t-28 -26.5l-11 -9q6 -3 16 -8.5t36 -27.5t46 -48.5
t36 -72t16 -97.5q0 -155 -112 -236t-292 -81zM487 602q58 0 114 50.5t56 113.5q0 72 -45.5 107.5t-124.5 35.5q-76 0 -123 -39t-47 -102q0 -68 49.5 -117t120.5 -49zM487 156q93 0 145 40.5t52 108.5t-59 110t-138 42q-80 0 -138 -41.5t-58 -108.5q0 -70 51.5 -110.5
t144.5 -40.5z" />
    <glyph glyph-name="nineinferior" unicode="&#x2089;" horiz-adv-x="1024" 
d="M451 -8q-95 0 -168.5 30t-85.5 62q-29 67 -29 133q0 23 20 23q9 0 42 -19.5t88.5 -39t119.5 -19.5q68 0 120.5 23t83.5 60.5t48 77.5t23 83l-11 -11t-31.5 -25t-52 -31.5t-71.5 -24.5t-90 -11q-159 0 -264 94.5t-105 249.5q0 166 114 286t298 120q87 0 161.5 -27.5
t133 -82t92 -143t33.5 -202.5q0 -288 -131.5 -447t-337.5 -159zM717 678q0 95 -56 155t-157 60t-166.5 -67t-65.5 -173q0 -90 56.5 -143t158.5 -53q103 0 166.5 63t63.5 158z" />
    <glyph glyph-name="Euro" unicode="&#x20ac;" horiz-adv-x="1437" 
d="M113 745q-22 0 -34.5 15.5t-4.5 42.5l28 94q10 31 31 31h86q73 219 256 341t408 122q79 0 148 -13.5t113.5 -34t77 -44t46.5 -42t14 -30.5q0 -26 -34 -71.5t-56 -45.5q-11 0 -34.5 11.5t-51.5 25.5t-86 25.5t-129 11.5q-133 0 -245 -65.5t-171 -190.5h414
q23 0 35.5 -12.5t1.5 -38.5l-39 -97q-8 -21 -16.5 -28t-28.5 -7h-414q-4 -50 -4 -73v-41h465q23 0 35.5 -13t1.5 -40l-39 -95q-8 -21 -16.5 -27.5t-28.5 -6.5h-379q28 -69 76 -120.5t108.5 -81.5t127.5 -44.5t143 -14.5q87 0 167 21t125.5 46t81.5 46t45 21q23 0 23 -27
q0 -61 -37 -145q-11 -26 -69 -64t-161 -71t-208 -33q-153 0 -287 49t-240 156.5t-149 261.5h-96q-22 0 -34.5 13.5t-6.5 35.5l26 94q4 17 14 28t21 11h47v37q0 50 2 77h-69z" />
    <glyph glyph-name="trademark" unicode="&#x2122;" horiz-adv-x="1253" 
d="M702 655h-73q-17 0 -27 10.5t-10 26.5v647q0 17 11 28t28 11h69q41 0 52 -28q1 -2 23 -48.5t54 -113.5t50 -107q20 42 54 109t57 112.5t24 47.5q11 28 47 28h69q17 0 28 -11t11 -28v-647q0 -16 -9.5 -26.5t-26.5 -10.5h-76q-37 0 -37 37v332l-90 -166q-1 -1 -4 -4.5
t-5 -5.5t-6 -4.5t-8.5 -4t-9.5 -1.5h-31q-24 0 -37 26l-88 162v-334q0 -37 -39 -37zM299 653h-51q-23 0 -37 14.5t-14 37.5v528h-109q-23 0 -37 13.5t-14 35.5v45q0 23 14 37t37 14h387q21 0 36 -12.5t15 -38.5v-45q0 -22 -14 -35.5t-37 -13.5h-127v-528q0 -24 -13 -38
t-36 -14z" />
    <glyph glyph-name="Omega" unicode="&#x2126;" horiz-adv-x="1320" 
d="M469 0h-375q-61 0 -61 55v90q0 56 61 56h242q-33 29 -68 66.5t-79 98.5t-77 126t-56 150.5t-23 170.5q0 125 52.5 235t139 184.5t200 117.5t234.5 43q120 0 231.5 -43t196 -117.5t135 -184t50.5 -235.5q0 -84 -22 -168.5t-53.5 -149.5t-74 -126.5t-75.5 -99t-66 -68.5
h244q61 0 61 -56v-90q0 -55 -61 -55h-373q-59 0 -81.5 41.5t-22.5 114.5q0 26 31.5 71.5t77 103t90.5 125.5t76.5 160t31.5 187q0 195 -112 301t-284 106q-111 0 -202 -44t-149 -138.5t-58 -224.5q0 -95 33 -187t80 -160t94.5 -125.5t80.5 -103t33 -71.5q0 -73 -21.5 -114.5
t-80.5 -41.5z" />
    <glyph glyph-name="Delta" unicode="&#x2206;" horiz-adv-x="1185" 
d="M180 0q-54 0 -93.5 31.5t-39.5 81.5q0 38 63.5 220.5t134.5 368.5t153 394.5t89 228.5q15 43 39.5 68.5t71.5 25.5q45 0 65.5 -24t41.5 -80q432 -1107 432 -1204q0 -44 -21.5 -74t-62.5 -37h-873zM254 174q0 -5 0.5 -7.5t5.5 -4.5t14 -2h656q2 0 5 4.5t3 9.5
q-5 42 -144 424t-204 522q-64 -151 -197.5 -529t-138.5 -417z" />
    <glyph glyph-name="minus" unicode="&#x2212;" horiz-adv-x="1032" 
d="M137 772h758q21 0 32 -21t11 -81t-11 -81.5t-32 -21.5h-758q-21 0 -32 22t-11 81t11 80.5t32 21.5z" />
    <glyph glyph-name="infinity" unicode="&#x221e;" horiz-adv-x="1671" 
d="M1206 297q-115 0 -213 50.5t-196 141.5q-187 -159 -371 -159q-139 0 -233.5 81.5t-94.5 213.5t95 214.5t233 82.5q197 0 371 -156q195 188 409 188q160 0 263.5 -86t103.5 -243q0 -156 -103.5 -242t-263.5 -86zM426 489q90 0 160 43t116 97q-115 131 -278 131
q-83 0 -131.5 -36.5t-48.5 -98.5q0 -61 49 -98.5t133 -37.5zM1206 469q40 0 76 7.5t69 24t52.5 48.5t19.5 76q0 58 -35.5 95t-81.5 49.5t-102 12.5q-88 0 -168 -42t-139 -111q132 -160 309 -160z" />
    <glyph glyph-name="integral" unicode="&#x222b;" horiz-adv-x="819" 
d="M242 -145q-86 0 -139.5 31.5t-53.5 72.5q0 31 32.5 66.5t61.5 35.5q21 0 57.5 -18t61.5 -18q38 0 64.5 22t38 58.5t16 67.5t4.5 65q0 70 -13 151.5t-27.5 137.5t-41.5 151q-31 105 -46 161.5t-30.5 150t-15.5 173.5q0 164 87.5 270.5t240.5 106.5q87 0 139.5 -31.5
t52.5 -72.5q0 -31 -32 -67t-62 -36q-18 0 -56 18.5t-65 18.5q-34 0 -59 -18.5t-38 -50t-18.5 -66.5t-5.5 -76q0 -65 13.5 -144.5t28 -133.5t42.5 -150q29 -104 44.5 -166t30.5 -156.5t15 -175.5q0 -164 -86.5 -271t-240.5 -107z" />
    <glyph glyph-name="approxequal" unicode="&#x2248;" horiz-adv-x="1335" 
d="M1087 563q1 1 5 5.5t6.5 6.5l7.5 6t9 6t10.5 3.5t13.5 1.5q26 0 63 -37q39 -36 39 -59q0 -24 -25.5 -59.5t-66.5 -69.5t-102.5 -58t-124.5 -24q-67 0 -139 25t-124.5 55.5t-116.5 55.5t-116 25q-43 0 -91 -25t-87 -83q-22 -31 -51 -31q-23 0 -68 35q-39 42 -39 61
q0 24 27 59.5t71 69.5t108 58t128 24q57 0 131 -25t132 -55.5t120.5 -55.5t99.5 -25q44 0 94.5 28.5t85.5 81.5zM1085 928q22 28 50 28q29 0 65 -36q37 -34 37 -60q0 -24 -25.5 -59t-66.5 -69t-102.5 -58.5t-124.5 -24.5q-67 0 -139 25.5t-123.5 55.5t-115.5 55.5t-116 25.5
q-44 0 -92.5 -25.5t-87.5 -83.5q-17 -30 -51 -30q-24 0 -66 37q-39 36 -39 59q0 25 27 61t70 70t107 58t128 24q58 0 132 -25.5t132 -55.5t120 -55.5t99 -25.5q45 0 95.5 28.5t86.5 80.5z" />
    <glyph glyph-name="notequal" unicode="&#x2260;" horiz-adv-x="1114" 
d="M283 2q-38 0 -82.5 24t-44.5 58q0 13 8 29l170 379h-178q-23 0 -38.5 13.5t-15.5 35.5v49q0 23 14.5 37t39.5 14h252l79 178h-331q-24 0 -39 13t-15 36v50q0 23 14.5 37t39.5 14h403l264 542q14 31 47 31q41 0 83 -23.5t42 -58.5q0 -16 -6 -28l-217 -463h182q52 0 52 -51
v-50q0 -49 -52 -49h-256l-80 -178h336q52 0 52 -51v-49q0 -22 -14 -35.5t-38 -13.5h-409l-215 -457q-13 -33 -47 -33z" />
    <glyph glyph-name="lessequal" unicode="&#x2264;" horiz-adv-x="1132" 
d="M143 0q-25 0 -40 13.5t-15 37.5v47q0 52 55 52h801q55 0 55 -52v-47q0 -51 -55 -51h-801zM373 725l504 -319q20 -14 20 -41q0 -22 -29 -59.5t-55 -37.5q-22 0 -37 15l-598 381q-41 25 -41 73q0 47 41 74l598 381q18 14 37 14q25 0 54.5 -35.5t29.5 -60.5q0 -27 -20 -41
l-504 -319q-17 -9 -17 -13z" />
    <glyph glyph-name="greaterequal" unicode="&#x2265;" horiz-adv-x="1132" 
d="M143 -4q-55 0 -55 49v49q0 51 55 51h801q55 0 55 -51v-49q0 -49 -55 -49h-801zM213 406l506 319q14 10 14 12t-4 5l-8 6l-4 2l-504 319q-20 14 -20 41q0 24 28.5 60t54.5 36q20 0 37 -14l596 -383q43 -27 43 -74q0 -46 -43 -73l-598 -379q-15 -15 -37 -15q-26 0 -53.5 37
t-27.5 60q0 27 20 41z" />
    <glyph glyph-name="lozenge" unicode="&#x25ca;" horiz-adv-x="1087" 
d="M543 -12q-58 0 -115 94l-342 508q-36 49 -39 96q0 59 37 115q104 157 133 203q49 69 145 210q11 16 26.5 39t23.5 34.5t20 28.5t18.5 25t16 19.5t15.5 16.5t14 11.5t15 8.5t15 4t17 2q38 0 64 -27t89 -120q19 -27 29 -42l143 -208q9 -14 61 -91.5t75 -113.5
q39 -59 36 -115q-3 -52 -39 -96l-342 -508q-11 -18 -19 -29.5t-23.5 -29t-34 -26.5t-39.5 -9zM221 692q18 -45 141.5 -228t180.5 -253q57 68 180.5 251.5t142.5 229.5q-20 47 -144.5 237t-178.5 251q-53 -62 -177.5 -252t-144.5 -236z" />
    <glyph glyph-name="commaaccent" unicode="&#xf6c3;" horiz-adv-x="471" 
d="M131 -621q-16 0 -26.5 8.5t-10.5 22.5q0 17 18.5 41.5t37 55t18.5 63.5q0 20 -12 35.5t-24.5 47.5t-12.5 91q0 123 133 123q64 0 95.5 -30.5t31.5 -100.5q0 -67 -28 -134.5t-67.5 -115t-81.5 -77.5t-71 -30z" />
    <glyph glyph-name="apple" unicode="&#xf8ff;" horiz-adv-x="1413" 
d="M705 0q-134 0 -258.5 54.5t-215 145.5t-144.5 215.5t-54 258.5t54 258.5t144.5 215.5t215 145.5t258.5 54.5q135 0 259.5 -54.5t215 -145.5t144.5 -215.5t54 -258.5t-54 -258.5t-144.5 -215.5t-215 -145.5t-259.5 -54.5zM817 764q132 -29 240 -29q87 0 143.5 41t56.5 105
q0 48 -38.5 76t-96.5 28q-60 0 -92.5 -31.5t-32.5 -64.5q0 -13 16.5 -25t16.5 -24q0 -15 -11 -25t-28 -10q-20 0 -33.5 17.5t-13.5 43.5q0 51 52 98.5t130 47.5q75 0 121 -37q-75 128 -186 203q8 -11 8 -31q0 -90 -113.5 -155.5t-269.5 -65.5h-53q-33 -38 -76 -78l55 -23
q40 54 90 54q41 0 75 -30t40 -85zM842 459q66 -58 106.5 -118t40.5 -130q0 -55 -31 -102q162 75 259 219q-42 -27 -84 -27q-57 0 -95.5 36.5t-38.5 90.5q0 34 14.5 52t33.5 18q36 0 36 -33q0 -17 -20 -37q-16 -16 -16 -25q0 -31 22 -53t57 -22q47 0 77 42.5t30 96.5
q0 70 -46 114t-118 44q-71 0 -130.5 -43.5t-96.5 -122.5zM193 330q103 -149 260 -219q-31 39 -31 100q0 69 39 128t106 120q-36 79 -95 122.5t-132 43.5q-71 0 -115.5 -44t-44.5 -114q0 -53 28.5 -93t74.5 -40q39 0 60.5 20t21.5 49q0 8 -17 25q-20 20 -20 37q0 15 11 24
t26 9q19 0 34 -18t15 -52q0 -54 -38.5 -88.5t-96.5 -34.5q-44 0 -86 25zM510 1231q-59 0 -95 -31.5t-36 -85.5q0 -60 56.5 -102.5t156.5 -55.5q38 46 61 73.5t66.5 71t79 68t82 43.5t90.5 19q-123 63 -266 63q-102 0 -205 -39q69 0 116.5 -32.5t47.5 -92.5q0 -33 -15 -52
t-37 -19q-15 0 -26 10t-11 23q0 16 20.5 33t20.5 28q0 33 -26 55.5t-80 22.5zM96 778q-10 -69 -10 -104q0 -105 35 -201q3 74 67.5 126t153.5 52q80 0 148.5 -41t113.5 -118l80 71q-94 97 -94 180q0 28 6 43l-72 31q-137 -131 -280 -131q-59 0 -103.5 32t-44.5 60zM1069 651
q88 0 154 -47t67 -129q35 96 35 199q0 84 -29 182q-5 -70 -67 -120t-168 -50q-117 0 -246 29q-12 -71 -90 -152l80 -71q45 78 113.5 118.5t150.5 40.5zM565 72q67 -17 144 -17q71 0 135 15q-43 15 -73 66t-30 128q0 113 47 203l-83 78l-84 -82q49 -85 49 -199
q0 -77 -30.5 -127t-74.5 -65zM655 950h31q82 0 161 32.5t126 79.5t47 91q0 25 -15.5 39t-43.5 14q-44 0 -92.5 -31.5t-79.5 -65.5t-75.5 -89t-58.5 -70zM238 928q103 0 268 -62q23 20 63 66q-117 14 -183.5 59.5t-66.5 112.5q0 36 21 67q-158 -116 -215 -288q42 45 113 45z
M242 899q-38 0 -64 -23t-26 -57q0 -35 28 -58.5t68 -23.5q104 0 223 101q-153 61 -229 61zM827 422q-28 -76 -28 -162q0 -77 20 -122.5t55 -45.5q28 0 43 33t15 78q0 102 -105 219zM584 420q-107 -115 -107 -217q0 -50 17 -80.5t45 -30.5q34 0 52.5 44t18.5 124
q0 84 -26 160zM702 856q-22 0 -40.5 -28t-18.5 -83q0 -83 59 -161q62 71 62 147q0 125 -62 125z" />
    <glyph glyph-name="AE.smcp" horiz-adv-x="1521" 
d="M682 1096h672q10 0 16.5 -7t11 -29.5t4.5 -62.5t-4.5 -62.5t-11 -29t-16.5 -6.5h-473v-254h374q10 0 16.5 -6.5t11.5 -29t5 -62.5q0 -96 -33 -96h-374v-254h505q33 0 33 -99q0 -40 -5 -62.5t-11.5 -29t-16.5 -6.5h-688q-12 0 -21 9t-9 24v164h-308q-18 0 -30 -23
l-70 -141q-11 -19 -34.5 -26t-88.5 -7q-47 0 -72.5 3t-34 8t-7.5 14q1 8 16 45l498 972q15 31 45.5 42.5t99.5 11.5zM426 389q-3 -20 20 -20h222v528z" />
    <glyph glyph-name="Aacute.smcp" horiz-adv-x="1134" 
d="M434 369h266q23 0 23 20l-135 383q-9 23 -21 23q-11 0 -20 -23l-135 -383q0 -20 22 -20zM768 197h-401q-23 0 -31 -21l-51 -143q-8 -19 -31 -26t-90 -7q-47 0 -71.5 3t-31 8t-6.5 14q0 8 11 45l372 974q11 32 36 43t93 11t93 -11t36 -43l373 -974q10 -33 10 -45
q0 -9 -6 -14t-30.5 -8t-71.5 -3q-67 0 -90 7t-31 26l-51 143q-8 21 -31 21zM442 1163q-13 0 -36 25t-23 37q0 15 18 37q15 17 57 65t90.5 102t55.5 62q24 20 37 20q23 0 67 -43.5t44 -68.5q0 -17 -21 -35q-19 -18 -117 -89.5t-133 -94.5q-30 -17 -39 -17z" />
    <glyph glyph-name="Abreve.smcp" horiz-adv-x="1134" 
d="M434 369h266q23 0 23 20l-135 383q-9 23 -21 23q-11 0 -20 -23l-135 -383q0 -20 22 -20zM768 197h-401q-23 0 -31 -21l-51 -143q-8 -19 -31 -26t-90 -7q-47 0 -71.5 3t-31 8t-6.5 14q0 8 11 45l372 974q11 32 36 43t93 11t93 -11t36 -43l373 -974q10 -33 10 -45
q0 -9 -6 -14t-30.5 -8t-71.5 -3q-67 0 -90 7t-31 26l-51 143q-8 21 -31 21zM567 1178q-59 0 -115 28.5t-91.5 67t-57.5 75t-22 56.5q0 30 32 55t60 25q17 0 29.5 -11.5t27.5 -37.5q69 -113 139 -113q68 0 138 111q31 51 55 51q29 0 60.5 -25t31.5 -55q0 -20 -21.5 -56.5
t-57.5 -75t-92.5 -67t-115.5 -28.5z" />
    <glyph glyph-name="Acircumflex.smcp" horiz-adv-x="1134" 
d="M768 197h-401q-23 0 -31 -21l-51 -143q-8 -19 -31 -26t-90 -7q-47 0 -71.5 3t-31 8t-6.5 14q0 8 11 45l372 974q11 32 36 43t93 11t93 -11t36 -43l373 -974q10 -33 10 -45q0 -9 -6 -14t-30.5 -8t-71.5 -3q-67 0 -90 7t-31 26l-51 143q-8 21 -31 21zM760 1147
q-16 0 -35 16l-162 148l-153 -146q-20 -16 -37 -16t-25 10l-61 55q-19 19 -19 37q0 14 15 29l202 186q20 17 34.5 22t45.5 5q33 0 48 -5.5t34 -21.5l203 -186q14 -14 14 -31t-18 -35l-58 -55q-12 -12 -28 -12zM434 369h266q23 0 23 20l-135 383q-9 23 -21 23q-11 0 -20 -23
l-135 -383q0 -20 22 -20z" />
    <glyph glyph-name="Adieresis.smcp" horiz-adv-x="1134" 
d="M434 369h266q23 0 23 20l-135 383q-9 23 -21 23q-11 0 -20 -23l-135 -383q0 -20 22 -20zM768 197h-401q-23 0 -31 -21l-51 -143q-8 -19 -31 -26t-90 -7q-47 0 -71.5 3t-31 8t-6.5 14q0 8 11 45l372 974q11 32 36 43t93 11t93 -11t36 -43l373 -974q10 -33 10 -45
q0 -9 -6 -14t-30.5 -8t-71.5 -3q-67 0 -90 7t-31 26l-51 143q-8 21 -31 21zM389 1171q-119 0 -119 134q0 135 119 135q59 0 93 -34.5t34 -100.5q0 -134 -127 -134zM739 1171q-121 0 -121 134q0 135 121 135q58 0 91.5 -34.5t33.5 -100.5q0 -134 -125 -134z" />
    <glyph glyph-name="Agrave.smcp" horiz-adv-x="1134" 
d="M434 369h266q23 0 23 20l-135 383q-9 23 -21 23q-11 0 -20 -23l-135 -383q0 -20 22 -20zM768 197h-401q-23 0 -31 -21l-51 -143q-8 -19 -31 -26t-90 -7q-47 0 -71.5 3t-31 8t-6.5 14q0 8 11 45l372 974q11 32 36 43t93 11t93 -11t36 -43l373 -974q10 -33 10 -45
q0 -9 -6 -14t-30.5 -8t-71.5 -3q-67 0 -90 7t-31 26l-51 143q-8 21 -31 21zM692 1171q-14 0 -39 17q-35 23 -133 94.5t-117 89.5q-20 17 -20 35q0 24 43.5 68.5t65.5 44.5q15 0 36 -21q7 -8 56 -62.5t91 -102t56 -64.5q21 -21 21 -37q0 -12 -24 -37t-36 -25z" />
    <glyph glyph-name="Amacron.smcp" horiz-adv-x="1134" 
d="M434 369h266q23 0 23 20l-135 383q-9 23 -21 23q-11 0 -20 -23l-135 -383q0 -20 22 -20zM768 197h-401q-23 0 -31 -21l-51 -143q-8 -19 -31 -26t-90 -7q-47 0 -71.5 3t-31 8t-6.5 14q0 8 11 45l372 974q11 32 36 43t93 11t93 -11t36 -43l373 -974q10 -33 10 -45
q0 -9 -6 -14t-30.5 -8t-71.5 -3q-67 0 -90 7t-31 26l-51 143q-8 21 -31 21zM799 1192h-463q-22 0 -36.5 14t-14.5 37v49q0 23 14 37t37 14h463q24 0 37.5 -13.5t13.5 -37.5v-49q0 -24 -13.5 -37.5t-37.5 -13.5z" />
    <glyph glyph-name="Aogonek.smcp" horiz-adv-x="1134" 
d="M1006 -381q-86 0 -146.5 54.5t-60.5 142.5q0 94 104 186q-43 5 -53 31l-51 143q-8 21 -31 21h-401q-23 0 -31 -21l-51 -143q-8 -19 -31 -26t-90 -7q-47 0 -71.5 3t-31 8t-6.5 14q0 8 11 45l372 974q11 32 36 43t93 11t93 -11t36 -43l373 -974q10 -33 10 -45q0 -9 -4 -13
l-20 -20q-38 -32 -70.5 -78t-32.5 -92q0 -31 15 -48.5t43 -17.5q20 0 40 10.5t35 10.5q25 0 45.5 -27.5t20.5 -54.5q0 -33 -44.5 -54.5t-100.5 -21.5zM434 369h266q23 0 23 20l-135 383q-9 23 -21 23q-11 0 -20 -23l-135 -383q0 -20 22 -20z" />
    <glyph glyph-name="Aring.smcp" horiz-adv-x="1134" 
d="M434 369h266q23 0 23 20l-135 383q-9 23 -21 23q-11 0 -20 -23l-135 -383q0 -20 22 -20zM768 197h-401q-23 0 -31 -21l-51 -143q-8 -19 -31 -26t-90 -7q-47 0 -71.5 3t-31 8t-6.5 14q0 8 11 45l372 974q11 32 36 43t93 11t93 -11t36 -43l373 -974q10 -33 10 -45
q0 -9 -6 -14t-30.5 -8t-71.5 -3q-67 0 -90 7t-31 26l-51 143q-8 21 -31 21zM565 1192q-85 0 -144 57.5t-59 139.5q0 83 59.5 141.5t143.5 58.5q85 0 146 -58.5t61 -141.5q0 -81 -61 -139t-146 -58zM565 1485q-35 0 -59.5 -28.5t-24.5 -67.5t24 -67t60 -28q37 0 61.5 28
t24.5 67t-25 67.5t-61 28.5z" />
    <glyph glyph-name="Atilde.smcp" horiz-adv-x="1134" 
d="M434 369h266q23 0 23 20l-135 383q-9 23 -21 23q-11 0 -20 -23l-135 -383q0 -20 22 -20zM768 197h-401q-23 0 -31 -21l-51 -143q-8 -19 -31 -26t-90 -7q-47 0 -71.5 3t-31 8t-6.5 14q0 8 11 45l372 974q11 32 36 43t93 11t93 -11t36 -43l373 -974q10 -33 10 -45
q0 -9 -6 -14t-30.5 -8t-71.5 -3q-67 0 -90 7t-31 26l-51 143q-8 21 -31 21zM346 1190q-15 -12 -24 -12q-16 0 -54.5 41.5t-38.5 54.5q0 18 21 39q35 42 86.5 68t107.5 26q45 0 96 -21.5t93 -43t67 -21.5q24 0 51 20.5t46 44.5q10 13 18 13q14 0 52 -42t38 -57q0 -37 -59 -84
t-131 -47q-48 0 -98 21t-94 42t-77 21q-13 0 -31.5 -10.5t-29.5 -19.5t-39 -33z" />
    <glyph glyph-name="B.smcp" horiz-adv-x="1073" 
d="M782 586q4 -1 11.5 -3t29 -11t40.5 -20t43 -31.5t41 -44.5t28.5 -59.5t11.5 -76.5q0 -176 -116 -265t-334 -89q-165 0 -263 26t-98 64v948q0 38 95 64t249 26q185 0 297.5 -72t112.5 -206q0 -48 -15 -91.5t-37 -71t-44 -48.5t-37 -30zM389 438v-223q0 -61 150 -61
q235 0 235 190q0 143 -201 143h-131q-30 0 -41.5 -11.5t-11.5 -37.5zM389 696q0 -26 11.5 -37.5t41.5 -11.5h95q100 0 144 42t44 122q0 74 -52 104.5t-147 30.5q-78 0 -107.5 -14.5t-29.5 -42.5v-193z" />
    <glyph glyph-name="C.smcp" horiz-adv-x="1138" 
d="M678 -16q-112 0 -213 32.5t-184.5 96.5t-133 172t-49.5 247q0 111 31.5 206.5t86 163.5t127.5 116.5t156 72t171 23.5q66 0 123 -11.5t94 -28.5t63.5 -37t38.5 -36.5t12 -27.5q0 -25 -31.5 -69t-51.5 -44q-12 0 -37.5 13t-76 26.5t-124.5 13.5q-69 0 -129 -22t-109 -65.5
t-77.5 -118t-28.5 -170.5q0 -101 30.5 -172.5t85 -110t118 -55.5t141.5 -17q68 0 129.5 15.5t96.5 34t62.5 34t36.5 15.5q21 0 21 -25q0 -62 -33 -137q-9 -23 -56.5 -54t-128 -56t-161.5 -25z" />
    <glyph glyph-name="Cacute.smcp" horiz-adv-x="1138" 
d="M678 -16q-112 0 -213 32.5t-184.5 96.5t-133 172t-49.5 247q0 111 31.5 206.5t86 163.5t127.5 116.5t156 72t171 23.5q66 0 123 -11.5t94 -28.5t63.5 -37t38.5 -36.5t12 -27.5q0 -25 -31.5 -69t-51.5 -44q-12 0 -37.5 13t-76 26.5t-124.5 13.5q-69 0 -129 -22t-109 -65.5
t-77.5 -118t-28.5 -170.5q0 -101 30.5 -172.5t85 -110t118 -55.5t141.5 -17q68 0 129.5 15.5t96.5 34t62.5 34t36.5 15.5q21 0 21 -25q0 -62 -33 -137q-9 -23 -56.5 -54t-128 -56t-161.5 -25zM547 1190q-13 0 -36.5 24.5t-23.5 36.5q0 14 19 37q15 18 203 230q24 20 36 20
q23 0 67 -44t44 -69q0 -17 -20 -34q-20 -18 -117.5 -90.5t-132.5 -94.5q-28 -16 -39 -16z" />
    <glyph glyph-name="Ccaron.smcp" horiz-adv-x="1138" 
d="M678 -16q-112 0 -213 32.5t-184.5 96.5t-133 172t-49.5 247q0 111 31.5 206.5t86 163.5t127.5 116.5t156 72t171 23.5q66 0 123 -11.5t94 -28.5t63.5 -37t38.5 -36.5t12 -27.5q0 -25 -31.5 -69t-51.5 -44q-12 0 -37.5 13t-76 26.5t-124.5 13.5q-69 0 -129 -22t-109 -65.5
t-77.5 -118t-28.5 -170.5q0 -101 30.5 -172.5t85 -110t118 -55.5t141.5 -17q68 0 129.5 15.5t96.5 34t62.5 34t36.5 15.5q21 0 21 -25q0 -62 -33 -137q-9 -23 -56.5 -54t-128 -56t-161.5 -25zM657 1210q-11 0 -20.5 2t-19 8.5t-13.5 9t-14.5 12.5t-11.5 11l-185 197
q-14 14 -14 31q0 15 14 26l56 47q12 9 26 9q23 0 33 -13l147 -157l152 157q10 13 33 13q16 0 28 -9l54 -45q12 -12 12 -28q0 -14 -10 -31l-185 -197q-1 -1 -7.5 -6.5t-8.5 -7.5t-8 -7t-10 -7.5t-10 -5.5t-11.5 -4.5t-12.5 -3t-14 -1.5z" />
    <glyph glyph-name="Ccedilla.smcp" horiz-adv-x="1138" 
d="M651 -487q-70 0 -125 25.5t-55 45.5q0 16 19.5 40t29.5 24q1 0 34 -15.5t69 -15.5q50 0 77 29.5t27 74.5q0 31 -19 57.5t-42.5 41t-42.5 29t-19 24.5v115q-81 8 -153.5 32t-137.5 69t-112.5 106.5t-75 147.5t-27.5 189q0 111 31.5 206.5t86 163.5t127.5 116.5t156 72
t171 23.5q66 0 123 -11.5t94 -28.5t63.5 -37t38.5 -36.5t12 -27.5q0 -25 -31.5 -69t-51.5 -44q-12 0 -37.5 13t-76 26.5t-124.5 13.5q-69 0 -129 -22t-109 -65.5t-77.5 -118t-28.5 -170.5q0 -101 30.5 -172.5t85 -110t118 -55.5t141.5 -17q68 0 129.5 15.5t96.5 34t62.5 34
t36.5 15.5q21 0 21 -25q0 -62 -33 -137q-12 -33 -97.5 -76.5t-187.5 -54.5v-82q144 -68 144 -185q0 -90 -72 -149t-160 -59z" />
    <glyph glyph-name="D.smcp" horiz-adv-x="1210" 
d="M1112 569q0 -123 -31 -222.5t-85 -166.5t-130 -112.5t-163 -65.5t-187 -20q-142 0 -241 26.5t-99 63.5v948q0 37 99 63.5t241 26.5q596 0 596 -541zM899 567q0 74 -12.5 132.5t-31.5 97.5t-50.5 67t-61.5 43t-72.5 24t-76 11t-78.5 2q-62 0 -94.5 -15t-32.5 -40v-678
q0 -61 127 -61q58 0 109 10.5t103 39.5t88.5 74t59.5 120t23 173z" />
    <glyph glyph-name="Dcaron.smcp" horiz-adv-x="1210" 
d="M1112 569q0 -123 -31 -222.5t-85 -166.5t-130 -112.5t-163 -65.5t-187 -20q-142 0 -241 26.5t-99 63.5v948q0 37 99 63.5t241 26.5q596 0 596 -541zM899 567q0 74 -12.5 132.5t-31.5 97.5t-50.5 67t-61.5 43t-72.5 24t-76 11t-78.5 2q-62 0 -94.5 -15t-32.5 -40v-678
q0 -61 127 -61q58 0 109 10.5t103 39.5t88.5 74t59.5 120t23 173zM563 1190q-9 0 -18 2t-15 4.5t-14 8.5t-11.5 8.5t-11.5 10t-10 9.5l-184 197q-14 14 -14 30t14 27l55 47q11 8 27 8q24 0 33 -12l147 -158l152 158q9 12 32 12q18 0 29 -8l53 -45q13 -13 13 -29
q0 -12 -11 -30l-184 -197q-1 -1 -7.5 -6.5t-8.5 -7.5t-8 -7t-10 -7.5t-10 -5.5t-11.5 -4.5t-12.5 -3t-14 -1.5z" />
    <glyph glyph-name="E.smcp" horiz-adv-x="1019" 
d="M221 0q-45 0 -45 45v1008q0 45 45 45h559q53 0 72.5 -47t19.5 -156q0 -23 -18 -23q-7 0 -27.5 7t-48.5 16t-93 16t-150 7h-129q-25 0 -25 -25v-225q0 -25 25 -25h309q33 0 33 -94t-33 -94h-309q-25 0 -25 -25v-225q0 -25 25 -25h178q85 0 150 7t93 15.5t48.5 15.5t27.5 7
q19 0 19 -22q0 -109 -19.5 -156t-73.5 -47h-608z" />
    <glyph glyph-name="Eacute.smcp" horiz-adv-x="1019" 
d="M221 0q-45 0 -45 45v1008q0 45 45 45h559q53 0 72.5 -47t19.5 -156q0 -23 -18 -23q-7 0 -27.5 7t-48.5 16t-93 16t-150 7h-129q-25 0 -25 -25v-225q0 -25 25 -25h309q33 0 33 -94t-33 -94h-309q-25 0 -25 -25v-225q0 -25 25 -25h178q85 0 150 7t93 15.5t48.5 15.5t27.5 7
q19 0 19 -22q0 -109 -19.5 -156t-73.5 -47h-608zM385 1163q-13 0 -36 25t-23 37q0 15 18 37q15 17 57 65t90.5 102t55.5 62q24 20 37 20q23 0 66.5 -43.5t43.5 -68.5q0 -18 -20 -35q-19 -18 -117 -89.5t-133 -94.5q-30 -17 -39 -17z" />
    <glyph glyph-name="Ebreve.smcp" horiz-adv-x="1019" 
d="M221 0q-45 0 -45 45v1008q0 45 45 45h559q53 0 72.5 -47t19.5 -156q0 -23 -18 -23q-7 0 -27.5 7t-48.5 16t-93 16t-150 7h-129q-25 0 -25 -25v-225q0 -25 25 -25h309q33 0 33 -94t-33 -94h-309q-25 0 -25 -25v-225q0 -25 25 -25h178q85 0 150 7t93 15.5t48.5 15.5t27.5 7
q19 0 19 -22q0 -109 -19.5 -156t-73.5 -47h-608zM510 1186q-59 0 -115 28.5t-92 67t-58 75t-22 56.5q0 30 32 55t60 25q30 0 58 -49q69 -113 139 -113q67 0 137 111q31 51 56 51q29 0 60.5 -25t31.5 -55q0 -20 -21.5 -56.5t-57.5 -75t-92.5 -67t-115.5 -28.5z" />
    <glyph glyph-name="Ecircumflex.smcp" horiz-adv-x="1019" 
d="M221 0q-45 0 -45 45v1008q0 45 45 45h559q53 0 72.5 -47t19.5 -156q0 -23 -18 -23q-7 0 -27.5 7t-48.5 16t-93 16t-150 7h-129q-25 0 -25 -25v-225q0 -25 25 -25h309q33 0 33 -94t-33 -94h-309q-25 0 -25 -25v-225q0 -25 25 -25h178q85 0 150 7t93 15.5t48.5 15.5t27.5 7
q19 0 19 -22q0 -109 -19.5 -156t-73.5 -47h-608zM702 1178q-15 0 -34 16l-162 147l-154 -145q-20 -16 -37 -16t-24 10l-62 55q-18 18 -18 37q0 15 14 29l203 186q20 17 34.5 22t45.5 5q33 0 48 -5.5t34 -21.5l203 -186q14 -14 14 -31q0 -16 -19 -35l-57 -55q-12 -12 -29 -12
z" />
    <glyph glyph-name="Edieresis.smcp" horiz-adv-x="1019" 
d="M221 0q-45 0 -45 45v1008q0 45 45 45h559q53 0 72.5 -47t19.5 -156q0 -23 -18 -23q-7 0 -27.5 7t-48.5 16t-93 16t-150 7h-129q-25 0 -25 -25v-225q0 -25 25 -25h309q33 0 33 -94t-33 -94h-309q-25 0 -25 -25v-225q0 -25 25 -25h178q85 0 150 7t93 15.5t48.5 15.5t27.5 7
q19 0 19 -22q0 -109 -19.5 -156t-73.5 -47h-608zM332 1188q-119 0 -119 133q0 135 119 135q59 0 93 -34.5t34 -100.5q0 -133 -127 -133zM682 1188q-121 0 -121 133q0 135 121 135q58 0 91.5 -34.5t33.5 -100.5q0 -133 -125 -133z" />
    <glyph glyph-name="Egrave.smcp" horiz-adv-x="1019" 
d="M221 0q-45 0 -45 45v1008q0 45 45 45h559q53 0 72.5 -47t19.5 -156q0 -23 -18 -23q-7 0 -27.5 7t-48.5 16t-93 16t-150 7h-129q-25 0 -25 -25v-225q0 -25 25 -25h309q33 0 33 -94t-33 -94h-309q-25 0 -25 -25v-225q0 -25 25 -25h178q85 0 150 7t93 15.5t48.5 15.5t27.5 7
q19 0 19 -22q0 -109 -19.5 -156t-73.5 -47h-608zM635 1180q-15 0 -39 16q-35 23 -133 94.5t-117 89.5q-20 17 -20 35q0 24 43 68.5t65 44.5q16 0 37 -21q7 -8 56 -62.5t91 -102t56 -64.5q20 -20 20 -37q0 -12 -23.5 -36.5t-35.5 -24.5z" />
    <glyph glyph-name="Emacron.smcp" horiz-adv-x="1019" 
d="M221 0q-45 0 -45 45v1008q0 45 45 45h559q53 0 72.5 -47t19.5 -156q0 -23 -18 -23q-7 0 -27.5 7t-48.5 16t-93 16t-150 7h-129q-25 0 -25 -25v-225q0 -25 25 -25h309q33 0 33 -94t-33 -94h-309q-25 0 -25 -25v-225q0 -25 25 -25h178q85 0 150 7t93 15.5t48.5 15.5t27.5 7
q19 0 19 -22q0 -109 -19.5 -156t-73.5 -47h-608zM741 1198h-462q-22 0 -37 14t-15 37v49q0 23 14.5 37.5t37.5 14.5h462q24 0 38 -14t14 -38v-49q0 -23 -13.5 -37t-38.5 -14z" />
    <glyph glyph-name="Eogonek.smcp" horiz-adv-x="1019" 
d="M221 0q-45 0 -45 45v1008q0 45 45 45h559q53 0 72.5 -47t19.5 -156q0 -23 -18 -23q-7 0 -27.5 7t-48.5 16t-93 16t-150 7h-129q-25 0 -25 -25v-225q0 -25 25 -25h309q33 0 33 -94t-33 -94h-309q-25 0 -25 -25v-225q0 -25 25 -25h178q85 0 150 7t93 15.5t48.5 15.5t27.5 7
q19 0 19 -22q0 -109 -19.5 -156t-73.5 -47h-217q-2 -7 -22 -27q-38 -32 -70.5 -78t-32.5 -92q0 -31 15 -48t43 -17q21 0 41 10t35 10q25 0 45 -27.5t20 -54.5q0 -32 -44 -53.5t-101 -21.5q-86 0 -146.5 54t-60.5 142q0 106 123 203h-236z" />
    <glyph glyph-name="Eth.smcp" horiz-adv-x="1214" 
d="M1112 569q0 -123 -31 -222.5t-85 -166.5t-130 -112.5t-163 -65.5t-187 -20q-142 0 -241 26.5t-99 63.5v348h-65q-21 0 -32 21.5t-11 80.5t11 81t32 22h65v395q0 37 99 63.5t241 26.5q596 0 596 -541zM899 567q0 74 -12.5 132.5t-31.5 97.5t-50.5 67t-61.5 43t-72.5 24
t-76 11t-78.5 2q-62 0 -94.5 -15t-32.5 -40v-264h189q21 0 32 -21.5t11 -81.5t-11 -81t-32 -21h-189v-209q0 -61 127 -61q58 0 109 10.5t103 39.5t88.5 74t59.5 120t23 173z" />
    <glyph glyph-name="F.smcp" horiz-adv-x="933" 
d="M389 893v-246q0 -24 25 -24h301q10 0 16.5 -5.5t11.5 -26.5t5 -59t-5 -58.5t-11.5 -26t-16.5 -5.5h-301q-25 0 -25 -24v-385q0 -33 -106 -33q-44 0 -68.5 5t-31.5 11.5t-7 16.5v1020q0 45 45 45h545q53 0 72.5 -47t19.5 -156q0 -23 -18 -23q-10 0 -45.5 11.5t-106.5 23
t-168 11.5h-106q-25 0 -25 -25z" />
    <glyph glyph-name="G.smcp" horiz-adv-x="1171" 
d="M641 -16q-113 0 -208.5 32t-171.5 96.5t-119.5 173t-43.5 251.5q0 137 46 248.5t125 182t182 108.5t219 38q66 0 124.5 -12.5t98 -30.5t69 -39.5t43 -39.5t13.5 -29q0 -26 -32.5 -69.5t-53.5 -43.5q-11 0 -30.5 10t-42.5 21.5t-71.5 21.5t-109.5 10q-74 0 -134.5 -20
t-109.5 -63t-76.5 -119t-27.5 -179q0 -358 323 -358q89 0 136 33t47 67v234q0 21 72.5 43t107.5 22q39 0 39 -38v-326q0 -14 -14.5 -39.5t-48 -58t-79.5 -60.5t-118 -47.5t-154 -19.5z" />
    <glyph glyph-name="H.smcp" horiz-adv-x="1253" 
d="M283 0q-44 0 -68.5 5t-31.5 11.5t-7 16.5v1032q0 10 7 16.5t31.5 11.5t68.5 5q106 0 106 -33v-422q0 -25 25 -25h426q24 0 24 25v422q0 10 7 16.5t31.5 11.5t68.5 5q106 0 106 -33v-1032q0 -33 -106 -33q-44 0 -68.5 5t-31.5 11.5t-7 16.5v373q0 24 -24 24h-426
q-25 0 -25 -24v-373q0 -33 -106 -33z" />
    <glyph glyph-name="I.smcp" horiz-adv-x="565" 
d="M283 0q-44 0 -68.5 5t-31.5 11.5t-7 16.5v1032q0 10 7 16.5t31.5 11.5t68.5 5q106 0 106 -33v-1032q0 -33 -106 -33z" />
    <glyph glyph-name="Iacute.smcp" horiz-adv-x="565" 
d="M283 0q-44 0 -68.5 5t-31.5 11.5t-7 16.5v1032q0 10 7 16.5t31.5 11.5t68.5 5q106 0 106 -33v-1032q0 -33 -106 -33zM158 1169q-13 0 -36.5 25t-23.5 37q0 14 19 37q18 21 202 229q25 21 37 21q23 0 67 -44t44 -69q0 -17 -21 -35q-20 -18 -117 -89.5t-132 -94.5
q-30 -17 -39 -17z" />
    <glyph glyph-name="Ibreve.smcp" horiz-adv-x="565" 
d="M283 0q-44 0 -68.5 5t-31.5 11.5t-7 16.5v1032q0 10 7 16.5t31.5 11.5t68.5 5q106 0 106 -33v-1032q0 -33 -106 -33zM283 1188q-59 0 -115 28.5t-92 67t-58 75t-22 56.5q0 30 32 55t60 25q17 0 29.5 -11.5t27.5 -37.5q69 -113 140 -113q67 0 137 111q31 51 55 51
q29 0 60.5 -25t31.5 -55q0 -20 -21.5 -56.5t-57 -75t-92 -67t-115.5 -28.5z" />
    <glyph glyph-name="Icircumflex.smcp" horiz-adv-x="565" 
d="M283 0q-44 0 -68.5 5t-31.5 11.5t-7 16.5v1032q0 10 7 16.5t31.5 11.5t68.5 5q106 0 106 -33v-1032q0 -33 -106 -33zM477 1161q-15 0 -35 17l-161 147l-154 -145q-21 -17 -37 -17t-24 11l-62 55q-18 18 -18 37q0 14 14 28l203 187q20 17 34.5 21.5t45.5 4.5q34 0 49 -5
t33 -21l202 -187q15 -15 15 -30q0 -16 -19 -35l-57 -55q-13 -13 -29 -13z" />
    <glyph glyph-name="Idieresis.smcp" horiz-adv-x="565" 
d="M283 0q-44 0 -68.5 5t-31.5 11.5t-7 16.5v1032q0 10 7 16.5t31.5 11.5t68.5 5q106 0 106 -33v-1032q0 -33 -106 -33zM104 1198q-118 0 -118 133q0 135 118 135q59 0 93 -34.5t34 -100.5q0 -133 -127 -133zM455 1198q-121 0 -121 133q0 135 121 135q58 0 91.5 -34.5
t33.5 -100.5q0 -133 -125 -133z" />
    <glyph glyph-name="Igrave.smcp" horiz-adv-x="565" 
d="M283 0q-44 0 -68.5 5t-31.5 11.5t-7 16.5v1032q0 10 7 16.5t31.5 11.5t68.5 5q106 0 106 -33v-1032q0 -33 -106 -33zM408 1184q-15 0 -39 16q-35 23 -133 94.5t-117 89.5q-21 18 -21 35q0 24 43.5 68.5t65.5 44.5q16 0 37 -21q195 -220 202 -229q21 -21 21 -37
q0 -12 -23.5 -36.5t-35.5 -24.5z" />
    <glyph glyph-name="Imacron.smcp" horiz-adv-x="565" 
d="M283 0q-44 0 -68.5 5t-31.5 11.5t-7 16.5v1032q0 10 7 16.5t31.5 11.5t68.5 5q106 0 106 -33v-1032q0 -33 -106 -33zM514 1210h-463q-22 0 -36.5 14.5t-14.5 37.5v49q0 23 14 37t37 14h463q24 0 37.5 -13.5t13.5 -37.5v-49q0 -24 -13.5 -38t-37.5 -14z" />
    <glyph glyph-name="J.smcp" horiz-adv-x="847" 
d="M360 -16q-62 0 -120.5 20.5t-95.5 48.5t-59 53t-22 37q0 19 42.5 68t60.5 49q13 0 33 -14q79 -60 151 -60q48 0 78.5 34.5t30.5 101.5v743q0 10 6.5 16.5t31 11.5t68.5 5q107 0 107 -33v-776q0 -131 -85.5 -218t-226.5 -87z" />
    <glyph glyph-name="K.smcp" horiz-adv-x="1138" 
d="M283 0q-44 0 -68.5 5t-31.5 11.5t-7 16.5v1032q0 10 7 16.5t31.5 11.5t68.5 5q106 0 106 -33v-459q0 -18 17 -18q75 46 138.5 111.5t105 132.5t68 124.5t40.5 108.5q2 11 8.5 17t30.5 11t67 5q107 0 107 -33q0 -41 -36.5 -132t-116 -210t-175.5 -195q47 -15 93.5 -61.5
t82.5 -101.5t70 -108t70 -88.5t69 -35.5q6 0 20.5 1t20.5 1q18 0 18 -18q0 -38 -62 -84.5t-136 -46.5q-87 0 -144 82q-23 34 -64.5 97t-66 99t-55.5 77t-54.5 60t-41.5 19q-25 0 -49.5 -10.5t-24.5 -24.5v-352q0 -33 -106 -33z" />
    <glyph glyph-name="L.smcp" horiz-adv-x="952" 
d="M207 0q-14 0 -22.5 9t-8.5 24v1032q0 10 7 16.5t31.5 11.5t68.5 5q106 0 106 -33v-854q0 -25 25 -25h143q110 0 183.5 12t103 23.5t33.5 11.5q20 0 20 -24q0 -110 -20.5 -159.5t-73.5 -49.5h-596z" />
    <glyph glyph-name="Lacute.smcp" horiz-adv-x="952" 
d="M207 0q-14 0 -22.5 9t-8.5 24v1032q0 10 7 16.5t31.5 11.5t68.5 5q106 0 106 -33v-854q0 -25 25 -25h143q110 0 183.5 12t103 23.5t33.5 11.5q20 0 20 -24q0 -110 -20.5 -159.5t-73.5 -49.5h-596zM242 1206q-13 0 -36.5 25t-23.5 37q0 14 19 37q18 21 202 229
q24 20 37 20q24 0 67.5 -44t43.5 -68q0 -18 -21 -35q-20 -18 -117 -89.5t-132 -94.5q-30 -17 -39 -17z" />
    <glyph glyph-name="Lcaron.smcp" horiz-adv-x="952" 
d="M207 0q-14 0 -22.5 9t-8.5 24v1032q0 10 7 16.5t31.5 11.5t68.5 5q106 0 106 -33v-854q0 -25 25 -25h143q110 0 183.5 12t103 23.5t33.5 11.5q20 0 20 -24q0 -110 -20.5 -159.5t-73.5 -49.5h-596zM588 610q-16 0 -26.5 8.5t-10.5 22.5q0 17 18.5 41.5t37 55t18.5 63.5
q0 17 -8 30.5t-17 24.5t-17 41.5t-8 77.5q0 123 134 123q64 0 95.5 -30.5t31.5 -100.5q0 -67 -28 -134.5t-67.5 -115t-81.5 -77.5t-71 -30z" />
    <glyph glyph-name="Lslash.smcp" horiz-adv-x="968" 
d="M207 0q-14 0 -22.5 9t-8.5 24v264l-55 -31q-38 -23 -88 68q-52 88 -15 110l158 91v530q0 10 7 16.5t31.5 11.5t68.5 5q106 0 106 -33v-406l103 60q36 22 88 -68q51 -88 14 -110l-205 -119v-211q0 -25 25 -25h143q110 0 183.5 12t103 23.5t33.5 11.5q20 0 20 -24
q0 -110 -20.5 -159.5t-73.5 -49.5h-596z" />
    <glyph glyph-name="M.smcp" horiz-adv-x="1488" 
d="M274 0q-44 0 -66 4.5t-27 10.5t-5 18v1030q2 11 8.5 17.5t30.5 12t66 5.5q110 0 122 -33l340 -750l340 750q17 33 123 33q44 0 68.5 -5t31.5 -11.5t7 -16.5v-1032q0 -11 -5.5 -17t-28 -11t-65.5 -5t-65.5 5t-27.5 11t-5 17v624l-276 -596q-9 -18 -24.5 -23t-70.5 -5
t-71 5t-25 23l-276 596v-624q0 -10 -6 -16.5t-28.5 -11.5t-64.5 -5z" />
    <glyph glyph-name="N.smcp" horiz-adv-x="1236" 
d="M276 0q-43 0 -66.5 5t-28.5 11t-5 17v1032q0 33 70 33q57 0 74.5 -4t25.5 -17l518 -698v686q0 11 5.5 17t27.5 11t64 5q43 0 66.5 -5t28.5 -11t5 -17v-1032q0 -33 -70 -33q-56 0 -74 4t-26 16l-518 680v-667q0 -11 -5.5 -17t-27.5 -11t-64 -5z" />
    <glyph glyph-name="Nacute.smcp" horiz-adv-x="1236" 
d="M276 0q-43 0 -66.5 5t-28.5 11t-5 17v1032q0 33 70 33q57 0 74.5 -4t25.5 -17l518 -698v686q0 11 5.5 17t27.5 11t64 5q43 0 66.5 -5t28.5 -11t5 -17v-1032q0 -33 -70 -33q-56 0 -74 4t-26 16l-518 680v-667q0 -11 -5.5 -17t-27.5 -11t-64 -5zM561 1171q-13 0 -36 25
t-23 37q0 15 18 37q15 17 57 65t90.5 102t55.5 62q25 21 37 21q23 0 66.5 -44t43.5 -69q0 -18 -20 -35q-19 -18 -117 -89.5t-133 -94.5q-30 -17 -39 -17z" />
    <glyph glyph-name="Ncaron.smcp" horiz-adv-x="1236" 
d="M276 0q-43 0 -66.5 5t-28.5 11t-5 17v1032q0 33 70 33q57 0 74.5 -4t25.5 -17l518 -698v686q0 11 5.5 17t27.5 11t64 5q43 0 66.5 -5t28.5 -11t5 -17v-1032q0 -33 -70 -33q-56 0 -74 4t-26 16l-518 680v-667q0 -11 -5.5 -17t-27.5 -11t-64 -5zM653 1159q-9 0 -18 2
t-15 4.5t-14 8.5t-11.5 8.5t-11.5 10t-10 9.5l-184 197q-14 14 -14 31q0 15 14 26l55 47q11 8 27 8q24 0 33 -12l147 -158l152 158q9 12 33 12q17 0 28 -8l54 -45q12 -12 12 -28q0 -14 -10 -31l-185 -197q-1 -1 -7.5 -6.5t-8.5 -7.5t-8 -7t-10 -7.5t-10 -5.5t-11.5 -4.5
t-12.5 -3t-14 -1.5z" />
    <glyph glyph-name="Ntilde.smcp" horiz-adv-x="1236" 
d="M276 0q-43 0 -66.5 5t-28.5 11t-5 17v1032q0 33 70 33q57 0 74.5 -4t25.5 -17l518 -698v686q0 11 5.5 17t27.5 11t64 5q43 0 66.5 -5t28.5 -11t5 -17v-1032q0 -33 -70 -33q-56 0 -74 4t-26 16l-518 680v-667q0 -11 -5.5 -17t-27.5 -11t-64 -5zM387 1214q-15 -12 -25 -12
q-16 0 -54 41.5t-38 54.5q0 18 21 39q35 43 87 69t107 26q45 0 96 -21.5t93 -43t67 -21.5q24 0 51 20.5t46 44.5q9 12 18 12q14 0 52 -41.5t38 -56.5q0 -37 -59 -84t-131 -47q-48 0 -98 21t-94 42t-77 21q-25 0 -90 -56q-7 -5 -10 -8z" />
    <glyph glyph-name="O.smcp" horiz-adv-x="1234" 
d="M618 -16q-241 0 -380.5 145t-139.5 424q0 138 41.5 247t113.5 176.5t165 102.5t200 35t200 -35t165.5 -102.5t114 -176.5t41.5 -247q0 -140 -39 -249.5t-109.5 -178.5t-165 -105t-207.5 -36zM618 172q65 0 117.5 20t95 63t66 118t23.5 176q0 102 -24.5 177t-68 116.5
t-95 60.5t-114.5 19q-62 0 -114 -19t-95 -60.5t-67.5 -116.5t-24.5 -177q0 -377 301 -377z" />
    <glyph glyph-name="OE.smcp" horiz-adv-x="1775" 
d="M973 0q-45 0 -45 45v27q-128 -88 -310 -88q-241 0 -380.5 145t-139.5 424q0 138 41.5 247t113.5 176.5t165 102.5t200 35q177 0 310 -92v31q0 45 45 45h559q53 0 72.5 -47t19.5 -156q0 -23 -18 -23q-5 0 -35 11.5t-103 23t-182 11.5h-129q-24 0 -24 -25v-225
q0 -25 24 -25h309q33 0 33 -94t-33 -94h-309q-24 0 -24 -25v-225q0 -25 24 -25h178q85 0 150 7t93.5 15.5t49 15.5t27.5 7q18 0 18 -22q0 -109 -19.5 -156t-72.5 -47h-608zM618 172q65 0 117.5 20t95 63t66 118t23.5 176q0 102 -24.5 177t-68 116.5t-95 60.5t-114.5 19
q-62 0 -114 -19t-95 -60.5t-67.5 -116.5t-24.5 -177q0 -377 301 -377z" />
    <glyph glyph-name="Oacute.smcp" horiz-adv-x="1234" 
d="M618 -16q-241 0 -380.5 145t-139.5 424q0 138 41.5 247t113.5 176.5t165 102.5t200 35t200 -35t165.5 -102.5t114 -176.5t41.5 -247q0 -140 -39 -249.5t-109.5 -178.5t-165 -105t-207.5 -36zM618 172q65 0 117.5 20t95 63t66 118t23.5 176q0 102 -24.5 177t-68 116.5
t-95 60.5t-114.5 19q-62 0 -114 -19t-95 -60.5t-67.5 -116.5t-24.5 -177q0 -377 301 -377zM492 1167q-13 0 -36.5 25t-23.5 37q0 14 19 37q18 21 202 229q25 21 37 21q23 0 67 -44t44 -69q0 -17 -21 -35q-19 -18 -117 -89.5t-133 -94.5q-30 -17 -38 -17z" />
    <glyph glyph-name="Obreve.smcp" horiz-adv-x="1234" 
d="M618 -16q-241 0 -380.5 145t-139.5 424q0 138 41.5 247t113.5 176.5t165 102.5t200 35t200 -35t165.5 -102.5t114 -176.5t41.5 -247q0 -140 -39 -249.5t-109.5 -178.5t-165 -105t-207.5 -36zM618 172q65 0 117.5 20t95 63t66 118t23.5 176q0 102 -24.5 177t-68 116.5
t-95 60.5t-114.5 19q-62 0 -114 -19t-95 -60.5t-67.5 -116.5t-24.5 -177q0 -377 301 -377zM616 1206q-59 0 -115 28.5t-91.5 67.5t-57.5 75.5t-22 56.5q0 30 32 54.5t60 24.5q17 0 29.5 -11.5t27.5 -37.5q68 -112 139 -112q68 0 138 110q31 51 55 51q29 0 60.5 -24.5
t31.5 -54.5q0 -20 -21.5 -56.5t-57.5 -75.5t-92.5 -67.5t-115.5 -28.5z" />
    <glyph glyph-name="Ocircumflex.smcp" horiz-adv-x="1234" 
d="M618 -16q-241 0 -380.5 145t-139.5 424q0 138 41.5 247t113.5 176.5t165 102.5t200 35t200 -35t165.5 -102.5t114 -176.5t41.5 -247q0 -140 -39 -249.5t-109.5 -178.5t-165 -105t-207.5 -36zM618 172q65 0 117.5 20t95 63t66 118t23.5 176q0 102 -24.5 177t-68 116.5
t-95 60.5t-114.5 19q-62 0 -114 -19t-95 -60.5t-67.5 -116.5t-24.5 -177q0 -377 301 -377zM811 1194q-16 0 -35 16l-162 148l-153 -146q-20 -16 -37 -16q-18 0 -25 10l-61 56q-19 19 -19 36q0 14 15 29l203 186q20 17 34 22t45 5q33 0 48 -5.5t34 -21.5l203 -186
q14 -14 14 -31q0 -16 -18 -34l-57 -56q-12 -12 -29 -12z" />
    <glyph glyph-name="Odieresis.smcp" horiz-adv-x="1234" 
d="M618 -16q-241 0 -380.5 145t-139.5 424q0 138 41.5 247t113.5 176.5t165 102.5t200 35t200 -35t165.5 -102.5t114 -176.5t41.5 -247q0 -140 -39 -249.5t-109.5 -178.5t-165 -105t-207.5 -36zM618 172q65 0 117.5 20t95 63t66 118t23.5 176q0 102 -24.5 177t-68 116.5
t-95 60.5t-114.5 19q-62 0 -114 -19t-95 -60.5t-67.5 -116.5t-24.5 -177q0 -377 301 -377zM438 1194q-119 0 -119 133q0 135 119 135q59 0 93 -34.5t34 -100.5q0 -133 -127 -133zM788 1194q-120 0 -120 133q0 135 120 135q58 0 91.5 -34.5t33.5 -100.5q0 -133 -125 -133z
" />
    <glyph glyph-name="Ograve.smcp" horiz-adv-x="1234" 
d="M618 -16q-241 0 -380.5 145t-139.5 424q0 138 41.5 247t113.5 176.5t165 102.5t200 35t200 -35t165.5 -102.5t114 -176.5t41.5 -247q0 -140 -39 -249.5t-109.5 -178.5t-165 -105t-207.5 -36zM618 172q65 0 117.5 20t95 63t66 118t23.5 176q0 102 -24.5 177t-68 116.5
t-95 60.5t-114.5 19q-62 0 -114 -19t-95 -60.5t-67.5 -116.5t-24.5 -177q0 -377 301 -377zM741 1200q-13 0 -39 17q-35 23 -132 94.5t-117 89.5q-21 17 -21 35q0 24 43.5 68t65.5 44q17 0 37 -20q187 -211 202 -230q21 -21 21 -36q0 -12 -24 -37t-36 -25z" />
    <glyph glyph-name="Ohungarumlaut.smcp" horiz-adv-x="1234" 
d="M618 -16q-241 0 -380.5 145t-139.5 424q0 138 41.5 247t113.5 176.5t165 102.5t200 35t200 -35t165.5 -102.5t114 -176.5t41.5 -247q0 -140 -39 -249.5t-109.5 -178.5t-165 -105t-207.5 -36zM618 172q65 0 117.5 20t95 63t66 118t23.5 176q0 102 -24.5 177t-68 116.5
t-95 60.5t-114.5 19q-62 0 -114 -19t-95 -60.5t-67.5 -116.5t-24.5 -177q0 -377 301 -377zM387 1190q-13 0 -36 24.5t-23 36.5q0 15 18 37q15 18 203 230q24 20 37 20q23 0 66.5 -44t43.5 -69q0 -17 -20 -34q-20 -18 -117.5 -90.5t-132.5 -94.5q-28 -16 -39 -16zM711 1190
q-13 0 -36.5 24.5t-23.5 36.5q0 14 19 37q37 43 202 230q24 20 37 20q23 0 67 -44t44 -69q0 -17 -21 -34q-20 -18 -117 -90.5t-132 -94.5q-28 -16 -39 -16z" />
    <glyph glyph-name="Omacron.smcp" horiz-adv-x="1234" 
d="M618 -16q-241 0 -380.5 145t-139.5 424q0 138 41.5 247t113.5 176.5t165 102.5t200 35t200 -35t165.5 -102.5t114 -176.5t41.5 -247q0 -140 -39 -249.5t-109.5 -178.5t-165 -105t-207.5 -36zM618 172q65 0 117.5 20t95 63t66 118t23.5 176q0 102 -24.5 177t-68 116.5
t-95 60.5t-114.5 19q-62 0 -114 -19t-95 -60.5t-67.5 -116.5t-24.5 -177q0 -377 301 -377zM848 1223h-463q-22 0 -36.5 14t-14.5 37v49q0 23 14 37t37 14h463q24 0 37.5 -13.5t13.5 -37.5v-49q0 -24 -13.5 -37.5t-37.5 -13.5z" />
    <glyph glyph-name="Oslash.smcp" horiz-adv-x="1234" 
d="M969 1079l-33 -63q203 -149 203 -463q0 -140 -39 -249.5t-109.5 -178.5t-165 -105t-207.5 -36q-90 0 -184 24q-23 -31 -102 -31q-51 0 -68.5 12.5t-17.5 37.5q0 14 8 30l18 37q-174 147 -174 459q0 138 41.5 247t113.5 176.5t165 102.5t200 35q78 0 152 -18l14 28
q8 12 15.5 18.5t31.5 13.5t62 7q50 0 68 -13t18 -36q0 -12 -10 -35zM618 172q65 0 117.5 20t95 63t66 118t23.5 176q0 178 -78 276l-320 -643q39 -10 96 -10zM317 549q0 -158 56 -252l307 618q-35 7 -62 7q-62 0 -114 -19t-95 -60.5t-67.5 -116.5t-24.5 -177z" />
    <glyph glyph-name="Otilde.smcp" horiz-adv-x="1234" 
d="M618 -16q-241 0 -380.5 145t-139.5 424q0 138 41.5 247t113.5 176.5t165 102.5t200 35t200 -35t165.5 -102.5t114 -176.5t41.5 -247q0 -140 -39 -249.5t-109.5 -178.5t-165 -105t-207.5 -36zM618 172q65 0 117.5 20t95 63t66 118t23.5 176q0 102 -24.5 177t-68 116.5
t-95 60.5t-114.5 19q-62 0 -114 -19t-95 -60.5t-67.5 -116.5t-24.5 -177q0 -377 301 -377zM395 1208q-15 -12 -24 -12q-16 0 -54 41.5t-38 54.5q0 19 20 39q35 42 87 68t108 26q45 0 96 -21.5t93 -43t67 -21.5q43 0 96 66q9 12 18 12q14 0 52 -41.5t38 -56.5q0 -37 -59 -84
t-131 -47q-48 0 -97.5 21t-93.5 42t-77 21q-13 0 -31.5 -11t-30 -20t-39.5 -33z" />
    <glyph glyph-name="P.smcp" horiz-adv-x="1064" 
d="M283 0q-107 0 -107 31v991q0 37 99.5 64.5t240.5 27.5q216 0 339.5 -104t123.5 -287q0 -110 -36.5 -196t-99 -138t-141 -79t-167.5 -27q-36 0 -72.5 4t-54.5 8l-19 4v-268q0 -31 -106 -31zM389 518q0 -59 137 -59q105 0 163.5 64t58.5 192q0 116 -58 169.5t-174 53.5
q-60 0 -93.5 -19t-33.5 -45v-356z" />
    <glyph glyph-name="Q.smcp" horiz-adv-x="1259" 
d="M512 0q-67 12 -123 33t-111.5 62.5t-94 99.5t-62 147t-23.5 201q0 141 42 251.5t114.5 179t166 103.5t200.5 35q85 0 161.5 -21.5t142 -67.5t113.5 -112t75.5 -159.5t27.5 -206.5q0 -402 -342 -527q35 0 75 -16t72.5 -36t91 -36t127.5 -16q21 0 21 -18q0 -38 -64 -92
t-135 -54q-58 0 -105 21.5t-82 54.5t-71.5 67t-92 64.5t-124.5 42.5zM621 170q64 0 116.5 20t95 63t66 118t23.5 176t-24.5 176t-68 116.5t-95 61t-113.5 19.5t-114.5 -19.5t-96 -61t-68.5 -116.5t-25 -176q0 -198 81.5 -287.5t222.5 -89.5z" />
    <glyph glyph-name="R.smcp" horiz-adv-x="1140" 
d="M283 0q-107 0 -107 31v993q0 37 98.5 63.5t239.5 26.5q218 0 341.5 -92t123.5 -258q0 -70 -25.5 -132t-61.5 -100t-72 -66t-62 -40l-25 -12q21 -9 57 -55.5t69.5 -95.5t80 -89.5t88.5 -40.5q5 0 19 1t20 1q18 0 18 -18q0 -38 -62 -84.5t-134 -46.5q-54 0 -98 20
t-73.5 51.5t-54 70t-44 77t-38.5 70t-42.5 51.5t-51.5 20h-73q-25 0 -25 -24v-291q0 -31 -106 -31zM389 571q0 -49 96 -49q53 0 97 11t83 36t61 72.5t22 114.5q0 98 -61 141t-155 43q-143 0 -143 -47v-322z" />
    <glyph glyph-name="Racute.smcp" horiz-adv-x="1140" 
d="M283 0q-107 0 -107 31v993q0 37 98.5 63.5t239.5 26.5q218 0 341.5 -92t123.5 -258q0 -70 -25.5 -132t-61.5 -100t-72 -66t-62 -40l-25 -12q21 -9 57 -55.5t69.5 -95.5t80 -89.5t88.5 -40.5q5 0 19 1t20 1q18 0 18 -18q0 -38 -62 -84.5t-134 -46.5q-54 0 -98 20
t-73.5 51.5t-54 70t-44 77t-38.5 70t-42.5 51.5t-51.5 20h-73q-25 0 -25 -24v-291q0 -31 -106 -31zM389 571q0 -49 96 -49q53 0 97 11t83 36t61 72.5t22 114.5q0 98 -61 141t-155 43q-143 0 -143 -47v-322zM444 1192q-13 0 -36 24.5t-23 36.5q0 15 18 37q15 18 203 230
q24 20 37 20q23 0 67 -44t44 -69q0 -17 -21 -34q-20 -18 -117.5 -90.5t-132.5 -94.5q-28 -16 -39 -16z" />
    <glyph glyph-name="Rcaron.smcp" horiz-adv-x="1140" 
d="M283 0q-107 0 -107 31v993q0 37 98.5 63.5t239.5 26.5q218 0 341.5 -92t123.5 -258q0 -70 -25.5 -132t-61.5 -100t-72 -66t-62 -40l-25 -12q21 -9 57 -55.5t69.5 -95.5t80 -89.5t88.5 -40.5q5 0 19 1t20 1q18 0 18 -18q0 -38 -62 -84.5t-134 -46.5q-54 0 -98 20
t-73.5 51.5t-54 70t-44 77t-38.5 70t-42.5 51.5t-51.5 20h-73q-25 0 -25 -24v-291q0 -31 -106 -31zM389 571q0 -49 96 -49q53 0 97 11t83 36t61 72.5t22 114.5q0 98 -61 141t-155 43q-143 0 -143 -47v-322zM512 1198q-9 0 -18 2t-15 4.5t-14 8.5t-11.5 8.5t-11.5 10t-10 9.5
l-184 197q-15 15 -15 30t15 27l55 47q11 8 27 8q23 0 32 -12l148 -158l152 158q9 12 32 12q18 0 29 -8l53 -45q12 -12 12 -29q0 -13 -10 -30l-184 -197q-1 -1 -7.5 -6.5t-8.5 -7.5t-8 -7t-10 -7.5t-10 -5.5t-11.5 -4.5t-12.5 -3t-14 -1.5z" />
    <glyph glyph-name="S.smcp" horiz-adv-x="962" 
d="M494 -18q-81 0 -161 25t-127 56t-56 54q-27 62 -27 153q0 25 22 25q9 0 40 -19.5t70 -43t104 -43t133 -19.5q83 0 126.5 39t43.5 96q0 43 -29.5 75.5t-76.5 54.5t-103.5 42t-113.5 45.5t-104 58t-76.5 87t-29.5 125.5q0 136 114 227.5t283 91.5q59 0 112 -11.5
t87.5 -28.5t60 -36t37 -34.5t11.5 -24.5q0 -25 -31 -66t-51 -41q-12 0 -40.5 16t-76 32t-105.5 16q-91 0 -138.5 -34t-47.5 -93q0 -44 29.5 -76t77 -52t104.5 -38.5t114.5 -42.5t105 -56t77 -86t29.5 -126q0 -156 -104 -252t-283 -96z" />
    <glyph glyph-name="Sacute.smcp" horiz-adv-x="962" 
d="M494 -18q-81 0 -161 25t-127 56t-56 54q-27 62 -27 153q0 25 22 25q9 0 40 -19.5t70 -43t104 -43t133 -19.5q83 0 126.5 39t43.5 96q0 43 -29.5 75.5t-76.5 54.5t-103.5 42t-113.5 45.5t-104 58t-76.5 87t-29.5 125.5q0 136 114 227.5t283 91.5q59 0 112 -11.5
t87.5 -28.5t60 -36t37 -34.5t11.5 -24.5q0 -25 -31 -66t-51 -41q-12 0 -40.5 16t-76 32t-105.5 16q-91 0 -138.5 -34t-47.5 -93q0 -44 29.5 -76t77 -52t104.5 -38.5t114.5 -42.5t105 -56t77 -86t29.5 -126q0 -156 -104 -252t-283 -96zM422 1190q-13 0 -36.5 24.5t-23.5 36.5
q0 14 19 37q15 18 203 230q24 20 37 20q23 0 66.5 -44t43.5 -69q0 -17 -20 -34q-20 -18 -117.5 -90.5t-132.5 -94.5q-28 -16 -39 -16z" />
    <glyph glyph-name="Scaron.smcp" horiz-adv-x="962" 
d="M494 -18q-81 0 -161 25t-127 56t-56 54q-27 62 -27 153q0 25 22 25q9 0 40 -19.5t70 -43t104 -43t133 -19.5q83 0 126.5 39t43.5 96q0 43 -29.5 75.5t-76.5 54.5t-103.5 42t-113.5 45.5t-104 58t-76.5 87t-29.5 125.5q0 136 114 227.5t283 91.5q59 0 112 -11.5
t87.5 -28.5t60 -36t37 -34.5t11.5 -24.5q0 -25 -31 -66t-51 -41q-12 0 -40.5 16t-76 32t-105.5 16q-91 0 -138.5 -34t-47.5 -93q0 -44 29.5 -76t77 -52t104.5 -38.5t114.5 -42.5t105 -56t77 -86t29.5 -126q0 -156 -104 -252t-283 -96zM520 1217q-9 0 -18 2t-15 4.5t-14 8.5
t-11.5 8.5t-11.5 10t-10 9.5l-184 196q-14 14 -14 31q0 15 14 26l55 48q11 8 27 8q23 0 33 -13l147 -157l152 157q10 13 32 13q18 0 29 -8l53 -45q13 -13 13 -29q0 -13 -11 -31l-184 -196q-1 -1 -7.5 -6.5t-8.5 -7.5t-8 -7t-10 -7.5t-10 -5.5t-11.5 -4.5t-12.5 -3t-14 -1.5z
" />
    <glyph glyph-name="Scommaaccent.smcp" horiz-adv-x="962" 
d="M494 -18q-81 0 -161 25t-127 56t-56 54q-27 62 -27 153q0 25 22 25q9 0 40 -19.5t70 -43t104 -43t133 -19.5q83 0 126.5 39t43.5 96q0 43 -29.5 75.5t-76.5 54.5t-103.5 42t-113.5 45.5t-104 58t-76.5 87t-29.5 125.5q0 136 114 227.5t283 91.5q59 0 112 -11.5
t87.5 -28.5t60 -36t37 -34.5t11.5 -24.5q0 -25 -31 -66t-51 -41q-12 0 -40.5 16t-76 32t-105.5 16q-91 0 -138.5 -34t-47.5 -93q0 -44 29.5 -76t77 -52t104.5 -38.5t114.5 -42.5t105 -56t77 -86t29.5 -126q0 -156 -104 -252t-283 -96zM375 -621q-16 0 -26.5 8.5t-10.5 22.5
q0 17 18.5 41.5t37 55t18.5 63.5q0 17 -8 30.5t-17 24.5t-17 41.5t-8 77.5q0 123 134 123q64 0 95.5 -30.5t31.5 -100.5q0 -67 -28 -134.5t-67.5 -115t-81.5 -77.5t-71 -30z" />
    <glyph glyph-name="T.smcp" horiz-adv-x="905" 
d="M453 -2q-44 0 -68.5 5t-31.5 11.5t-7 16.5v852q0 24 -24 24h-232q-33 0 -33 99q0 37 5 58t11.5 26.5t16.5 5.5h725q10 0 16.5 -5.5t11.5 -26.5t5 -58q0 -99 -33 -99h-231q-25 0 -25 -24v-852q0 -33 -106 -33z" />
    <glyph glyph-name="Tcaron.smcp" horiz-adv-x="905" 
d="M453 -2q-44 0 -68.5 5t-31.5 11.5t-7 16.5v852q0 24 -24 24h-232q-33 0 -33 99q0 37 5 58t11.5 26.5t16.5 5.5h725q10 0 16.5 -5.5t11.5 -26.5t5 -58q0 -99 -33 -99h-231q-25 0 -25 -24v-852q0 -33 -106 -33zM453 1530q-9 0 -18 2t-15 4.5t-14 8.5t-11.5 8.5t-11.5 10
t-10 9.5l-185 196q-14 14 -14 31q0 16 14 27l56 47q11 8 26 8q24 0 33 -12l148 -158l151 158q9 12 33 12q18 0 29 -8l53 -45q12 -12 12 -29q0 -14 -10 -31l-184 -196q-1 -1 -7.5 -6.5t-8.5 -7.5t-8 -7t-10 -7.5t-10 -5.5t-11.5 -4.5t-12.5 -3t-14 -1.5z" />
    <glyph glyph-name="Tcommaaccent.smcp" horiz-adv-x="905" 
d="M453 -2q-44 0 -68.5 5t-31.5 11.5t-7 16.5v852q0 24 -24 24h-232q-33 0 -33 99q0 37 5 58t11.5 26.5t16.5 5.5h725q10 0 16.5 -5.5t11.5 -26.5t5 -58q0 -99 -33 -99h-231q-25 0 -25 -24v-852q0 -33 -106 -33zM346 -621q-16 0 -26.5 8.5t-10.5 22.5q0 17 18.5 41.5t37 55
t18.5 63.5q0 17 -7.5 30.5t-17 24.5t-17 41.5t-7.5 77.5q0 123 133 123q64 0 95.5 -30.5t31.5 -100.5q0 -67 -28 -134.5t-67.5 -115t-81.5 -77.5t-71 -30z" />
    <glyph glyph-name="U.smcp" horiz-adv-x="1204" 
d="M602 -18q-114 0 -201.5 33.5t-140.5 92.5t-79.5 136t-26.5 168v651q0 10 6.5 16.5t31 11.5t68.5 5q107 0 107 -33v-604q0 -289 235 -289q236 0 236 289v604q0 33 106 33q44 0 68.5 -5t31.5 -11.5t7 -16.5v-651q0 -91 -26.5 -168t-80 -136t-141 -92.5t-201.5 -33.5z" />
    <glyph glyph-name="Uacute.smcp" horiz-adv-x="1204" 
d="M602 -18q-114 0 -201.5 33.5t-140.5 92.5t-79.5 136t-26.5 168v651q0 10 6.5 16.5t31 11.5t68.5 5q107 0 107 -33v-604q0 -289 235 -289q236 0 236 289v604q0 33 106 33q44 0 68.5 -5t31.5 -11.5t7 -16.5v-651q0 -91 -26.5 -168t-80 -136t-141 -92.5t-201.5 -33.5z
M524 1176q-13 0 -36 24.5t-23 36.5q0 15 18 37q15 17 57 65t90.5 102t55.5 62q25 21 37 21q23 0 67 -44t44 -69q0 -17 -21 -35q-19 -18 -117 -89.5t-133 -94.5q-28 -16 -39 -16z" />
    <glyph glyph-name="Ubreve.smcp" horiz-adv-x="1204" 
d="M602 -18q-114 0 -201.5 33.5t-140.5 92.5t-79.5 136t-26.5 168v651q0 10 6.5 16.5t31 11.5t68.5 5q107 0 107 -33v-604q0 -289 235 -289q236 0 236 289v604q0 33 106 33q44 0 68.5 -5t31.5 -11.5t7 -16.5v-651q0 -91 -26.5 -168t-80 -136t-141 -92.5t-201.5 -33.5z
M602 1178q-59 0 -115 28.5t-92 67t-58 75t-22 56.5q0 30 32.5 55t60.5 25q17 0 29.5 -11.5t27.5 -37.5q69 -113 139 -113q67 0 137 111q31 51 56 51q29 0 60.5 -25t31.5 -55q0 -20 -21.5 -56.5t-57.5 -75t-92.5 -67t-115.5 -28.5z" />
    <glyph glyph-name="Ucircumflex.smcp" horiz-adv-x="1204" 
d="M602 -18q-114 0 -201.5 33.5t-140.5 92.5t-79.5 136t-26.5 168v651q0 10 6.5 16.5t31 11.5t68.5 5q107 0 107 -33v-604q0 -289 235 -289q236 0 236 289v604q0 33 106 33q44 0 68.5 -5t31.5 -11.5t7 -16.5v-651q0 -91 -26.5 -168t-80 -136t-141 -92.5t-201.5 -33.5z
M795 1178q-16 0 -35 16l-162 147l-154 -145q-20 -16 -36 -16q-18 0 -25 10l-61 55q-19 19 -19 37q0 15 14 29l203 186q20 17 34.5 22t45.5 5q33 0 48 -5.5t34 -21.5l203 -186q14 -14 14 -31t-18 -35l-58 -55q-12 -12 -28 -12z" />
    <glyph glyph-name="Udieresis.smcp" horiz-adv-x="1204" 
d="M602 -18q-114 0 -201.5 33.5t-140.5 92.5t-79.5 136t-26.5 168v651q0 10 6.5 16.5t31 11.5t68.5 5q107 0 107 -33v-604q0 -289 235 -289q236 0 236 289v604q0 33 106 33q44 0 68.5 -5t31.5 -11.5t7 -16.5v-651q0 -91 -26.5 -168t-80 -136t-141 -92.5t-201.5 -33.5z
M424 1188q-119 0 -119 133q0 135 119 135q59 0 93 -34.5t34 -100.5q0 -133 -127 -133zM774 1188q-121 0 -121 133q0 135 121 135q58 0 91.5 -34.5t33.5 -100.5q0 -133 -125 -133z" />
    <glyph glyph-name="Ugrave.smcp" horiz-adv-x="1204" 
d="M602 -18q-114 0 -201.5 33.5t-140.5 92.5t-79.5 136t-26.5 168v651q0 10 6.5 16.5t31 11.5t68.5 5q107 0 107 -33v-604q0 -289 235 -289q236 0 236 289v604q0 33 106 33q44 0 68.5 -5t31.5 -11.5t7 -16.5v-651q0 -91 -26.5 -168t-80 -136t-141 -92.5t-201.5 -33.5z
M717 1186q-15 0 -39 16q-35 23 -133 94.5t-117 89.5q-20 17 -20 35q0 24 43 68.5t65 44.5q16 0 37 -21q7 -8 56 -62.5t91 -102t56 -64.5q20 -20 20 -37q0 -12 -23.5 -36.5t-35.5 -24.5z" />
    <glyph glyph-name="Uhungarumlaut.smcp" horiz-adv-x="1204" 
d="M602 -18q-114 0 -201.5 33.5t-140.5 92.5t-79.5 136t-26.5 168v651q0 10 6.5 16.5t31 11.5t68.5 5q107 0 107 -33v-604q0 -289 235 -289q236 0 236 289v604q0 33 106 33q44 0 68.5 -5t31.5 -11.5t7 -16.5v-651q0 -91 -26.5 -168t-80 -136t-141 -92.5t-201.5 -33.5z
M385 1178q-13 0 -36 24.5t-23 36.5q0 15 18 37q15 17 57 65t90.5 102t55.5 62q25 21 37 21q23 0 66.5 -44t43.5 -69q0 -18 -20 -35q-19 -18 -117 -89.5t-133 -94.5q-28 -16 -39 -16zM709 1178q-13 0 -36.5 24.5t-23.5 36.5q0 14 19 37q18 21 202 229q25 21 37 21
q23 0 67 -44t44 -69q0 -17 -21 -35q-20 -18 -117 -89.5t-132 -94.5q-28 -16 -39 -16z" />
    <glyph glyph-name="Umacron.smcp" horiz-adv-x="1204" 
d="M602 -18q-114 0 -201.5 33.5t-140.5 92.5t-79.5 136t-26.5 168v651q0 10 6.5 16.5t31 11.5t68.5 5q107 0 107 -33v-604q0 -289 235 -289q236 0 236 289v604q0 33 106 33q44 0 68.5 -5t31.5 -11.5t7 -16.5v-651q0 -91 -26.5 -168t-80 -136t-141 -92.5t-201.5 -33.5z
M834 1204h-463q-22 0 -37 14t-15 37v50q0 23 14.5 37t37.5 14h463q24 0 37.5 -13.5t13.5 -37.5v-50q0 -24 -13.5 -37.5t-37.5 -13.5z" />
    <glyph glyph-name="Uring.smcp" horiz-adv-x="1204" 
d="M602 -18q-114 0 -201.5 33.5t-140.5 92.5t-79.5 136t-26.5 168v651q0 10 6.5 16.5t31 11.5t68.5 5q107 0 107 -33v-604q0 -289 235 -289q236 0 236 289v604q0 33 106 33q44 0 68.5 -5t31.5 -11.5t7 -16.5v-651q0 -91 -26.5 -168t-80 -136t-141 -92.5t-201.5 -33.5z
M600 1178q-85 0 -144 57t-59 139q0 83 60 142t143 59q85 0 146 -59t61 -142q0 -81 -61 -138.5t-146 -57.5zM600 1470q-35 0 -59.5 -28.5t-24.5 -67.5t24 -66.5t60 -27.5q38 0 62 27.5t24 66.5t-25 67.5t-61 28.5z" />
    <glyph glyph-name="V.smcp" horiz-adv-x="1075" 
d="M537 -2q-43 0 -67 5.5t-30 11.5t-10 16l-385 1005l-10 27q-3 9 2.5 16t30 12t67.5 5q126 0 137 -33l265 -789l264 789q11 33 137 33q43 0 67.5 -5t30 -12t2.5 -16l-20 -51l-375 -981q-4 -11 -9.5 -16.5t-29.5 -11t-67 -5.5z" />
    <glyph glyph-name="W.smcp" horiz-adv-x="1568" 
d="M436 0q-61 0 -82.5 8.5t-25.5 24.5l-277 1003l-8 29q-2 10 3.5 16.5t29 11.5t67.5 5q114 0 121 -33l199 -756l215 707q8 29 26.5 39t79.5 10q56 0 77.5 -10.5t29.5 -38.5l215 -707l199 756q7 33 120 33q44 0 68 -5t29.5 -11.5t3.5 -16.5l-10 -39l-275 -993
q-4 -16 -25.5 -24.5t-82.5 -8.5q-63 0 -85.5 8.5t-27.5 24.5l-236 717l-235 -717q-5 -16 -27.5 -24.5t-85.5 -8.5z" />
    <glyph glyph-name="X.smcp" horiz-adv-x="1038" 
d="M877 0q-102 0 -123 33l-254 385q-168 -207 -211 -375q-5 -25 -28.5 -34t-94.5 -9q-67 0 -93 8.5t-26 34.5q0 95 167 300q45 56 189 220l-315 477q-8 11 -8 21q0 9 10 17t37.5 14t69.5 6q101 0 122 -33l222 -336q70 93 104.5 167.5t56.5 158.5q5 25 28.5 34t94.5 9
q67 0 93 -8.5t26 -34.5q0 -83 -75.5 -193.5t-227.5 -281.5l344 -523q8 -11 8 -20t-9.5 -17t-37 -14t-69.5 -6z" />
    <glyph glyph-name="Y.smcp" horiz-adv-x="989" 
d="M496 0q-44 0 -68.5 5t-31.5 11.5t-7 16.5v409q0 8 -2 15t-4 11l-2 3l-332 569q-8 16 -8 21q0 9 10 17t38 14t71 6q100 0 121 -33l215 -395l215 395q21 33 120 33q43 0 71 -6t38 -14t10 -17q0 -5 -8 -21l-334 -569q-6 -11 -6 -29v-409q0 -33 -106 -33z" />
    <glyph glyph-name="Yacute.smcp" horiz-adv-x="989" 
d="M496 0q-44 0 -68.5 5t-31.5 11.5t-7 16.5v409q0 8 -2 15t-4 11l-2 3l-332 569q-8 16 -8 21q0 9 10 17t38 14t71 6q100 0 121 -33l215 -395l215 395q21 33 120 33q43 0 71 -6t38 -14t10 -17q0 -5 -8 -21l-334 -569q-6 -11 -6 -29v-409q0 -33 -106 -33zM401 1161
q-13 0 -36 25t-23 37q0 15 18 37q15 17 57 65t90.5 102t55.5 62q24 20 37 20q24 0 67.5 -43.5t43.5 -68.5q0 -17 -21 -35q-19 -18 -117 -89.5t-133 -94.5q-30 -17 -39 -17z" />
    <glyph glyph-name="Ydieresis.smcp" horiz-adv-x="989" 
d="M496 0q-44 0 -68.5 5t-31.5 11.5t-7 16.5v409q0 8 -2 15t-4 11l-2 3l-332 569q-8 16 -8 21q0 9 10 17t38 14t71 6q100 0 121 -33l215 -395l215 395q21 33 120 33q43 0 71 -6t38 -14t10 -17q0 -5 -8 -21l-334 -569q-6 -11 -6 -29v-409q0 -33 -106 -33zM311 1190
q-118 0 -118 133q0 135 118 135q59 0 93 -34.5t34 -100.5q0 -133 -127 -133zM662 1190q-121 0 -121 133q0 135 121 135q58 0 91 -34.5t33 -100.5q0 -133 -124 -133z" />
    <glyph glyph-name="Z.smcp" horiz-adv-x="1069" 
d="M371 188h301q72 0 127.5 7t80.5 15.5t43.5 15.5t24.5 7q21 0 21 -24q0 -109 -21 -159t-74 -50h-741q-33 0 -33 106q0 75 25 105l549 698h-250q-92 0 -155 -11.5t-90.5 -22.5t-33.5 -11q-18 0 -18 25q0 110 19.5 159.5t72.5 49.5h688q33 0 33 -107q0 -73 -31 -114z" />
    <glyph glyph-name="Zacute.smcp" horiz-adv-x="1069" 
d="M371 188h301q72 0 127.5 7t80.5 15.5t43.5 15.5t24.5 7q21 0 21 -24q0 -109 -21 -159t-74 -50h-741q-33 0 -33 106q0 75 25 105l549 698h-250q-92 0 -155 -11.5t-90.5 -22.5t-33.5 -11q-18 0 -18 25q0 110 19.5 159.5t72.5 49.5h688q33 0 33 -107q0 -73 -31 -114z
M410 1182q-13 0 -36.5 24.5t-23.5 36.5q0 14 19 37q18 21 202 229q25 21 37 21q23 0 67 -44t44 -69q0 -17 -21 -35q-20 -18 -117 -89.5t-132 -94.5q-28 -16 -39 -16z" />
    </font>
</defs>
</svg>
